<svg width="213" height="181" viewBox="0 0 213 181" fill="none" xmlns="http://www.w3.org/2000/svg">
<path d="M8.66877 144.618C8.16285 143.62 7.69261 142.59 7.27126 141.555L7.77598 141.347C8.19188 142.368 8.65572 143.385 9.15486 144.369L8.66877 144.618ZM6.13129 138.385C5.79663 137.318 5.50245 136.223 5.25675 135.132L5.7889 135.011C6.03114 136.088 6.32132 137.167 6.65146 138.22L6.13129 138.385ZM4.65361 131.817C4.49899 130.71 4.38819 129.582 4.324 128.464L4.86868 128.432C4.9318 129.536 5.04127 130.649 5.19375 131.74L4.65361 131.817ZM4.81248 125.107L4.26727 125.094C4.29351 123.974 4.36594 122.843 4.48248 121.732L5.02503 121.79C4.90996 122.886 4.83845 124.001 4.81249 125.107H4.81248ZM5.50725 118.502L4.97136 118.4C5.17911 117.3 5.4352 116.196 5.73257 115.118L6.25834 115.265C5.96483 116.328 5.71219 117.417 5.50725 118.502ZM7.27392 112.101L6.76227 111.912C7.14794 110.862 7.58248 109.815 8.05378 108.8L8.54812 109.031C8.08308 110.033 7.6544 111.066 7.27392 112.101ZM81.9781 110.407C81.5517 109.391 81.0772 108.379 80.5677 107.4L81.0511 107.146C81.5675 108.139 82.0486 109.164 82.4807 110.194L81.9781 110.407ZM10.0704 106.078L9.59685 105.806C10.1493 104.835 10.7492 103.875 11.38 102.951L11.8296 103.262C11.2073 104.173 10.6154 105.12 10.0704 106.078ZM78.915 104.52C78.3276 103.588 77.6941 102.668 77.0321 101.787L77.4675 101.457C78.1385 102.35 78.7805 103.282 79.3758 104.227L78.915 104.52ZM13.8132 100.6L13.3903 100.253C14.094 99.3859 14.8419 98.5372 15.6136 97.7306L16.0067 98.1104C15.2454 98.9063 14.5073 99.7437 13.8132 100.6ZM74.9324 99.2179C74.2008 98.3938 73.4263 97.5903 72.6303 96.8297L73.0062 96.4325C73.8129 97.2034 74.5979 98.0178 75.3394 98.8529L74.9324 99.2179ZM18.3955 95.8099L18.0346 95.3991C18.8692 94.6587 19.7448 93.944 20.637 93.2747L20.9633 93.7139C20.0829 94.3744 19.219 95.0795 18.3955 95.8099ZM70.1414 94.6388C69.2858 93.9458 68.391 93.2801 67.4821 92.6602L67.7884 92.2065C68.7097 92.835 69.6164 93.5096 70.4837 94.2119L70.1414 94.6388ZM23.6928 91.837L23.4036 91.3724C24.348 90.7787 25.3279 90.2178 26.3162 89.7053L26.5663 90.1924C25.5913 90.698 24.6246 91.2514 23.6928 91.837V91.837ZM64.67 90.9077C63.7117 90.3642 62.7204 89.855 61.7236 89.3943L61.9516 88.8962C62.9619 89.3634 63.9667 89.8795 64.9381 90.4302L64.67 90.9077ZM29.5646 88.7919L29.3552 88.2858C30.3832 87.8567 31.4412 87.4658 32.5001 87.124L32.6668 87.6459C31.6223 87.9831 30.5785 88.3686 29.5645 88.7919L29.5646 88.7919ZM58.6626 88.1307C57.6302 87.7541 56.5688 87.4163 55.508 87.1268L55.651 86.598C56.7262 86.8913 57.8021 87.2336 58.8488 87.6155L58.6626 88.1307ZM35.8552 86.7618L35.7322 86.2278C36.8154 85.9754 37.924 85.7654 39.0268 85.6035L39.1056 86.1459C38.0176 86.3057 36.9241 86.5129 35.8552 86.7618L35.8552 86.7618ZM52.2815 86.3895C51.2033 86.1898 50.1013 86.0327 49.0061 85.9227L49.0604 85.3772C50.1704 85.4888 51.2874 85.6479 52.3803 85.8504L52.2815 86.3895ZM42.3954 85.8013L42.361 85.2542C43.4705 85.1838 44.6016 85.1588 45.7132 85.179L45.7034 85.7272C44.6056 85.707 43.4903 85.732 42.3954 85.8013V85.8013Z" fill="#3F3D56"/>
<path d="M83.6209 115.124C83.4748 114.602 83.3161 114.076 83.1489 113.561L83.6675 113.391C83.8369 113.913 83.9979 114.446 84.1459 114.975L83.6209 115.124Z" fill="#3F3D56"/>
<path d="M93.9317 97.5825H93.3862C93.3862 97.0339 93.3958 96.4773 93.4149 95.9284L93.9601 95.9474C93.9413 96.4902 93.9317 97.0402 93.9317 97.5825Z" fill="#3F3D56"/>
<path d="M94.1912 92.6512L93.6487 92.5931C93.7656 91.4892 93.9237 90.3763 94.1186 89.2854L94.6556 89.3822C94.4629 90.4604 94.3067 91.5603 94.1912 92.6512ZM95.3525 86.1553L94.8241 86.0199C95.0971 84.944 95.4127 83.8654 95.7619 82.8138L96.2794 82.9872C95.9342 84.0265 95.6224 85.0923 95.3525 86.1553ZM182.346 80.3721C181.938 79.3549 181.488 78.34 181.009 77.3558L181.499 77.1149C181.984 78.1109 182.439 79.1379 182.852 80.1674L182.346 80.3721ZM97.4323 79.8917L96.9286 79.681C97.3527 78.6567 97.8198 77.6342 98.3171 76.6417L98.8042 76.8882C98.3129 77.869 97.8514 78.8794 97.4323 79.8917ZM179.459 74.4435C178.911 73.4963 178.321 72.5564 177.706 71.6501L178.157 71.3413C178.779 72.2584 179.376 73.2093 179.931 74.1678L179.459 74.4435ZM100.387 73.9921L99.9191 73.7111C100.484 72.7593 101.092 71.8147 101.726 70.9038L102.173 71.2177C101.547 72.118 100.946 73.0514 100.387 73.9921V73.9921ZM175.759 68.9897C175.08 68.1293 174.363 67.2834 173.627 66.4753L174.029 66.1052C174.774 66.9228 175.5 67.7787 176.186 68.6492L175.759 68.9897ZM104.151 68.5791L103.727 68.2338C104.423 67.3714 105.158 66.5238 105.913 65.7144L106.311 66.0891C105.565 66.8891 104.839 67.7269 104.151 68.5791V68.5791ZM171.323 64.1198C170.53 63.3653 169.701 62.6304 168.858 61.9351L169.203 61.5114C170.057 62.2147 170.896 62.9585 171.698 63.7218L171.323 64.1198ZM108.642 63.7604L108.271 63.3581C109.081 62.6045 109.928 61.8705 110.79 61.1766L111.131 61.6043C110.279 62.2902 109.442 63.0155 108.642 63.7604L108.642 63.7604ZM166.243 59.9326C165.352 59.299 164.427 58.6901 163.494 58.1227L163.776 57.6538C164.72 58.2279 165.657 58.844 166.558 59.485L166.243 59.9326ZM113.766 59.6323L113.456 59.1813C114.364 58.5512 115.307 57.9462 116.258 57.3828L116.535 57.8549C115.595 58.4118 114.664 59.0097 113.766 59.6323ZM160.622 56.5156C159.649 56.0164 158.647 55.547 157.643 55.1199L157.855 54.6151C158.872 55.0471 159.886 55.5223 160.87 56.0274L160.622 56.5156ZM119.422 56.2818L119.18 55.7909C120.168 55.2979 121.186 54.8347 122.207 54.4144L122.414 54.9216C121.405 55.337 120.399 55.7947 119.422 56.2818H119.422ZM154.571 53.9437C153.539 53.5907 152.48 53.2708 151.423 52.9931L151.561 52.4629C152.63 52.7438 153.702 53.0675 154.747 53.4247L154.571 53.9437ZM125.494 53.7815L125.324 53.2607C126.373 52.9154 127.448 52.604 128.52 52.3351L128.652 52.867C127.592 53.1326 126.53 53.4403 125.494 53.7815ZM148.215 52.2738C147.142 52.0738 146.049 51.9104 144.964 51.788L145.025 51.2434C146.123 51.3672 147.229 51.5324 148.315 51.7348L148.215 52.2738ZM131.867 52.1836L131.773 51.6435C132.86 51.4533 133.968 51.3004 135.067 51.1886L135.122 51.7341C134.036 51.8444 132.94 51.9956 131.867 52.1836ZM141.688 51.5367C140.595 51.4922 139.485 51.4863 138.401 51.5188L138.384 50.9709C139.481 50.938 140.605 50.9437 141.71 50.9891L141.688 51.5367Z" fill="#3F3D56"/>
<path d="M183.942 85.0757C183.796 84.5541 183.638 84.0275 183.473 83.5102L183.993 83.3432C184.159 83.8665 184.319 84.3994 184.467 84.9272L183.942 85.0757Z" fill="#3F3D56"/>
<path d="M70.1062 109.869L126.184 141.643L59.9642 180.011L4.48254 147.039L70.1062 109.869Z" fill="#3F3D56"/>
<path d="M156.013 62.5085L212.091 94.2822L145.871 132.651L90.3896 99.6778L156.013 62.5085Z" fill="#3F3D56"/>
<path d="M70.1062 106.872L126.184 138.646L59.9642 177.014L4.48254 144.041L70.1062 106.872Z" fill="#D0CDE1"/>
<path d="M156.013 59.5111L212.091 91.2848L145.871 129.653L90.3896 96.6804L156.013 59.5111Z" fill="#D0CDE1"/>
<path d="M169.049 50.5564C170.904 48.4639 172.224 45.95 172.897 43.2309C173.57 40.5118 173.575 37.6691 172.913 34.9475C172.25 32.2259 170.939 29.707 169.092 27.6076C167.246 25.5081 164.919 23.8911 162.313 22.8957C164.639 21.5432 166.456 19.4575 167.483 16.9616C168.51 14.4658 168.689 11.6993 167.992 9.09098C167.295 6.48262 165.762 4.17804 163.629 2.53444C161.497 0.890837 158.884 0 156.197 0C153.509 0 150.897 0.890837 148.764 2.53444C146.632 4.17804 145.098 6.48262 144.402 9.09098C143.705 11.6993 143.884 14.4658 144.911 16.9616C145.937 19.4575 147.755 21.5432 150.081 22.8957C147.478 23.8899 145.153 25.5043 143.308 27.6002C141.462 29.6961 140.151 32.211 139.486 34.9287C138.821 37.6464 138.822 40.4857 139.49 43.2027C140.158 45.9197 141.472 48.4332 143.319 50.5272C138.968 53.3178 135.635 57.4504 133.818 62.3055C132.002 67.1606 131.8 72.4766 133.244 77.4566C134.687 82.4365 137.698 86.812 141.825 89.9272C145.953 93.0424 150.973 94.7293 156.135 94.7352C161.296 94.741 166.321 93.0654 170.455 89.9596C174.589 86.8538 177.61 82.4851 179.064 77.5084C180.519 72.5318 180.33 67.2153 178.524 62.3561C176.718 57.4969 173.394 53.3568 169.049 50.5564Z" fill="#3F3D56"/>
<path d="M84.7305 105.335C84.7305 117.984 77.2487 122.4 68.018 122.4C67.8042 122.4 67.5904 122.397 67.3782 122.392C66.9505 122.383 66.526 122.363 66.1076 122.334C57.7768 121.742 51.3056 117.098 51.3056 105.335C51.3056 93.1641 66.7829 77.8041 67.9488 76.6649C67.9488 76.6647 67.9488 76.6645 67.9489 76.6643C67.949 76.6642 67.9491 76.664 67.9493 76.6638C67.9494 76.6637 67.9496 76.6636 67.9498 76.6635C67.9499 76.6634 67.9501 76.6634 67.9504 76.6634C67.995 76.6186 68.018 76.5969 68.018 76.5969C68.018 76.5969 84.7305 92.688 84.7305 105.335Z" fill="#D0CDE1"/>
<path d="M67.4089 120.465L73.5217 111.883L67.3935 121.408L67.3782 122.392C66.9505 122.383 66.526 122.363 66.1076 122.334L66.766 109.68L66.7613 109.581L66.7721 109.564L66.8352 108.368L60.6917 98.82L66.8536 107.471L66.869 107.725L67.3658 98.1646L62.1068 88.2982L67.4305 96.4875L67.9488 76.6649L67.9504 76.5969V76.6634L67.8642 92.2939L73.1002 86.097L67.8427 93.6402L67.7043 102.201L72.5942 93.9849L67.6843 103.46L67.6073 108.22L74.703 96.7842L67.5797 109.88L67.4089 120.465Z" fill="#3F3D56"/>
<path d="M33.4249 128.116C33.4249 140.765 25.9431 145.181 16.7124 145.181C16.4986 145.181 16.2848 145.178 16.0725 145.174C15.6449 145.164 15.2204 145.144 14.802 145.115C6.47117 144.523 0 139.879 0 128.116C0 115.945 15.4773 100.585 16.6432 99.4461C16.6432 99.4459 16.6432 99.4457 16.6433 99.4455C16.6434 99.4453 16.6435 99.4451 16.6437 99.445C16.6438 99.4448 16.644 99.4447 16.6442 99.4447C16.6443 99.4446 16.6445 99.4445 16.6447 99.4445C16.6894 99.3997 16.7124 99.3781 16.7124 99.3781C16.7124 99.3781 33.4249 115.469 33.4249 128.116Z" fill="#D0CDE1"/>
<path d="M16.1033 143.246L22.216 134.664L16.0879 144.189L16.0725 145.174C15.6449 145.164 15.2203 145.144 14.8019 145.115L15.4603 132.461L15.4557 132.363L15.4664 132.345L15.5295 131.149L9.38599 121.601L15.548 130.253L15.5634 130.506L16.0602 120.946L10.8011 111.079L16.1248 119.269L16.6431 99.4461L16.6447 99.3781V99.4445L16.5586 115.075L21.7945 108.878L16.537 116.421L16.3986 124.982L21.2885 116.766L16.3786 126.241L16.3017 131.001L23.3973 119.565L16.274 132.661L16.1033 143.246Z" fill="#3F3D56"/>
<path d="M116.63 89.3845C114.947 89.3845 113.302 89.8861 111.902 90.8257C110.503 91.7654 109.412 93.101 108.768 94.6635C108.124 96.2261 107.955 97.9456 108.284 99.6044C108.612 101.263 109.423 102.787 110.613 103.983C111.803 105.179 113.319 105.993 114.97 106.323C116.621 106.653 118.332 106.484 119.887 105.837C121.442 105.189 122.771 104.093 123.706 102.687C124.641 101.281 125.14 99.6274 125.14 97.9361C125.14 96.8131 124.92 95.7011 124.492 94.6635C124.064 93.626 123.438 92.6833 122.647 91.8892C121.857 91.0951 120.919 90.4652 119.887 90.0355C118.854 89.6057 117.748 89.3845 116.63 89.3845ZM117.149 98.6661C116.821 98.6661 116.5 98.5682 116.226 98.3849C115.953 98.2015 115.741 97.9409 115.615 97.636C115.489 97.3312 115.456 96.9957 115.52 96.672C115.584 96.3483 115.743 96.051 115.975 95.8176C116.207 95.5843 116.503 95.4254 116.825 95.361C117.147 95.2966 117.481 95.3296 117.784 95.4559C118.088 95.5822 118.347 95.7961 118.53 96.0705C118.712 96.3449 118.809 96.6675 118.809 96.9975C118.809 97.44 118.634 97.8645 118.323 98.1774C118.012 98.4903 117.589 98.6661 117.149 98.6661Z" fill="#F2F2F2"/>
<path d="M125.652 83.3143C125.464 83.5197 122.01 86.8215 122.01 86.8215C122.01 86.8215 122.354 89.1261 126.049 89.4121L132.207 89.8887C132.207 89.8887 133.371 94.1813 134.755 95.5531C136.139 96.9249 135.504 97.0014 136.023 97.67C136.542 98.3387 135.813 98.5179 136.602 98.5828C137.39 98.6478 139.019 97.6899 139.037 96.9489C139.037 96.6889 138.98 96.4321 138.868 96.1977C138.756 95.9632 138.593 95.7572 138.39 95.5949C138.186 95.4063 137.668 93.6027 137.357 93.2212C137.046 92.8398 135.869 88.2516 135.869 88.2516C135.869 88.2516 134.695 86.032 133.067 85.8549C131.439 85.6779 129.628 84.8822 129.628 84.8822" fill="#2F2E41"/>
<path opacity="0.1" d="M125.652 83.3143C125.464 83.5197 122.01 86.8215 122.01 86.8215C122.01 86.8215 122.354 89.1261 126.049 89.4121L132.207 89.8887C132.207 89.8887 133.371 94.1813 134.755 95.5531C136.139 96.9249 135.504 97.0014 136.023 97.67C136.542 98.3387 135.813 98.5179 136.602 98.5828C137.39 98.6478 139.019 97.6899 139.037 96.9489C139.037 96.6889 138.98 96.4321 138.868 96.1977C138.756 95.9632 138.593 95.7572 138.39 95.5949C138.186 95.4063 137.668 93.6027 137.357 93.2212C137.046 92.8398 135.869 88.2516 135.869 88.2516C135.869 88.2516 134.695 86.032 133.067 85.8549C131.439 85.6779 129.628 84.8822 129.628 84.8822" fill="black"/>
<path d="M131.625 70.0001C131.625 70.0001 132.921 66.4613 133.808 67.5889C134.695 68.7164 132.381 70.568 132.381 70.568L131.625 70.0001Z" fill="#A0616A"/>
<path d="M124.798 71.8474L125.536 71.5336C125.536 71.5336 126.876 72.9462 127.408 73.209C127.94 73.4718 129.393 74.1078 129.586 74.2123C129.78 74.3168 131.967 70.4277 131.444 69.8692C131.444 69.8692 132.423 70.224 132.869 70.0895C132.869 70.0895 131.756 75.5112 131.587 76.2459C131.417 76.9806 131.022 77.0673 130.285 77.0942C129.548 77.1212 125.072 75.8015 125.072 75.8015L124.798 71.8474Z" fill="#575A89"/>
<path d="M136.183 98.1185C136.183 98.1185 136.411 98.8537 136.31 98.9715C136.208 99.0892 135.911 101.1 137.133 100.968C138.355 100.837 138.943 100.441 139.253 100.463C139.562 100.485 144.155 98.8746 143.927 98.1394C143.699 97.4041 141.403 98.2094 141.403 98.2094C141.403 98.2094 138.794 97.7107 138.181 97.1356C137.569 96.5605 136.183 98.1185 136.183 98.1185Z" fill="#2F2E41"/>
<path opacity="0.1" d="M136.183 98.1185C136.183 98.1185 136.411 98.8537 136.31 98.9715C136.208 99.0892 135.911 101.1 137.133 100.968C138.355 100.837 138.943 100.441 139.253 100.463C139.562 100.485 144.155 98.8746 143.927 98.1394C143.699 97.4041 141.403 98.2094 141.403 98.2094C141.403 98.2094 138.794 97.7107 138.181 97.1356C137.569 96.5605 136.183 98.1185 136.183 98.1185Z" fill="black"/>
<path d="M133.842 99.2003C133.842 99.2003 134.579 102.429 135.12 102.396C135.661 102.363 139.479 100.495 139.949 100.126C140.552 99.6507 140.528 98.8115 139.836 98.9877C139.144 99.164 137.185 99.0059 136.852 98.6505L135.996 97.7367L133.842 99.2003Z" fill="#2F2E41"/>
<path d="M126.282 81.2638C126.08 81.455 119.935 86.694 119.935 86.694C119.935 86.694 120.438 90.0808 124.102 90.636C127.767 91.1911 129.882 90.4979 129.882 90.4979C129.882 90.4979 130.732 94.8641 132.014 96.3334C133.295 97.8027 132.656 97.8326 133.125 98.5374C133.595 99.2422 132.855 99.3677 133.637 99.49C134.418 99.6124 136.112 98.776 136.183 98.0383C136.203 97.779 136.164 97.5187 136.069 97.2767C135.974 97.0347 135.826 96.8173 135.636 96.6407C135.446 96.4376 135.06 94.6009 134.777 94.1978C134.495 93.7946 133.653 89.1327 133.653 89.1327C133.653 89.1327 132.643 86.8331 131.032 86.5376C129.421 86.2421 127.672 85.3162 127.672 85.3162" fill="#2F2E41"/>
<path d="M120.625 69.9139C122.235 69.9139 123.539 68.6029 123.539 66.9856C123.539 65.3684 122.235 64.0573 120.625 64.0573C119.016 64.0573 117.711 65.3684 117.711 66.9856C117.711 68.6029 119.016 69.9139 120.625 69.9139Z" fill="#A0616A"/>
<path d="M119.098 68.8136C119.098 68.8136 119.535 70.6025 118.869 71.5194C118.204 72.4363 123.321 71.9998 123.321 71.9998C123.321 71.9998 121.936 69.097 122.447 68.422C122.958 67.747 119.098 68.8136 119.098 68.8136Z" fill="#A0616A"/>
<path d="M125.639 71.6262C126.258 72.2862 126.047 76.0284 126.047 76.0284L125.652 79.3704C125.652 79.3704 126.125 79.9766 125.97 80.2185C125.816 80.4604 125.563 80.6994 126.05 80.8128C126.538 80.9263 127.661 81.1084 127.302 81.64C127.184 81.7906 127.058 81.9345 126.925 82.071C126.81 82.1928 126.674 82.3341 126.52 82.4917C126.158 82.8586 125.698 83.3097 125.188 83.7855C125.044 83.9212 124.896 84.0581 124.744 84.1962C122.798 85.9651 120.379 87.8374 119.878 86.9388C119.04 85.4337 118.457 85.2187 118.496 83.9375C118.534 82.6562 117.455 79.3682 117.455 79.3682C117.455 79.3682 116.201 73.7565 117.969 72.0839L118.245 71.6395C118.373 71.4329 118.563 71.2721 118.788 71.1799C119.012 71.0876 119.259 71.0686 119.495 71.1255C120.358 71.3328 121.681 71.619 122.254 71.5728C123.14 71.5011 122.946 71.1351 122.946 71.1351C122.946 71.1351 125.021 70.9663 125.639 71.6262Z" fill="#575A89"/>
<path d="M128.372 83.5961C128.372 83.5961 131.977 84.4947 131.448 85.7611C130.919 87.0274 127.798 84.7131 127.798 84.7131L128.372 83.5961Z" fill="#A0616A"/>
<path d="M119.012 68.057C119.084 67.9696 119.013 67.842 118.951 67.7477C118.616 67.2428 118.552 66.5243 118.92 66.0435C119.066 65.8644 119.247 65.7186 119.453 65.6156C119.741 65.4618 120.057 65.3646 120.382 65.3291C120.554 65.3266 120.725 65.2927 120.886 65.2292C120.988 65.1774 121.467 65.0086 121.57 64.9595C121.797 64.8514 122.111 64.8981 122.256 64.6927C122.395 64.4963 122.266 64.2271 122.131 64.0279C121.824 63.574 121.048 63.1979 120.514 63.0788C120.101 63.0158 119.679 63.091 119.313 63.293C118.881 63.5084 118.471 63.7662 118.089 64.0625C117.543 64.4255 117.08 64.9021 116.733 65.46C116.418 66.0345 116.342 66.7827 116.698 67.3325C116.772 67.4471 116.863 67.5505 116.932 67.6679C117.101 67.9545 117.132 68.3012 117.251 68.612C117.34 68.8392 117.476 69.0451 117.649 69.2165C117.822 69.3878 118.029 69.5209 118.256 69.6069C118.621 69.7424 119.069 69.7798 119.284 70.1048L119.385 69.4271C119.411 69.3416 119.407 69.2497 119.374 69.1667C119.341 69.0837 119.281 69.0146 119.203 68.971L118.687 68.5341C118.584 68.4637 118.506 68.3626 118.464 68.2449C118.352 67.7769 118.893 68.2026 119.012 68.057Z" fill="#2F2E41"/>
<path opacity="0.1" d="M124.181 80.9534L126.52 82.4918C126.056 82.963 125.429 83.5729 124.744 84.1962C124.095 83.8451 123.433 83.4649 122.841 83.0829C120.674 81.6854 118.816 78.1764 117.984 76.4741C117.152 74.7719 117.829 73.4607 117.829 73.4607C118.381 73.2153 118.964 73.0503 119.562 72.9708C120.647 72.8064 124.181 80.9534 124.181 80.9534Z" fill="black"/>
<path opacity="0.1" d="M124.49 80.4695L126.925 82.071C126.81 82.1928 126.674 82.3342 126.52 82.4917C126.158 82.8586 125.699 83.3097 125.188 83.7855C124.497 83.4143 123.783 83.0075 123.15 82.5991C120.983 81.2016 119.125 77.6925 118.293 75.9903C117.461 74.288 119.7 74.8986 119.7 74.8986C119.7 74.8986 118.538 74.3701 119.623 74.2057C120.708 74.0413 124.49 80.4695 124.49 80.4695Z" fill="black"/>
<path d="M117.936 73.168C117.936 73.168 117.259 74.4792 118.091 76.1815C118.923 77.8837 120.781 81.3927 122.948 82.7902C125.114 84.1877 128.214 85.5643 128.214 85.5643C128.214 85.5643 128.508 83.9455 129.005 83.7633L124.288 80.6607C124.288 80.6607 120.754 72.5137 119.669 72.6781C119.071 72.7576 118.487 72.9226 117.936 73.168Z" fill="#575A89"/>
<path d="M117.149 106.592C115.261 106.592 113.415 106.029 111.845 104.975C110.274 103.921 109.051 102.422 108.328 100.669C107.605 98.916 107.416 96.9868 107.785 95.1257C108.153 93.2646 109.062 91.555 110.398 90.2132C111.733 88.8714 113.434 87.9576 115.286 87.5874C117.138 87.2172 119.058 87.4072 120.803 88.1334C122.547 88.8596 124.038 90.0893 125.087 91.6671C126.137 93.2449 126.697 95.0999 126.697 96.9975C126.694 99.5412 125.687 101.98 123.897 103.779C122.107 105.577 119.68 106.589 117.149 106.592ZM117.149 87.6116C115.302 87.6116 113.496 88.1621 111.96 89.1934C110.424 90.2248 109.227 91.6906 108.52 93.4057C107.813 95.1207 107.628 97.0079 107.988 98.8286C108.349 100.649 109.238 102.322 110.545 103.634C111.851 104.947 113.515 105.841 115.327 106.203C117.139 106.565 119.017 106.379 120.723 105.669C122.43 104.958 123.889 103.755 124.915 102.212C125.941 100.668 126.489 98.8538 126.489 96.9975C126.486 94.5091 125.501 92.1234 123.75 90.3638C121.999 88.6042 119.625 87.6144 117.149 87.6116Z" fill="#3F3D56"/>
<path d="M117.149 98.7704C116.8 98.7704 116.459 98.6664 116.169 98.4716C115.879 98.2768 115.653 97.9999 115.519 97.6759C115.386 97.352 115.351 96.9955 115.419 96.6516C115.487 96.3077 115.655 95.9918 115.901 95.7439C116.148 95.4959 116.463 95.3271 116.805 95.2587C117.147 95.1903 117.502 95.2254 117.824 95.3596C118.146 95.4937 118.422 95.721 118.616 96.0125C118.81 96.3041 118.913 96.6469 118.913 96.9975C118.913 97.4675 118.727 97.9182 118.396 98.2505C118.065 98.5829 117.617 98.7698 117.149 98.7704ZM117.149 95.4332C116.841 95.4332 116.54 95.5249 116.284 95.6968C116.028 95.8687 115.829 96.113 115.711 96.3989C115.593 96.6847 115.562 96.9992 115.622 97.3027C115.682 97.6061 115.831 97.8849 116.048 98.1036C116.266 98.3224 116.543 98.4714 116.845 98.5317C117.147 98.5921 117.46 98.5611 117.745 98.4427C118.029 98.3243 118.272 98.1238 118.443 97.8666C118.614 97.6093 118.706 97.3069 118.706 96.9975C118.705 96.5828 118.541 96.1851 118.249 95.8919C117.957 95.5986 117.562 95.4337 117.149 95.4332Z" fill="#3F3D56"/>
<path d="M116.941 87.5073H116.734V76.7657H111.338V76.5572H116.941V87.5073Z" fill="#3F3D56"/>
<path d="M129.291 90.9488H124.669V91.1574H129.291V90.9488Z" fill="#3F3D56"/>
<path d="M127.216 83.753H116.63V83.9616H127.216V83.753Z" fill="#3F3D56"/>
<path d="M134.74 103.288L129.197 91.0964L129.385 91.0097L134.843 103.013L139.834 100.761L139.919 100.951L134.74 103.288Z" fill="#3F3D56"/>
<path d="M111.856 77.0786C113.461 77.0786 114.762 76.8918 114.762 76.6614C114.762 76.4311 113.461 76.2443 111.856 76.2443C110.251 76.2443 108.95 76.4311 108.95 76.6614C108.95 76.8918 110.251 77.0786 111.856 77.0786Z" fill="#3F3D56"/>
<path d="M29.95 150.893C33.5782 150.417 37.0666 150.013 40.4153 149.68L39.1272 147.509C39.5748 147.384 41.5136 148.64 41.5136 148.64L39.8763 142.364C42.114 142.617 43.1544 149.018 43.1544 149.018L45.692 146.886L44.442 149.301C54.6892 148.401 63.5312 148.124 70.9637 148.193L69.8612 146.336C70.3088 146.211 72.2475 147.467 72.2475 147.467L70.6102 141.191C72.8479 141.443 73.8884 147.844 73.8884 147.844L76.4259 145.712L75.102 148.27C81.3311 148.444 86.4067 148.859 90.3222 149.311C89.2227 146.424 85.3786 143.647 85.3786 143.647C88.3352 144.423 89.8728 145.684 90.6683 146.854C90.8266 140.877 89.7392 134.933 87.4759 129.403C87.4759 129.403 93.4367 140.702 92.537 148.232L92.4226 149.57C97.6139 150.254 100.219 150.935 100.219 150.935L29.95 150.893Z" fill="#3F3D56"/>
<path d="M65.585 112.436C67.2418 112.436 68.5849 111.087 68.5849 109.422C68.5849 107.757 67.2418 106.407 65.585 106.407C63.9283 106.407 62.5852 107.757 62.5852 109.422C62.5852 111.087 63.9283 112.436 65.585 112.436Z" fill="#A0616A"/>
<path d="M66.7568 111.73C66.7568 111.73 66.3819 113.52 66.3819 113.708C66.3819 113.897 64.6007 114.744 64.6007 114.744L63.007 114.462L62.4446 112.766C62.4446 112.766 63.382 111.353 63.382 110.788L66.7568 111.73Z" fill="#A0616A"/>
<path d="M66.5059 112.972C66.5059 112.972 65.5382 114.556 64.132 114.085C63.7409 113.966 63.3974 113.725 63.1504 113.398C62.9033 113.071 62.7655 112.674 62.7564 112.263L58.1323 113.897L58.976 120.774L58.2261 128.781L58.7885 129.817H67.0381C67.0381 129.817 67.3193 128.404 67.4131 128.404C67.5068 128.404 67.6943 128.122 67.6005 128.027C67.5068 127.933 67.3193 127.839 67.4131 127.556C67.5068 127.274 67.6005 124.165 67.6005 124.165L70.4129 115.969L66.5059 112.972Z" fill="#3F3D56"/>
<path d="M70.0848 130.901L68.3974 133.161C68.3974 133.161 68.1162 130.806 67.7412 130.712L68.6787 130.053L70.0848 130.901Z" fill="#A0616A"/>
<path d="M51.3358 129.111C51.3358 129.111 48.8047 130.712 49.086 131.748C49.3672 132.785 52.2733 129.959 52.2733 129.864C52.2733 129.77 51.3358 129.111 51.3358 129.111Z" fill="#A0616A"/>
<path d="M67.085 129.111H67.2725L67.5537 130.43C67.9961 130.859 68.3031 131.409 68.4365 132.012C68.5698 132.615 68.5236 133.244 68.3037 133.821L66.8038 143.712L66.6163 155.205L64.9289 155.676L63.054 155.3L62.5852 139.944C62.5852 139.944 61.929 138.531 62.2102 138.06C62.4915 137.589 62.1165 137.683 62.1165 137.683L60.1479 143.147C60.1479 143.147 60.8041 144.937 60.1479 145.502C60.1479 145.502 60.2416 145.785 60.1479 145.879C60.0541 145.973 59.5854 146.35 59.7729 146.539C59.9604 146.727 60.0541 146.539 60.0541 146.821C60.0541 147.104 60.9916 149.459 60.6166 152.473L59.3979 154.358L58.273 153.698L56.2106 147.857C56.2106 147.857 56.6793 147.01 56.2106 146.821C55.7419 146.633 55.6481 146.444 55.8356 146.162C56.0231 145.879 56.0231 144.937 55.7419 144.466C55.4606 143.995 55.7419 143.241 55.7419 143.241L56.7731 133.727C56.7731 133.727 56.3043 131.183 57.898 129.864L58.1792 128.828C58.1792 128.828 60.5228 130.524 67.085 129.111Z" fill="#2F2E41"/>
<path d="M68.1865 106.993C68.1865 106.993 67.2341 104.919 65.4086 105.398C63.5831 105.877 62.5513 106.594 62.4719 107.312C62.4328 107.91 62.4461 108.511 62.5116 109.107C62.5116 109.107 62.71 107.631 63.9799 107.95C65.2498 108.269 67.2341 108.03 67.2341 108.03L67.5516 110.901C67.5516 110.901 67.9087 110.383 68.3056 110.702C68.7024 111.021 69.4564 107.631 68.1865 106.993Z" fill="#2F2E41"/>
<path d="M69.0068 115.969H70.413C70.807 116.359 71.1118 116.831 71.306 117.352C71.5003 117.872 71.5794 118.429 71.5379 118.984L72.1941 124.542C72.1941 124.542 72.1941 127.274 71.0692 129.252L69.8505 131.607C69.8505 131.607 69.3818 130.288 67.9756 130.477L68.7255 128.498V128.027C68.8398 127.884 68.9344 127.725 69.0068 127.556C69.0068 127.462 68.6318 127.462 68.913 127.274C69.1943 127.085 69.4755 125.201 69.4755 125.201C69.4385 125.035 69.3752 124.876 69.288 124.73C69.1943 124.636 69.3818 124.353 69.3818 124.353L69.1943 124.071L67.9756 119.455L69.0068 115.969Z" fill="#3F3D56"/>
<path d="M59.726 113.614L58.1323 113.897C57.5609 114.492 57.1145 115.197 56.8199 115.969L56.0699 119.36L54.8512 121.81C54.8512 121.81 53.4451 123.223 52.4139 126.426L50.9139 129.252L52.5076 130.194C52.5076 130.194 56.9136 125.013 57.4761 123.223L59.9135 118.513L59.726 113.614Z" fill="#3F3D56"/>
<path d="M99.5018 49.0986H94.1177V43.688H99.5018V49.0986ZM94.5318 48.6824H99.0877V44.1042H94.5318V48.6824Z" fill="#3F3D56"/>
<path d="M50.6195 128.402L51.0104 128.919C51.014 128.924 51.0156 128.93 51.0148 128.936C51.014 128.942 51.0108 128.947 51.0061 128.951L50.9933 128.96L53.0298 131.653C53.0861 131.727 53.1107 131.821 53.0981 131.914C53.0855 132.007 53.0368 132.091 52.9627 132.147L51.2885 133.426C51.2518 133.454 51.2099 133.474 51.1654 133.486C51.1208 133.498 51.0743 133.501 51.0286 133.495C50.9829 133.488 50.9389 133.473 50.8991 133.45C50.8593 133.426 50.8244 133.395 50.7965 133.358L48.8315 130.76L48.8223 130.767C48.819 130.77 48.8147 130.771 48.8106 130.771C48.8064 130.77 48.8026 130.768 48.8 130.765L48.5776 130.47C48.5763 130.469 48.5754 130.467 48.5748 130.465C48.5743 130.463 48.5742 130.461 48.5744 130.458C48.5747 130.456 48.5754 130.454 48.5765 130.453C48.5775 130.451 48.5789 130.449 48.5806 130.448L48.5898 130.441L48.506 130.33L48.4967 130.337C48.4932 130.34 48.4887 130.341 48.4844 130.34C48.48 130.34 48.476 130.337 48.4734 130.334L48.2539 130.044C48.2513 130.04 48.2501 130.036 48.2507 130.031C48.2513 130.027 48.2536 130.023 48.2571 130.02L48.2664 130.013L48.152 129.862L48.1425 129.869C48.141 129.87 48.1392 129.871 48.1374 129.872C48.1355 129.872 48.1335 129.872 48.1316 129.872C48.1297 129.872 48.1279 129.871 48.1262 129.87C48.1245 129.869 48.123 129.868 48.1219 129.866L48.0021 129.708C47.9997 129.705 47.9987 129.701 47.9992 129.697C47.9997 129.693 48.0018 129.69 48.0049 129.687L48.0144 129.68L47.7719 129.359C47.7155 129.285 47.691 129.191 47.7035 129.098C47.7161 129.006 47.7648 128.922 47.8389 128.865L49.5131 127.586C49.5873 127.53 49.6807 127.505 49.773 127.518C49.8652 127.53 49.9487 127.579 50.0051 127.654L50.5752 128.407L50.5879 128.398C50.5927 128.394 50.5987 128.392 50.6046 128.393C50.6105 128.394 50.6159 128.397 50.6195 128.402Z" fill="#3F3D56"/>
<path d="M48.8592 128.314L48.5994 128.512C48.585 128.523 48.5822 128.544 48.5932 128.558L48.6017 128.57C48.6126 128.584 48.6331 128.587 48.6475 128.576L48.9073 128.377C48.9217 128.366 48.9245 128.346 48.9136 128.331L48.905 128.32C48.8941 128.306 48.8736 128.303 48.8592 128.314Z" fill="#E6E8EC"/>
<path d="M48.9931 128.307C49.0183 128.307 49.0387 128.287 49.0387 128.262C49.0387 128.236 49.0183 128.216 48.9931 128.216C48.9679 128.216 48.9475 128.236 48.9475 128.262C48.9475 128.287 48.9679 128.307 48.9931 128.307Z" fill="#E6E8EC"/>
<path d="M49.9132 127.812L52.9135 131.778C52.933 131.804 52.9467 131.834 52.9537 131.866C52.9606 131.897 52.9606 131.93 52.9537 131.962C52.9424 132.014 52.913 132.06 52.8709 132.092L51.2683 133.316C51.2398 133.338 51.2065 133.352 51.1712 133.359C51.1629 133.36 51.1546 133.361 51.1462 133.361C51.1098 133.364 51.0734 133.357 51.0402 133.341C51.0071 133.326 50.9782 133.303 50.9561 133.273L47.9559 129.306C47.9382 129.283 47.9252 129.256 47.9178 129.228C47.9103 129.2 47.9086 129.17 47.9125 129.141C47.9165 129.112 47.9261 129.084 47.9408 129.058C47.9556 129.033 47.9752 129.011 47.9984 128.993L48.2383 128.81L48.2617 128.84C48.2763 128.86 48.2945 128.876 48.3153 128.888C48.3361 128.9 48.3591 128.908 48.383 128.912C48.4068 128.915 48.4311 128.913 48.4544 128.907C48.4777 128.901 48.4996 128.89 48.5187 128.876L49.3338 128.253C49.353 128.239 49.3691 128.22 49.3812 128.199C49.3934 128.178 49.4013 128.155 49.4045 128.131C49.4078 128.107 49.4063 128.083 49.4002 128.06C49.3941 128.036 49.3834 128.014 49.3688 127.995L49.3454 127.964L49.601 127.769C49.6243 127.751 49.6509 127.738 49.6792 127.73C49.7075 127.723 49.737 127.721 49.766 127.725C49.7949 127.729 49.8229 127.739 49.8481 127.754C49.8734 127.768 49.8955 127.788 49.9132 127.812Z" fill="#6C63FF"/>
<path d="M174.848 60.5735V63.9982C174.848 63.9982 175.12 67.8338 176.62 69.7517C176.62 69.7517 179.074 73.2448 179.414 72.4914L178.995 70.0109L177.574 68.6558L176.824 64.4092L176.62 60.5735H174.848Z" fill="#FFB8B8"/>
<path d="M189.911 91.5325V94.0668L187.866 94.8204V91.875L189.911 91.5325Z" fill="#FFB8B8"/>
<path d="M185.753 91.2587L187.116 94.3408L185.208 95.1627L184.799 92.1491L185.753 91.2587Z" fill="#FFB8B8"/>
<path d="M189.161 67.6284C189.161 67.6284 191.888 92.3545 190.865 92.423C189.843 92.4915 187.866 93.7929 187.866 92.9025C187.866 92.012 186.298 80.4367 186.298 80.4367L184.799 74.4777V82.6969L186.367 92.012C186.367 92.012 184.867 93.9983 183.777 92.834L181.459 83.7243C181.459 83.7243 178.392 69.8887 178.528 68.7928C178.528 68.7928 185.549 62.7654 189.161 67.6284Z" fill="#2F2E41"/>
<path d="M188.616 94.2038C188.616 94.2038 189.161 93.0394 190.388 93.7929L191.41 95.0257C191.41 95.0257 194.046 97.2194 192.176 97.6893C190.248 98.1736 189.093 97.6583 189.093 97.6583C188.906 97.5456 188.697 97.4754 188.48 97.4529C188.207 97.4529 187.594 96.9734 187.594 96.8364C187.594 96.6994 187.798 94.2723 187.798 94.2723C187.875 94.2345 187.962 94.2208 188.047 94.233C188.132 94.2453 188.211 94.2828 188.275 94.3408C188.48 94.5463 188.616 94.2038 188.616 94.2038Z" fill="#2F2E41"/>
<path d="M184.595 93.7929C184.595 93.7929 185.89 92.7655 186.503 93.9299C186.503 93.9299 186.889 94.0669 186.935 93.9299C186.98 93.7929 187.321 93.7244 187.321 94.4778C187.321 95.2312 187.691 97.1104 187.35 97.1789C187.009 97.2474 186.669 97.4529 186.737 97.7269C186.805 98.0008 186.367 98.0395 184.799 97.971C183.231 97.9025 183.163 97.2861 183.163 97.2861C183.163 97.2861 183.163 96.3956 183.572 95.9162C183.981 95.4367 184.595 93.7929 184.595 93.7929Z" fill="#2F2E41"/>
<path d="M182.073 48.9297C182.073 48.9297 181.732 51.4639 183.913 52.3543C186.094 53.2447 179.074 56.19 178.392 54.4776C177.71 52.7653 178.528 52.2174 178.528 52.2174C178.528 52.2174 179.21 51.5324 178.597 49.6831L182.073 48.9297Z" fill="#FFB8B8"/>
<path d="M179.892 50.7105C181.548 50.7105 182.891 49.3612 182.891 47.6968C182.891 46.0324 181.548 44.6831 179.892 44.6831C178.235 44.6831 176.893 46.0324 176.893 47.6968C176.893 49.3612 178.235 50.7105 179.892 50.7105Z" fill="#FFB8B8"/>
<path d="M183.368 53.1763C183.368 53.1763 181.323 54.2722 179.346 53.4502C177.37 52.6283 177.438 56.19 177.438 56.19L178.46 58.8612L185.549 58.1763L185.072 54.0667L183.368 53.1763Z" fill="#F2F2F2"/>
<path d="M182.352 50.8326C182.715 50.9101 183.056 51.0686 183.35 51.2964C183.644 51.5242 183.883 51.8156 184.049 52.1489L187.321 53.1763L188.139 54.3407L187.185 62.7654C187.185 62.7654 188.957 64.4777 188.957 65.4366C188.957 66.3955 191.138 69.6832 190.047 69.2722C188.957 68.8613 186.98 67.4229 186.98 67.4229C186.98 67.4229 182.004 67.6284 180.437 68.9983C178.869 70.3681 178.256 69.9572 178.256 69.9572C178.256 69.9572 176.62 62.8339 176.552 61.738C176.484 60.6421 174.575 54.0667 174.575 54.0667L177.983 52.1489L178.851 51.1592L181.255 55.0256L183.436 52.3544C183.436 52.3544 182.358 51.5027 182.352 50.8326Z" fill="#D0CDE1"/>
<path d="M189.161 59.6147L189.57 61.8064C189.57 61.8064 191.41 68.6558 191.138 70.9846C191.138 70.9846 191.342 76.1901 190.184 75.5736C189.025 74.9572 189.638 71.19 189.638 71.19L188.003 64.4092L187.116 60.4366L189.161 59.6147Z" fill="#FFB8B8"/>
<path d="M187.457 53.9297L188.139 54.3406C188.139 54.3406 190.729 59.7516 190.115 60.1626C189.502 60.5736 186.844 61.464 186.844 61.464L187.457 53.9297Z" fill="#D0CDE1"/>
<path d="M176.211 54.0667L174.609 54.0324L174.234 54.6832L174.711 61.327L177.165 61.8749L176.211 54.0667Z" fill="#D0CDE1"/>
<path d="M182.334 45.148L182.874 44.9505C182.874 44.9505 181.744 43.8147 180.171 43.9134L180.614 43.469C180.614 43.469 179.533 43.0739 178.55 44.111C177.969 44.6751 177.469 45.3171 177.063 46.0187H176.484L176.725 46.5043L175.88 46.9899L176.748 46.9027C176.666 47.3219 176.694 47.7555 176.83 48.1603L177.026 48.7035C177.026 48.7035 177.813 47.1233 177.813 46.9257V47.4196C177.813 47.4196 178.353 46.9751 178.353 46.6788L178.648 47.0245L178.795 46.4813L180.614 47.0245L180.319 46.5801L181.449 46.7282L181.007 46.185C181.007 46.185 182.285 46.827 182.334 47.3702C182.402 47.8037 182.532 48.2251 182.72 48.6215L183.129 48.142C183.129 48.142 183.759 45.8887 182.334 45.148Z" fill="#2F2E41"/>
<path d="M182.413 48.3475C182.545 48.3475 182.652 48.0715 182.652 47.731C182.652 47.3906 182.545 47.1146 182.413 47.1146C182.282 47.1146 182.175 47.3906 182.175 47.731C182.175 48.0715 182.282 48.3475 182.413 48.3475Z" fill="#FFB8B8"/>
<path d="M198.089 84.3836C194.55 86.8591 193.425 91.3808 193.425 91.3808C193.425 91.3808 198.035 91.8888 201.573 89.4132C205.112 86.9377 206.238 82.416 206.238 82.416C206.238 82.416 201.627 81.908 198.089 84.3836Z" fill="#3F3D56"/>
<path d="M199.489 85.6455C197.699 89.5873 193.475 91.511 193.475 91.511C193.475 91.511 192.151 87.0439 193.94 83.1021C195.729 79.1603 199.954 77.2365 199.954 77.2365C199.954 77.2365 201.278 81.7037 199.489 85.6455Z" fill="#6C63FF"/>
<path d="M46.9316 123.894C47.3835 123.894 47.7498 123.526 47.7498 123.072C47.7498 122.617 47.3835 122.249 46.9316 122.249C46.4797 122.249 46.1134 122.617 46.1134 123.072C46.1134 123.526 46.4797 123.894 46.9316 123.894Z" fill="#F2F2F2"/>
<path d="M43.386 119.509C44.8923 119.509 46.1133 118.281 46.1133 116.768C46.1133 115.254 44.8923 114.027 43.386 114.027C41.8797 114.027 40.6586 115.254 40.6586 116.768C40.6586 118.281 41.8797 119.509 43.386 119.509Z" fill="#F2F2F2"/>
<path d="M38.4767 109.368C41.3387 109.368 43.6587 107.036 43.6587 104.16C43.6587 101.284 41.3387 98.9529 38.4767 98.9529C35.6148 98.9529 33.2947 101.284 33.2947 104.16C33.2947 107.036 35.6148 109.368 38.4767 109.368Z" fill="#6C63FF"/>
<path d="M25.2841 29.168C22.8415 29.5494 20.4975 30.4106 18.3861 31.7023C16.2747 32.9941 14.4371 34.6911 12.9783 36.6965C11.5195 38.7019 10.4681 40.9764 9.88404 43.3901C9.29998 45.8038 9.19474 48.3095 9.57433 50.7641C11.1707 61.0872 35.0395 92.2518 35.0395 92.2518C35.0395 92.2518 48.3712 55.2778 46.7749 44.9548C46.3953 42.5002 45.5383 40.1448 44.2529 38.023C42.9674 35.9012 41.2787 34.0546 39.2831 32.5887C37.2875 31.1227 35.0241 30.0661 32.6221 29.4792C30.2202 28.8923 27.7267 28.7865 25.2841 29.168ZM29.6921 57.6725C27.7607 57.9741 25.7837 57.6934 24.0111 56.8659C22.2385 56.0385 20.7499 54.7013 19.7335 53.0236C18.7171 51.346 18.2186 49.4031 18.301 47.4407C18.3835 45.4783 19.0431 43.5845 20.1966 41.9989C21.35 40.4133 22.9455 39.2069 24.7812 38.5325C26.6169 37.858 28.6104 37.7457 30.5096 38.2098C32.4088 38.6739 34.1284 39.6935 35.4509 41.1397C36.7735 42.5859 37.6396 44.3937 37.9397 46.3345C38.3422 48.9371 37.6994 51.5938 36.1526 53.72C34.6059 55.8463 32.282 57.2681 29.6921 57.6725Z" fill="#FF6F61"/>
</svg>
