<svg width="281" height="202" viewBox="0 0 281 202" fill="none" xmlns="http://www.w3.org/2000/svg">
<path d="M281 201.942C266.521 199.824 252.596 197.997 239.226 196.464L244.513 187.918C242.731 187.392 234.899 192.264 234.899 192.264L241.839 167.418C232.875 168.281 228.314 193.661 228.314 193.661L218.3 185.027L223.147 194.704C182.226 190.485 146.885 188.828 117.159 188.636L121.684 181.322C119.902 180.796 112.071 185.668 112.071 185.668L119.011 160.822C110.047 161.685 105.485 187.065 105.485 187.065L95.4716 178.431L100.606 188.681C75.6851 188.983 55.3626 190.312 39.6765 191.861C44.254 180.455 59.8 169.659 59.8 169.659C47.9284 172.556 41.7006 177.475 38.4461 182.073C38.1974 167.963 39.8709 141.812 52.3046 112.908C52.3046 112.908 27.7609 157.448 30.8874 187.436L31.2611 192.76C10.4587 195.155 0 197.698 0 197.698L281 201.942Z" fill="#3F3D56"/>
<path d="M149.418 8.0884V188.071C149.415 190.215 148.561 192.271 147.043 193.786C145.525 195.302 143.467 196.154 141.32 196.154H68.1718C67.1084 196.156 66.0551 195.948 65.0722 195.543C64.0893 195.137 63.1961 194.542 62.4439 193.791C61.6917 193.04 61.0952 192.149 60.6886 191.167C60.282 190.186 60.0733 189.134 60.0745 188.071V8.0884C60.0744 7.02619 60.2838 5.97437 60.6907 4.993C61.0976 4.01163 61.694 3.11993 62.4459 2.36883C63.1978 1.61774 64.0905 1.02195 65.073 0.615506C66.0554 0.209058 67.1084 -9.15229e-05 68.1718 3.79478e-07H79.1184V1.40221C79.1181 3.16846 79.8203 4.86247 81.0703 6.11166C82.3203 7.36084 84.0159 8.0629 85.7841 8.06342H122.988C124.411 8.06645 125.797 7.61072 126.941 6.76394C127.172 6.59602 127.391 6.41232 127.597 6.21416C128.248 5.59303 128.766 4.84623 129.12 4.01907C129.473 3.19191 129.655 2.30163 129.654 1.40221V3.79478e-07H141.32C142.384 -0.000325053 143.437 0.208666 144.419 0.615031C145.402 1.0214 146.295 1.61717 147.047 2.36831C147.799 3.11946 148.395 4.01124 148.802 4.99272C149.209 5.9742 149.418 7.02613 149.418 8.0884Z" fill="#3F3D56"/>
<path d="M80.4526 31.9316C81.5272 31.9316 82.3984 31.0613 82.3984 29.9879C82.3984 28.9144 81.5272 28.0442 80.4526 28.0442C79.3779 28.0442 78.5068 28.9144 78.5068 29.9879C78.5068 31.0613 79.3779 31.9316 80.4526 31.9316Z" fill="#F2F2F2"/>
<path d="M127.597 6.21417C127.391 6.41233 127.172 6.59603 126.941 6.76395C129.324 10.953 132.552 14.6018 136.422 17.4788C140.291 20.3558 144.716 22.3982 149.418 23.4767V22.6103C144.843 21.5325 140.542 19.5189 136.787 16.6968C133.031 13.8747 129.902 10.3054 127.597 6.21417Z" fill="#6C63FF"/>
<path d="M110.971 8.0634H110.059C113.296 16.2784 118.635 23.501 125.541 29.0095C132.448 34.5179 140.681 38.1192 149.417 39.4535V38.5928C140.908 37.2728 132.889 33.7641 126.149 28.4114C119.408 23.0588 114.178 16.0464 110.971 8.0634Z" fill="#6C63FF"/>
<path d="M94.1761 8.0634H93.2977C100.644 33.5365 122.813 52.4983 149.418 55.5776V54.7307C123.274 51.6653 101.487 33.0644 94.1761 8.0634Z" fill="#6C63FF"/>
<path d="M74.059 44.3771H73.5526V43.8712H73.4539V44.3771H72.9471V44.4759H73.4539V44.9819H73.5526V44.4759H74.059V44.3771Z" fill="#F2F2F2"/>
<path d="M108.25 19.1095H107.743V18.6036H107.645V19.1095H107.138V19.2083H107.645V19.7143H107.743V19.2083H108.25V19.1095Z" fill="#F2F2F2"/>
<path d="M79.0626 64.369H78.5561V63.8631H78.4574V64.369H77.9507V64.4679H78.4574V64.9738H78.5561V64.4679H79.0626V64.369Z" fill="#F2F2F2"/>
<path d="M102.412 49.6527H101.906V49.1468H101.807V49.6527H101.3V49.7516H101.807V50.2575H101.906V49.7516H102.412V49.6527Z" fill="#F2F2F2"/>
<path d="M135.769 58.8157H135.263V58.3098H135.164V58.8157H134.657V58.9146H135.164V59.4205H135.263V58.9146H135.769V58.8157Z" fill="#F2F2F2"/>
<path d="M129.932 35.8189C130.546 35.8189 131.044 35.3216 131.044 34.7082C131.044 34.0948 130.546 33.5975 129.932 33.5975C129.318 33.5975 128.82 34.0948 128.82 34.7082C128.82 35.3216 129.318 35.8189 129.932 35.8189Z" fill="#FF6584"/>
<path d="M90.0983 60.7533L89.4673 60.8504C89.6646 62.111 89.8203 63.3994 89.9343 64.6739L90.5708 64.6184C90.4569 63.3272 90.2984 62.0278 90.0983 60.7533Z" fill="#E6E6E6"/>
<path d="M88.372 53.1619L87.7605 53.3479C88.1302 54.5696 88.461 55.8219 88.7417 57.0686L89.3672 56.927C89.0809 55.6664 88.7445 54.4003 88.372 53.1619Z" fill="#E6E6E6"/>
<path d="M85.6173 45.8815L85.0364 46.148C85.5701 47.3115 86.0704 48.5054 86.5235 49.6994L87.1212 49.4745C86.6625 48.2666 86.1594 47.056 85.6173 45.8815Z" fill="#E6E6E6"/>
<path d="M81.8924 39.0564L81.3531 39.398C82.0397 40.4753 82.6985 41.5915 83.3101 42.7105L83.8716 42.4051C83.2545 41.2722 82.5873 40.1449 81.8924 39.0564Z" fill="#E6E6E6"/>
<path d="M77.2615 32.8007L76.775 33.2144C77.6034 34.1862 78.4095 35.2025 79.1711 36.2298L79.6826 35.8494C78.9154 34.8109 78.1009 33.7836 77.2615 32.8007Z" fill="#E6E6E6"/>
<path d="M71.8187 27.2307L71.3934 27.7055C72.3497 28.5579 73.2864 29.4548 74.1787 30.3683L74.6374 29.9213C73.734 28.9966 72.7861 28.0914 71.8187 27.2307Z" fill="#E6E6E6"/>
<path d="M65.67 22.4492L65.3114 22.9768C66.3733 23.6904 67.424 24.4512 68.433 25.237L68.8278 24.7344C67.8048 23.9403 66.743 23.1712 65.67 22.4492Z" fill="#E6E6E6"/>
<path d="M60.0745 19.1284V19.8503C60.7388 20.1974 61.3976 20.5612 62.0425 20.9332L62.3622 20.3807C61.6116 19.9475 60.8491 19.5301 60.0745 19.1284Z" fill="#E6E6E6"/>
<path d="M89.9538 120.73C90.0575 120.109 90.1523 119.475 90.2359 118.846L90.8695 118.93C90.785 119.566 90.6891 120.207 90.5843 120.835L89.9538 120.73Z" fill="#E6E6E6"/>
<path d="M88.1722 128.221L88.783 128.411C89.1662 127.177 89.5131 125.913 89.8136 124.654L89.1911 124.507C88.8934 125.753 88.5526 127.001 88.1722 128.221Z" fill="#E6E6E6"/>
<path d="M85.381 135.394L85.9609 135.665C86.5123 134.497 87.0284 133.293 87.4966 132.088L86.9001 131.855C86.4375 133.047 85.9269 134.238 85.381 135.394Z" fill="#E6E6E6"/>
<path d="M81.6252 142.123L82.1612 142.47C82.8681 141.387 83.5463 140.265 84.1777 139.135L83.6203 138.823C82.9971 139.94 82.3244 141.05 81.6252 142.123Z" fill="#E6E6E6"/>
<path d="M76.9784 148.27L77.4628 148.689C78.3132 147.709 79.1376 146.69 79.919 145.659L79.4072 145.277C78.6368 146.296 77.8206 147.302 76.9784 148.27Z" fill="#E6E6E6"/>
<path d="M71.5371 153.724L71.958 154.204C72.9354 153.353 73.8912 152.454 74.8046 151.541L74.3525 151.089C73.4495 151.992 72.5019 152.879 71.5371 153.724Z" fill="#E6E6E6"/>
<path d="M65.407 158.387L65.7601 158.921C66.8394 158.209 67.9113 157.45 68.9396 156.668L68.5531 156.158C67.5346 156.934 66.4759 157.684 65.407 158.387Z" fill="#E6E6E6"/>
<path d="M62.4344 160.949C61.6617 161.385 60.8722 161.807 60.0745 162.207V161.49C60.7638 161.141 61.4476 160.771 62.1176 160.396L62.4344 160.949Z" fill="#E6E6E6"/>
<path d="M90.1412 68.6128L90.7802 68.6012C90.7919 69.2457 90.7928 69.8936 90.7828 70.5271L90.1439 70.5171C90.1536 69.8908 90.1528 69.2501 90.1412 68.6128Z" fill="#E6E6E6"/>
<path d="M62.882 83.7528H128.264C133.13 83.7528 137.796 85.6836 141.237 89.1204C144.677 92.5572 146.61 97.2184 146.61 102.079V104.505H81.2281C76.3624 104.505 71.696 102.574 68.2554 99.137C64.8149 95.7002 62.882 91.039 62.882 86.1786V83.7528Z" fill="white"/>
<path d="M106.273 195.899C106.21 195.795 104.705 193.286 104.184 188.077C103.706 183.297 104.013 175.241 108.196 164.004C116.12 142.715 106.37 125.538 106.27 125.367L106.751 125.088C106.776 125.131 109.292 129.511 110.778 136.484C112.742 145.73 112.027 155.343 108.717 164.197C100.807 185.45 106.688 195.511 106.748 195.61L106.273 195.899Z" fill="#F2F2F2"/>
<path d="M103.175 124.117C105.171 124.117 106.789 122.5 106.789 120.507C106.789 118.513 105.171 116.897 103.175 116.897C101.179 116.897 99.5613 118.513 99.5613 120.507C99.5613 122.5 101.179 124.117 103.175 124.117Z" fill="#6C63FF"/>
<path d="M114.572 137.445C116.568 137.445 118.186 135.828 118.186 133.835C118.186 131.841 116.568 130.225 114.572 130.225C112.576 130.225 110.958 131.841 110.958 133.835C110.958 135.828 112.576 137.445 114.572 137.445Z" fill="#F2F2F2"/>
<path d="M106.789 146.33C108.784 146.33 110.402 144.714 110.402 142.72C110.402 140.727 108.784 139.111 106.789 139.111C104.793 139.111 103.175 140.727 103.175 142.72C103.175 144.714 104.793 146.33 106.789 146.33Z" fill="#6C63FF"/>
<path d="M116.24 153.827C118.235 153.827 119.853 152.211 119.853 150.217C119.853 148.224 118.235 146.608 116.24 146.608C114.244 146.608 112.626 148.224 112.626 150.217C112.626 152.211 114.244 153.827 116.24 153.827Z" fill="#6C63FF"/>
<path d="M104.009 165.489C106.005 165.489 107.623 163.873 107.623 161.879C107.623 159.886 106.005 158.269 104.009 158.269C102.013 158.269 100.395 159.886 100.395 161.879C100.395 163.873 102.013 165.489 104.009 165.489Z" fill="#F2F2F2"/>
<path d="M108.456 196.032C108.456 196.032 104.843 187.147 115.684 180.483L108.456 196.032Z" fill="#F2F2F2"/>
<path d="M104.012 195.871C104.012 195.871 102.368 186.422 89.6387 186.503L104.012 195.871Z" fill="#F2F2F2"/>
<path opacity="0.2" d="M89.6257 116.342C101.907 116.342 111.863 106.397 111.863 94.1287C111.863 81.8606 101.907 71.9154 89.6257 71.9154C77.3441 71.9154 67.3879 81.8606 67.3879 94.1287C67.3879 106.397 77.3441 116.342 89.6257 116.342Z" fill="#6C63FF"/>
<path opacity="0.2" d="M89.6257 109.772C98.2747 109.772 105.286 102.768 105.286 94.1287C105.286 85.4892 98.2747 78.4855 89.6257 78.4855C80.9767 78.4855 73.9653 85.4892 73.9653 94.1287C73.9653 102.768 80.9767 109.772 89.6257 109.772Z" fill="#6C63FF"/>
<path d="M89.6257 104.453C95.3341 104.453 99.9616 99.8307 99.9616 94.1287C99.9616 88.4266 95.3341 83.8042 89.6257 83.8042C83.9174 83.8042 79.2899 88.4266 79.2899 94.1287C79.2899 99.8307 83.9174 104.453 89.6257 104.453Z" fill="#6C63FF"/>
<path d="M91.5049 91.9018C91.505 91.585 91.4248 91.2734 91.2718 90.9959C91.1189 90.7184 90.8981 90.484 90.63 90.3147C90.362 90.1454 90.0554 90.0466 89.7388 90.0276C89.4222 90.0085 89.106 90.0697 88.8195 90.2057C88.533 90.3416 88.2856 90.5477 88.1003 90.8048C87.9151 91.0619 87.798 91.3617 87.76 91.6762C87.7219 91.9908 87.7642 92.3098 87.8829 92.6036C88.0015 92.8974 88.1926 93.1564 88.4385 93.3565L87.7464 98.1959H91.5049L90.8128 93.3565C91.0292 93.1807 91.2037 92.9589 91.3234 92.7073C91.4431 92.4556 91.5051 92.1805 91.5049 91.9018Z" fill="white"/>
<path d="M193.499 14.7996C193.499 14.7996 187.299 9.24769 178.962 19.7109C170.625 30.174 157.585 35.2989 154.592 39.356C154.592 39.356 166.991 34.2312 171.267 32.0958C175.542 29.9605 175.328 30.3876 175.328 30.3876C175.328 30.3876 169.556 34.4447 168.488 38.5019C167.419 42.559 168.274 45.9756 166.35 50.0327C164.426 54.0899 203.118 52.8087 203.118 52.8087C203.118 52.8087 206.966 46.1891 205.897 39.356C204.828 32.5229 205.47 15.6537 193.499 14.7996Z" fill="#2F2E41"/>
<path d="M181.773 32.2654C181.773 32.2654 183.121 41.6912 177.344 43.8072C171.566 45.9232 173.685 48.8087 173.685 48.8087L182.351 53.0407L191.594 50.1552L194.676 45.5385C194.676 45.5385 189.669 44.3843 191.017 40.9217C192.365 37.4592 192.75 36.305 192.75 36.305L181.773 32.2654Z" fill="#FFB9B9"/>
<path opacity="0.1" d="M181.773 32.2654C181.773 32.2654 183.121 41.6912 177.344 43.8072C171.566 45.9232 173.685 48.8087 173.685 48.8087L182.351 53.0407L191.594 50.1552L194.676 45.5385C194.676 45.5385 189.669 44.3843 191.017 40.9217C192.365 37.4592 192.75 36.305 192.75 36.305L181.773 32.2654Z" fill="black"/>
<path d="M206.038 59.1964C206.038 59.1964 204.69 76.8939 205.075 77.6633C205.46 78.4328 205.075 105.171 205.075 105.171C205.075 105.171 207.771 119.599 204.305 120.368C200.838 121.138 201.608 104.21 201.608 104.21L198.142 81.8953L198.527 59.7734L206.038 59.1964Z" fill="#FFB9B9"/>
<path opacity="0.1" d="M206.038 59.1964C206.038 59.1964 204.69 76.8939 205.075 77.6633C205.46 78.4328 205.075 105.171 205.075 105.171C205.075 105.171 207.771 119.599 204.305 120.368C200.838 121.138 201.608 104.21 201.608 104.21L198.142 81.8953L198.527 59.7734L206.038 59.1964Z" fill="black"/>
<path d="M168.485 112.481C168.485 112.481 162.13 136.527 162.323 148.261C162.515 159.995 165.019 176.346 165.019 176.346C165.019 176.346 165.404 183.464 164.826 184.233C164.249 185.003 167.715 188.273 167.715 188.273L171.374 186.157L172.722 184.618V183.271C172.722 183.271 170.604 176.731 172.337 171.537C174.07 166.343 175.033 153.263 173.3 149.223L185.239 113.828L168.485 112.481Z" fill="#FFB9B9"/>
<path d="M168.1 185.195C168.1 185.195 165.789 182.31 164.248 183.271C162.708 184.233 160.204 190.774 160.204 190.774C160.204 190.774 151.538 199.045 157.701 199.43C163.863 199.815 166.559 197.699 167.33 196.16C168.1 194.621 175.225 190.581 175.225 190.581C175.225 190.581 174.455 183.271 173.3 183.079C172.144 182.887 170.411 185.964 170.411 185.964L168.1 185.195Z" fill="#2F2E41"/>
<path d="M189.476 114.02V137.873C189.498 140.768 189.691 143.658 190.054 146.53C190.632 150.762 186.78 182.31 186.78 182.31L187.165 187.888L191.98 187.503L192.557 182.694L199.49 161.534C199.49 161.534 201.801 148.646 200.646 143.837C199.49 139.028 206.615 108.249 206.615 108.249L189.476 114.02Z" fill="#FFB9B9"/>
<path d="M185.625 186.542L187.051 186.232C187.051 186.232 188.128 183.848 189.476 184.426C190.425 184.863 191.323 185.4 192.157 186.03L192.75 187.119C192.75 187.119 194.098 190.004 195.831 191.928C197.564 193.851 199.49 198.083 196.601 198.468C193.713 198.853 189.861 199.045 188.706 198.083C187.55 197.122 188.321 195.583 187.165 195.198C186.01 194.813 185.047 193.659 185.239 193.274C185.432 192.89 185.625 186.542 185.625 186.542Z" fill="#2F2E41"/>
<path d="M189.476 38.8911C194.203 38.8911 198.035 35.0634 198.035 30.3417C198.035 25.62 194.203 21.7923 189.476 21.7923C184.749 21.7923 180.917 25.62 180.917 30.3417C180.917 35.0634 184.749 38.8911 189.476 38.8911Z" fill="#FFB9B9"/>
<path d="M173.3 45.3461L175.843 44.459C175.843 44.459 174.84 46.1156 180.232 47.0774C185.625 48.0392 191.209 48.3797 193.713 45.2278C193.713 45.2278 194.676 44.769 196.024 46.1156C197.372 47.4621 198.142 47.0774 198.142 47.0774L197.179 52.0789L195.253 61.3124L192.75 68.2375L185.625 66.6986L177.921 61.12L175.033 53.6178V46.6927L173.3 45.3461Z" fill="#6C63FF"/>
<path d="M196.794 48.0392L198.72 46.6926C198.72 46.6926 205.267 47.8468 205.653 50.9247L200.646 60.5429C201.667 63.2192 201.598 66.1886 200.453 68.8145C198.527 73.2389 198.72 74.2007 198.72 74.2007L197.372 79.9717L172.914 81.8953C172.914 81.8953 171.952 79.5869 171.566 79.2022C171.181 78.8175 171.181 77.4709 171.566 77.4709C171.952 77.4709 171.566 76.8938 171.181 76.3167C170.796 75.7397 170.604 75.5473 171.181 74.7778C171.759 74.0084 170.218 67.0833 170.218 67.0833V59.5811L163.671 50.9247C163.671 50.9247 165.982 47.4621 167.137 47.0774C168.293 46.6926 173.789 45.1754 173.789 45.1754L175.033 47.0047L176.766 60.9276L179.269 69.3916L189.81 67.6026L193.905 60.7352L196.601 52.6559L196.794 48.0392Z" fill="#6C63FF"/>
<path d="M204.112 49.7705L205.653 50.9247C205.653 50.9247 207.001 61.6971 206.615 62.4665C206.23 63.236 199.49 64.0054 199.298 63.6207C199.105 63.236 204.112 49.7705 204.112 49.7705Z" fill="#6C63FF"/>
<path d="M172.337 44.3843L174.263 57.0803C174.263 57.0803 172.529 75.932 172.914 79.7793L173.3 80.9335C173.3 80.9335 172.529 80.5488 172.337 81.3182C172.144 82.0877 172.337 84.5884 172.337 84.5884C172.337 84.5884 171.181 85.7426 170.796 92.0906C170.411 98.4387 165.789 113.635 167.522 114.213C169.256 114.79 179.655 117.675 185.239 117.098C190.824 116.521 210.852 109.788 210.66 108.057C210.467 106.326 200.838 81.8953 200.838 81.8953C200.838 81.8953 199.105 79.0099 199.105 78.6251C199.105 78.2404 201.416 76.7015 200.838 75.1626C200.26 73.6237 197.179 57.4651 197.179 57.4651L199.298 45.9232L196.409 45.1537L194.291 56.3109C194.291 56.3109 186.01 60.3505 177.344 56.6956L175.418 43.6148L172.337 44.3843Z" fill="#2F2E41"/>
<path d="M181.602 24.2061C181.602 24.2061 195.853 34.0166 199.704 29.5922C203.556 25.1679 192.964 21.3206 192.964 21.3206L184.106 20.3588L181.602 24.2061Z" fill="#2F2E41"/>
<path d="M159.46 128.571C160.927 129.662 162.742 130.18 164.564 130.03C166.386 129.88 168.091 129.071 169.359 127.755C170.627 126.439 171.371 124.706 171.452 122.881C171.532 121.057 170.944 119.265 169.797 117.843C168.649 116.42 167.022 115.465 165.22 115.155C163.418 114.845 161.565 115.203 160.008 116.16C158.45 117.118 157.296 118.61 156.762 120.357C156.227 122.104 156.349 123.985 157.103 125.649L137.449 141.996L134.832 138.893L133.656 139.679L132.348 138.127L133.423 137.222L132.114 135.671L130.442 137.079L131.247 138.033L129.455 139.541L128.65 138.587L126.022 140.799L127.23 142.231L128.185 141.426L129.494 142.978L128.299 143.983L130.715 146.847L127.848 149.26L130.767 152.72L159.46 128.571ZM164.368 117.605C165.347 117.689 166.28 118.061 167.048 118.674C167.816 119.287 168.384 120.114 168.682 121.05C168.979 121.986 168.992 122.989 168.719 123.932C168.446 124.875 167.899 125.717 167.147 126.349C166.395 126.982 165.473 127.378 164.496 127.487C163.519 127.596 162.531 127.413 161.658 126.961C160.785 126.509 160.066 125.809 159.591 124.949C159.117 124.089 158.908 123.108 158.992 122.13C159.104 120.818 159.734 119.604 160.742 118.755C161.75 117.907 163.054 117.493 164.368 117.605V117.605Z" fill="#6C63FF"/>
<path d="M162.323 61.5047C162.323 61.5047 163.671 79.2022 163.286 79.9717C162.901 80.7412 163.286 107.48 163.286 107.48C163.286 107.48 160.59 121.907 164.056 122.677C167.522 123.446 166.752 106.518 166.752 106.518L170.218 84.2037L169.833 62.0818L162.323 61.5047Z" fill="#FFB9B9"/>
<path d="M165.211 50.3476L163.671 50.9247C163.671 50.9247 160.782 63.0436 161.552 63.0436C162.323 63.0436 171.566 64.1978 171.566 63.8131C171.566 63.4284 169.833 54.0025 169.833 54.0025L165.211 50.3476Z" fill="#6C63FF"/>
</svg>
