<svg width="265" height="237" viewBox="0 0 265 237" fill="none" xmlns="http://www.w3.org/2000/svg">
<path opacity="0.5" d="M50.9665 14.8032C50.7116 14.6921 50.5064 14.4909 50.3899 14.2382C50.2735 13.9854 50.254 13.6986 50.3351 13.4323C50.3483 13.3915 50.3565 13.3493 50.3598 13.3065C50.3672 13.1846 50.3352 13.0634 50.2684 12.9611C50.2017 12.8588 50.1038 12.7807 49.9893 12.7384C49.8748 12.6961 49.7497 12.6918 49.6325 12.7263C49.5154 12.7607 49.4125 12.832 49.339 12.9296C49.3137 12.9642 49.2926 13.0017 49.2761 13.0413C49.1651 13.2965 48.9642 13.5019 48.7117 13.6184C48.4592 13.735 48.1727 13.7545 47.9067 13.6733C47.8659 13.6601 47.8237 13.6519 47.781 13.6486C47.6592 13.6412 47.5382 13.6733 47.436 13.7401C47.3337 13.8069 47.2557 13.9048 47.2135 14.0195C47.1712 14.1341 47.167 14.2594 47.2014 14.3766C47.2358 14.4939 47.307 14.5969 47.4045 14.6705C47.4391 14.6958 47.4765 14.7169 47.516 14.7334C47.771 14.8446 47.9762 15.0457 48.0926 15.2985C48.209 15.5512 48.2285 15.838 48.1474 16.1043C48.1343 16.1451 48.126 16.1873 48.1228 16.2301C48.1153 16.3521 48.1474 16.4732 48.2141 16.5755C48.2808 16.6779 48.3787 16.756 48.4932 16.7983C48.6078 16.8406 48.7329 16.8448 48.85 16.8104C48.9671 16.7759 49.0701 16.7046 49.1435 16.607C49.1688 16.5724 49.1899 16.5349 49.2064 16.4954C49.3174 16.2402 49.5183 16.0347 49.7708 15.9182C50.0234 15.8017 50.3099 15.7821 50.5758 15.8633C50.6166 15.8765 50.6588 15.8848 50.7015 15.888C50.8233 15.8954 50.9443 15.8634 51.0466 15.7966C51.1488 15.7298 51.2268 15.6318 51.2691 15.5171C51.3113 15.4025 51.3156 15.2773 51.2812 15.16C51.2468 15.0427 51.1755 14.9397 51.0781 14.8661C51.0435 14.8408 51.006 14.8197 50.9665 14.8032Z" fill="#4D8AF0"/>
<path opacity="0.5" d="M230.771 80.257C231.793 80.257 232.621 79.4278 232.621 78.4049C232.621 77.382 231.793 76.5528 230.771 76.5528C229.749 76.5528 228.921 77.382 228.921 78.4049C228.921 79.4278 229.749 80.257 230.771 80.257Z" fill="#F55F44"/>
<path opacity="0.5" d="M37.4327 212.681C38.4545 212.681 39.2828 211.852 39.2828 210.829C39.2828 209.806 38.4545 208.977 37.4327 208.977C36.4109 208.977 35.5825 209.806 35.5825 210.829C35.5825 211.852 36.4109 212.681 37.4327 212.681Z" fill="#F55F44"/>
<path opacity="0.5" d="M262.223 151.562C263.245 151.562 264.074 150.733 264.074 149.71C264.074 148.687 263.245 147.858 262.223 147.858C261.202 147.858 260.373 148.687 260.373 149.71C260.373 150.733 261.202 151.562 262.223 151.562Z" fill="#F55F44"/>
<path opacity="0.5" d="M217.17 23.7549C216.915 23.6438 216.71 23.4427 216.593 23.1899C216.477 22.9371 216.457 22.6503 216.538 22.3841C216.552 22.3432 216.56 22.301 216.563 22.2583C216.57 22.1363 216.538 22.0152 216.472 21.9128C216.405 21.8105 216.307 21.7324 216.193 21.6901C216.078 21.6478 215.953 21.6436 215.836 21.678C215.719 21.7124 215.616 21.7837 215.542 21.8813C215.517 21.9159 215.496 21.9534 215.479 21.993C215.368 22.2482 215.167 22.4536 214.915 22.5701C214.662 22.6867 214.376 22.7062 214.11 22.625C214.069 22.6119 214.027 22.6036 213.984 22.6003C213.862 22.5929 213.741 22.625 213.639 22.6918C213.537 22.7586 213.459 22.8566 213.417 22.9712C213.375 23.0859 213.37 23.2111 213.405 23.3283C213.439 23.4456 213.51 23.5486 213.608 23.6222C213.642 23.6475 213.68 23.6686 213.719 23.6852C213.974 23.7963 214.179 23.9974 214.296 24.2502C214.412 24.503 214.432 24.7898 214.351 25.056C214.338 25.0968 214.329 25.139 214.326 25.1818C214.319 25.3038 214.351 25.4249 214.417 25.5273C214.484 25.6296 214.582 25.7077 214.697 25.75C214.811 25.7923 214.936 25.7965 215.053 25.7621C215.17 25.7276 215.273 25.6563 215.347 25.5588C215.372 25.5241 215.393 25.4867 215.41 25.4471C215.521 25.1919 215.722 24.9865 215.974 24.8699C216.227 24.7534 216.513 24.7339 216.779 24.8151C216.82 24.8282 216.862 24.8365 216.905 24.8397C217.027 24.8471 217.148 24.8151 217.25 24.7483C217.352 24.6815 217.43 24.5835 217.472 24.4689C217.515 24.3542 217.519 24.229 217.484 24.1117C217.45 23.9945 217.379 23.8914 217.281 23.8179C217.247 23.7926 217.209 23.7714 217.17 23.7549Z" fill="#4D8AF0"/>
<path opacity="0.5" d="M248.005 217.606C247.75 217.495 247.545 217.294 247.429 217.041C247.312 216.789 247.293 216.502 247.374 216.236C247.387 216.195 247.395 216.152 247.399 216.11C247.406 215.988 247.374 215.867 247.307 215.764C247.24 215.662 247.143 215.584 247.028 215.542C246.914 215.499 246.788 215.495 246.671 215.529C246.554 215.564 246.451 215.635 246.378 215.733C246.353 215.767 246.331 215.805 246.315 215.844C246.204 216.1 246.003 216.305 245.75 216.422C245.498 216.538 245.211 216.558 244.946 216.476C244.905 216.463 244.863 216.455 244.82 216.452C244.698 216.444 244.577 216.476 244.475 216.543C244.373 216.61 244.295 216.708 244.252 216.823C244.21 216.937 244.206 217.063 244.24 217.18C244.275 217.297 244.346 217.4 244.443 217.474C244.478 217.499 244.515 217.52 244.555 217.537C244.81 217.648 245.015 217.849 245.131 218.102C245.248 218.354 245.267 218.641 245.186 218.907C245.173 218.948 245.165 218.99 245.162 219.033C245.154 219.155 245.186 219.276 245.253 219.379C245.32 219.481 245.418 219.559 245.532 219.601C245.647 219.644 245.772 219.648 245.889 219.614C246.006 219.579 246.109 219.508 246.182 219.41C246.208 219.376 246.229 219.338 246.245 219.299C246.356 219.043 246.557 218.838 246.81 218.721C247.062 218.605 247.349 218.585 247.615 218.667C247.655 218.68 247.698 218.688 247.74 218.691C247.862 218.699 247.983 218.667 248.085 218.6C248.188 218.533 248.266 218.435 248.308 218.32C248.35 218.206 248.354 218.08 248.32 217.963C248.286 217.846 248.214 217.743 248.117 217.669C248.082 217.644 248.045 217.623 248.005 217.606Z" fill="#4D8AF0"/>
<path opacity="0.5" d="M263.148 104.334C264.17 104.334 264.999 103.505 264.999 102.482C264.999 101.459 264.17 100.63 263.148 100.63C262.127 100.63 261.298 101.459 261.298 102.482C261.298 103.505 262.127 104.334 263.148 104.334Z" fill="#47E6B1"/>
<g opacity="0.5">
<path opacity="0.5" d="M180.818 0H179.893V5.24757H180.818V0Z" fill="#47E6B1"/>
<path opacity="0.5" d="M182.976 3.08681V2.16077L177.734 2.16077V3.08681L182.976 3.08681Z" fill="#47E6B1"/>
</g>
<g opacity="0.5">
<path opacity="0.5" d="M184.21 205.581H183.285V210.829H184.21V205.581Z" fill="#47E6B1"/>
<path opacity="0.5" d="M186.368 208.668V207.742H181.126V208.668H186.368Z" fill="#47E6B1"/>
</g>
<g opacity="0.5">
<path opacity="0.5" d="M9.064 216.694H8.13894V221.941H9.064V216.694Z" fill="#47E6B1"/>
<path opacity="0.5" d="M11.2225 219.781V218.855H5.98047V219.781H11.2225Z" fill="#47E6B1"/>
</g>
<g opacity="0.5">
<path opacity="0.5" d="M219.67 122.238H218.745V127.485H219.67V122.238Z" fill="#47E6B1"/>
<path opacity="0.5" d="M221.829 125.324V124.398H216.587V125.324H221.829Z" fill="#47E6B1"/>
</g>
<path d="M133.023 3.31718L49.8587 54.5491C49.8587 54.5491 49.8587 160.215 133.023 217.851C216.187 160.215 216.187 54.5491 216.187 54.5491L133.023 3.31718Z" fill="#3F3D56"/>
<path opacity="0.04" d="M133.519 3.31718L132.098 4.19294V216.851C132.57 217.185 133.042 217.52 133.519 217.851C216.683 160.215 216.683 54.549 216.683 54.549L133.519 3.31718Z" fill="#6C63FF"/>
<g opacity="0.7">
<path opacity="0.7" d="M112.889 107.133L128.567 121.52L148.002 93.4531L155.841 99.9925L128.567 134.598L106.357 109.749L112.889 107.133Z" fill="url(#paint0_linear)"/>
</g>
<path d="M116.589 107.997L129.307 119.667L147.323 93.1444L153.682 98.4491L129.307 130.277L111.29 110.119L116.589 107.997Z" fill="#3AD29F"/>
<path opacity="0.5" d="M5.94665 115.124C5.69172 115.013 5.48652 114.812 5.3701 114.559C5.25368 114.307 5.23418 114.02 5.3153 113.754C5.32843 113.713 5.33669 113.671 5.33994 113.628C5.34735 113.506 5.31533 113.385 5.2486 113.282C5.18187 113.18 5.08399 113.102 4.96946 113.06C4.85493 113.017 4.72983 113.013 4.6127 113.047C4.49557 113.082 4.39264 113.153 4.31915 113.251C4.29387 113.285 4.27277 113.323 4.25627 113.362C4.14524 113.618 3.94435 113.823 3.69184 113.94C3.43933 114.056 3.15282 114.076 2.88686 113.994C2.84609 113.981 2.80391 113.973 2.7612 113.97C2.63935 113.962 2.51834 113.994 2.41612 114.061C2.31389 114.128 2.23587 114.226 2.19362 114.341C2.15137 114.455 2.14713 114.581 2.18154 114.698C2.21594 114.815 2.28716 114.918 2.38464 114.992C2.41922 115.017 2.45667 115.038 2.4962 115.055C2.75113 115.166 2.95634 115.367 3.07275 115.62C3.18917 115.872 3.20867 116.159 3.12755 116.425C3.11442 116.466 3.10616 116.509 3.10291 116.551C3.0955 116.673 3.12752 116.794 3.19425 116.897C3.26098 116.999 3.35886 117.077 3.47339 117.119C3.58792 117.162 3.71302 117.166 3.83015 117.132C3.94728 117.097 4.05022 117.026 4.12371 116.928C4.14898 116.894 4.17009 116.856 4.18658 116.817C4.29761 116.561 4.4985 116.356 4.75101 116.239C5.00352 116.123 5.29003 116.103 5.55599 116.185C5.59676 116.198 5.63894 116.206 5.68165 116.209C5.8035 116.217 5.92451 116.185 6.02673 116.118C6.12896 116.051 6.20697 115.953 6.24922 115.838C6.29147 115.724 6.29571 115.598 6.26131 115.481C6.2269 115.364 6.15569 115.261 6.05821 115.187C6.02363 115.162 5.98618 115.141 5.94665 115.124Z" fill="#4D8AF0"/>
<path opacity="0.5" d="M3.78814 56.4751C3.53321 56.3639 3.32801 56.1628 3.21159 55.91C3.09518 55.6573 3.07567 55.3705 3.15679 55.1042C3.16992 55.0634 3.17819 55.0212 3.18143 54.9784C3.18885 54.8564 3.15682 54.7353 3.09009 54.633C3.02337 54.5306 2.92549 54.4525 2.81095 54.4102C2.69642 54.3679 2.57132 54.3637 2.45419 54.3981C2.33706 54.4326 2.23413 54.5039 2.16064 54.6015C2.13537 54.6361 2.11426 54.6736 2.09776 54.7131C1.98674 54.9683 1.78584 55.1738 1.53333 55.2903C1.28082 55.4068 0.994317 55.4264 0.728356 55.3452C0.687582 55.332 0.645404 55.3237 0.602692 55.3205C0.480839 55.3131 0.359836 55.3451 0.257609 55.4119C0.155381 55.4787 0.077363 55.5767 0.0351127 55.6914C-0.00713772 55.806 -0.0113748 55.9312 0.0230299 56.0485C0.0574346 56.1658 0.128652 56.2688 0.226131 56.3424C0.260716 56.3677 0.298163 56.3888 0.337694 56.4053C0.592623 56.5164 0.797828 56.7175 0.914246 56.9703C1.03066 57.2231 1.05016 57.5099 0.969042 57.7762C0.955916 57.817 0.947648 57.8592 0.944406 57.902C0.936988 58.0239 0.969014 58.1451 1.03574 58.2474C1.10247 58.3497 1.20035 58.4278 1.31488 58.4701C1.42942 58.5124 1.55451 58.5167 1.67164 58.4822C1.78877 58.4478 1.89171 58.3765 1.9652 58.2789C1.99047 58.2443 2.01158 58.2068 2.02808 58.1672C2.1391 57.912 2.33999 57.7066 2.5925 57.5901C2.84501 57.4735 3.13152 57.454 3.39748 57.5352C3.43825 57.5484 3.48043 57.5566 3.52314 57.5599C3.64499 57.5673 3.766 57.5352 3.86823 57.4684C3.97045 57.4016 4.04847 57.3037 4.09072 57.189C4.13297 57.0744 4.1372 56.9491 4.1028 56.8319C4.0684 56.7146 3.99718 56.6116 3.8997 56.538C3.86512 56.5127 3.82767 56.4916 3.78814 56.4751Z" fill="#4D8AF0"/>
<path opacity="0.5" d="M24.4817 89.5174C25.5035 89.5174 26.3319 88.6882 26.3319 87.6653C26.3319 86.6424 25.5035 85.8132 24.4817 85.8132C23.4599 85.8132 22.6316 86.6424 22.6316 87.6653C22.6316 88.6882 23.4599 89.5174 24.4817 89.5174Z" fill="#47E6B1"/>
<path d="M188.61 73.8586L181.756 74.1246L182.098 82.9454L188.952 82.6794L188.61 73.8586Z" fill="#6C63FF"/>
<path d="M157.694 104.751C157.694 104.751 148.203 100.212 148.355 104.132C148.507 108.052 157.922 110.631 157.922 110.631L157.694 104.751Z" fill="#FFB9B9"/>
<path d="M162.901 137.922C162.901 137.922 158.424 148.893 156.769 156.81C155.115 164.726 152.595 175.621 155.836 183.348C159.077 191.075 168.291 213.784 168.386 216.234C168.481 218.684 167.597 221.172 169.555 221.096C171.513 221.02 182.169 217.662 182.602 216.173C183.034 214.684 178.966 210.915 178.966 210.915L168.921 179.405L179.401 158.876L186.961 189.501L188.442 227.725C188.442 227.725 195.709 225.48 196.764 227.402C196.764 227.402 200.02 222.858 200.433 220.879C200.847 218.9 198.896 181.186 198.896 181.186C198.896 181.186 205.566 138.229 200.181 138.438C194.797 138.647 173.705 125.724 162.901 137.922Z" fill="#6C63FF"/>
<path d="M192.947 65.5923C192.947 65.5923 198.165 73.733 200.199 75.6172C202.233 77.5014 196.511 81.6497 196.511 81.6497L186.269 83.0289C186.269 83.0289 186.398 73.699 185.87 72.738C185.343 71.7769 192.947 65.5923 192.947 65.5923Z" fill="#FFB9B9"/>
<path d="M184.045 76.2443C184.045 76.2443 186.155 80.0886 188.113 80.0126C190.071 79.9366 200.199 75.6172 200.632 74.128C201.064 72.6389 203.987 84.795 203.987 84.795L179.204 128.455L173.158 124.273L176.088 98.6383L178.493 84.8031L184.045 76.2443Z" fill="#6C63FF"/>
<path d="M201.546 115.318C200.557 117.388 199.94 119.547 200.025 121.757C200.029 121.855 200.033 121.953 200.042 122.051C200.276 126.587 201.945 131.832 202.544 135.647C202.979 138.383 202.855 140.381 201.255 140.85C197.377 141.982 201.821 142.791 186.816 147.791C171.812 152.79 169.193 148.475 169.155 147.495C169.117 146.515 171.28 139.069 170.772 138.598C170.263 138.127 163.657 144.764 161.661 143.859C159.665 142.955 161.433 137.979 161.433 137.979C161.433 137.979 165.929 127.498 165.835 125.048C165.74 122.597 172.646 111.041 172.646 111.041L177.343 80.4307C177.343 80.4307 179.15 76.4343 181.578 75.8492C184.007 75.2642 186.022 76.6583 186.022 76.6583L181.958 85.6501L177.67 101.522L178.387 107.383C178.387 107.383 183.373 96.8831 186.648 92.8298C189.923 88.7764 196.905 79.1805 196.905 79.1805C196.905 79.1805 198.535 73.6745 197.305 72.029C196.074 70.3787 202.438 70.1317 205.151 76.8973C206.589 80.483 208.924 85.8303 210.387 90.8089C211.69 95.2195 212.306 99.3427 211.015 101.699C209.041 105.3 204.077 110.032 201.546 115.318Z" fill="#575A89"/>
<path opacity="0.1" d="M211.015 101.699C209.041 105.3 204.077 110.032 201.546 115.318C200.885 112.934 200.078 110.467 200.078 110.467C200.078 110.467 196.985 93.9008 206.134 89.6194C207.65 89.4727 209.167 89.8968 210.387 90.8089C211.69 95.2195 212.306 99.3427 211.015 101.699Z" fill="black"/>
<path d="M174.695 100.655L166.938 102.92L156.169 103.338L155.061 112.706L172.76 113.982C172.76 113.982 177.18 101.541 174.695 100.655Z" fill="#575A89"/>
<path d="M187.343 132.153C187.343 132.153 176.966 133.877 179.335 137.002C181.703 140.128 190.895 136.842 190.895 136.842L187.343 132.153Z" fill="#FFB9B9"/>
<path opacity="0.1" d="M200.042 122.051C200.276 126.587 201.945 131.832 202.544 135.647C199.239 138.779 196.095 141.541 194.91 141.587C192.463 141.682 188.528 141.344 187.078 141.891C185.628 142.438 184.778 133.146 184.778 133.146C184.778 133.146 185.643 130.168 189.503 128.546C192.108 127.449 197.101 124.472 200.042 122.051Z" fill="black"/>
<path d="M206.021 86.6792C206.021 86.6792 214.305 85.376 213.857 99.1353C213.409 112.895 214.73 121.677 211.398 124.261C208.067 126.844 197.244 138.552 194.797 138.647C192.349 138.742 188.414 138.404 186.964 138.951C185.515 139.498 184.664 130.206 184.664 130.206C184.664 130.206 185.529 127.228 189.389 125.606C193.248 123.984 202.34 118.232 202.264 116.272C202.188 114.312 199.964 107.527 199.964 107.527C199.964 107.527 196.871 90.9606 206.021 86.6792Z" fill="#575A89"/>
<path d="M185.642 77.6465C191.595 77.6465 196.42 72.8161 196.42 66.8574C196.42 60.8988 191.595 56.0684 185.642 56.0684C179.69 56.0684 174.865 60.8988 174.865 66.8574C174.865 72.8161 179.69 77.6465 185.642 77.6465Z" fill="#FFB9B9"/>
<path d="M178.385 51.3935C178.125 51.6178 177.814 51.7741 177.479 51.8488C177.311 51.8788 177.138 51.841 176.997 51.7436C176.857 51.6463 176.761 51.4973 176.73 51.3291C176.483 51.841 176.205 52.3866 175.701 52.6493C175.198 52.912 174.42 52.6917 174.347 52.1281C174.273 52.556 174.084 52.9557 173.8 53.2837C173.488 53.5819 172.921 53.6571 172.649 53.3223C172.869 54.5284 172.733 55.7688 172.802 56.9931C172.871 58.2173 173.198 59.5151 174.121 60.3201C175.469 61.4942 177.495 61.2044 179.268 60.982C179.536 60.9257 179.814 60.9409 180.074 61.0262C180.738 61.3092 180.708 62.234 180.717 62.9562C180.771 64.2232 181.272 65.43 182.13 66.3623C182.989 67.2946 184.15 67.8921 185.407 68.0486C186.111 68.1573 186.829 67.9819 187.403 67.561C187.906 67.134 188.164 66.438 188.74 66.1172C189.678 65.5954 190.816 66.3564 191.502 67.1827C192.188 68.0089 192.863 69.0253 193.926 69.1765C195.331 69.3766 196.401 67.9431 196.926 66.6231C197.651 64.773 197.998 62.7965 197.947 60.8101C197.896 58.8236 197.449 56.8674 196.631 55.0569C193.697 48.6545 183.674 47.6418 178.385 51.3935Z" fill="#2F2E41"/>
<path d="M189.326 225.237C189.326 225.237 189.026 230.156 188.123 232.154C187.22 234.152 187.334 237.093 189.782 236.998C192.229 236.903 198.555 235.676 198.555 235.676C198.555 235.676 198.931 232.716 198.422 232.245C197.914 231.774 195.747 226.46 196.669 224.952C197.591 223.444 189.326 225.237 189.326 225.237Z" fill="#575A89"/>
<path opacity="0.5" d="M245.328 37.9733L247.314 39.7963L250.129 35.6526L251.123 36.4814L247.314 41.454L244.5 38.3048L245.328 37.9733Z" fill="#47E6B1"/>
<path d="M169.479 219.136C169.479 219.136 164.512 230.126 164.042 230.635C163.571 231.144 160.334 236.178 162.782 236.083C165.229 235.988 171.009 233.309 175.263 229.218C179.517 225.127 185.125 218.038 184.617 217.567C184.108 217.096 180.624 215.759 180.624 215.759L169.479 219.136Z" fill="#575A89"/>
<defs>
<linearGradient id="paint0_linear" x1="106.357" y1="114.026" x2="155.841" y2="114.026" gradientUnits="userSpaceOnUse">
<stop stop-color="#808080" stop-opacity="0.25"/>
<stop offset="0.53514" stop-color="#808080" stop-opacity="0.12"/>
<stop offset="1" stop-color="#808080" stop-opacity="0.1"/>
</linearGradient>
</defs>
</svg>
