<svg width="233" height="163" viewBox="0 0 233 163" fill="none" xmlns="http://www.w3.org/2000/svg">
<path opacity="0.1" d="M92.9216 20.8364C84.2389 12.5396 73.0864 7.31972 61.167 5.97405C49.2476 4.62838 37.2165 7.23084 26.9108 13.384C48.0679 20.9771 71.4125 21.2563 92.9216 20.8364Z" fill="#6C63FF"/>
<path opacity="0.1" d="M215.545 144.153L192.441 104.033C192.377 103.92 192.284 103.826 192.172 103.761C192.06 103.696 191.932 103.661 191.803 103.661C191.673 103.661 191.546 103.696 191.434 103.761C191.322 103.826 191.229 103.92 191.165 104.033L168.061 144.153C167.993 144.266 167.957 144.394 167.956 144.525C167.954 144.656 167.988 144.785 168.053 144.899C168.118 145.013 168.212 145.107 168.325 145.172C168.438 145.238 168.567 145.271 168.698 145.27H175.59C175.785 145.271 175.972 145.349 176.11 145.487C176.249 145.626 176.327 145.813 176.327 146.009V154.572C176.327 154.767 176.404 154.955 176.542 155.094C176.68 155.232 176.867 155.31 177.062 155.311H186.055C186.25 155.311 186.438 155.233 186.576 155.094C186.714 154.956 186.792 154.768 186.792 154.572V150.433C186.792 150.238 186.87 150.05 187.007 149.912C187.145 149.774 187.332 149.696 187.527 149.696H196.076C196.272 149.696 196.459 149.774 196.597 149.912C196.735 150.05 196.813 150.238 196.814 150.433V154.572C196.814 154.768 196.891 154.956 197.03 155.094C197.168 155.233 197.355 155.311 197.551 155.311H206.541C206.737 155.311 206.924 155.233 207.063 155.094C207.201 154.956 207.279 154.768 207.279 154.572V146C207.279 145.804 207.356 145.616 207.495 145.478C207.633 145.339 207.82 145.261 208.016 145.261H214.908C215.037 145.261 215.164 145.226 215.276 145.161C215.387 145.097 215.48 145.003 215.545 144.891C215.609 144.779 215.643 144.652 215.643 144.522C215.643 144.393 215.609 144.266 215.545 144.153ZM183.326 148.593C183.258 148.663 183.177 148.719 183.088 148.757C182.998 148.796 182.902 148.816 182.805 148.816H179.568C179.373 148.816 179.185 148.739 179.047 148.6C178.909 148.461 178.831 148.273 178.831 148.077C178.831 147.881 178.909 147.693 179.047 147.555C179.185 147.416 179.373 147.338 179.568 147.338H182.811C182.957 147.338 183.1 147.381 183.221 147.463C183.342 147.544 183.437 147.659 183.492 147.794C183.548 147.929 183.563 148.078 183.534 148.221C183.506 148.365 183.436 148.496 183.333 148.6L183.326 148.593ZM204.55 148.593C204.482 148.663 204.401 148.719 204.312 148.757C204.222 148.796 204.126 148.816 204.029 148.816H200.794C200.599 148.816 200.411 148.739 200.273 148.6C200.135 148.461 200.057 148.273 200.057 148.077C200.057 147.881 200.135 147.693 200.273 147.555C200.411 147.416 200.599 147.338 200.794 147.338H204.042C204.188 147.338 204.33 147.381 204.452 147.463C204.573 147.544 204.667 147.659 204.723 147.794C204.779 147.929 204.793 148.078 204.765 148.221C204.737 148.365 204.666 148.496 204.563 148.6L204.55 148.593Z" fill="#6C63FF"/>
<path opacity="0.1" d="M72.7401 144.506L49.6361 104.385C49.5714 104.273 49.4783 104.18 49.3663 104.115C49.2543 104.051 49.1272 104.016 48.9979 104.016C48.8686 104.016 48.7416 104.051 48.6296 104.115C48.5176 104.18 48.4245 104.273 48.3597 104.385L28.4033 139.039C30.8965 142.189 33.6937 145.085 36.7543 147.684H40.0065C40.202 147.684 40.3896 147.762 40.5279 147.901C40.6661 148.039 40.7438 148.227 40.7438 148.423C40.7438 148.619 40.6661 148.808 40.5279 148.946C40.3896 149.085 40.202 149.163 40.0065 149.163H38.6343C40.315 150.43 42.1039 151.545 43.9804 152.497V150.788C43.9804 150.592 44.0581 150.404 44.1964 150.266C44.3346 150.127 44.5222 150.049 44.7177 150.049H53.267C53.4622 150.05 53.6491 150.128 53.7869 150.267C53.9247 150.405 54.0021 150.593 54.0021 150.788V154.925C54.0017 155.032 54.0253 155.138 54.0711 155.235C54.1302 155.363 54.2244 155.471 54.3428 155.547C54.4612 155.623 54.5988 155.664 54.7394 155.664H63.732C63.8461 155.664 63.9587 155.637 64.0605 155.586C64.1623 155.534 64.2505 155.459 64.3178 155.367C64.4168 155.239 64.4694 155.082 64.467 154.92V146.355C64.467 146.159 64.5447 145.971 64.683 145.833C64.8213 145.694 65.0088 145.616 65.2044 145.616H72.0963C72.2264 145.617 72.3544 145.584 72.4673 145.519C72.5803 145.455 72.6742 145.361 72.7396 145.249C72.805 145.136 72.8395 145.008 72.8395 144.878C72.8396 144.747 72.8053 144.619 72.7401 144.506ZM57.4704 147.901C57.5382 147.831 57.6192 147.775 57.7086 147.737C57.7981 147.698 57.8943 147.678 57.9916 147.678H61.2349C61.4304 147.678 61.618 147.755 61.7562 147.894C61.8945 148.033 61.9722 148.221 61.9722 148.417C61.9722 148.613 61.8945 148.801 61.7562 148.939C61.618 149.078 61.4304 149.156 61.2349 149.156H57.9894C57.8436 149.156 57.7011 149.113 57.5799 149.031C57.4587 148.95 57.3642 148.835 57.3084 148.7C57.2526 148.565 57.238 148.416 57.2664 148.273C57.2949 148.129 57.3651 147.998 57.4681 147.894L57.4704 147.901ZM42.958 133.054C42.7624 133.054 42.5749 132.976 42.4366 132.838C42.2983 132.699 42.2207 132.511 42.2207 132.315V126.7C42.2207 126.504 42.2983 126.316 42.4366 126.178C42.5749 126.039 42.7624 125.961 42.958 125.961H55.0423C55.2375 125.962 55.4245 126.04 55.5623 126.178C55.7001 126.317 55.7774 126.505 55.7774 126.7V132.315C55.7774 132.51 55.7001 132.698 55.5623 132.837C55.4245 132.975 55.2375 133.053 55.0423 133.054H42.958Z" fill="#6C63FF"/>
<path opacity="0.1" d="M164.065 72.434H135.474V66.2345C135.474 65.8412 135.318 65.464 135.041 65.1859C134.764 64.9078 134.387 64.7516 133.995 64.7516H125.599V58.1478C125.599 57.9002 125.501 57.6627 125.327 57.4877C125.152 57.3126 124.915 57.2143 124.668 57.2143H113.854C113.607 57.2143 113.37 57.3126 113.195 57.4877C113.021 57.6627 112.923 57.9002 112.923 58.1478V64.7493H103.052C102.66 64.7493 102.284 64.9056 102.007 65.1837C101.729 65.4618 101.573 65.8389 101.573 66.2322V72.4318H74.3105C74.2312 72.4324 74.1552 72.4644 74.0993 72.5209C74.0434 72.5774 74.012 72.6537 74.012 72.7333V155.036C74.012 155.116 74.0434 155.192 74.0993 155.249C74.1552 155.305 74.2312 155.337 74.3105 155.338H92.4293C92.509 155.338 92.5855 155.306 92.6419 155.249C92.6983 155.193 92.73 155.116 92.73 155.036V143.964C92.7306 143.884 92.7624 143.807 92.8187 143.751C92.875 143.695 92.9511 143.663 93.0307 143.662H100.685C100.764 143.663 100.84 143.695 100.897 143.751C100.953 143.807 100.985 143.884 100.985 143.964V155.036C100.985 155.116 101.017 155.192 101.073 155.249C101.128 155.305 101.204 155.337 101.284 155.338H137.091C137.171 155.337 137.247 155.305 137.303 155.249C137.36 155.192 137.391 155.116 137.392 155.036V143.964C137.392 143.884 137.423 143.808 137.479 143.751C137.535 143.695 137.611 143.663 137.691 143.662H145.344C145.424 143.662 145.501 143.694 145.557 143.75C145.613 143.807 145.645 143.884 145.645 143.964V155.036C145.646 155.116 145.677 155.192 145.734 155.249C145.79 155.305 145.866 155.337 145.946 155.338H164.065C164.144 155.337 164.22 155.305 164.277 155.249C164.333 155.192 164.365 155.116 164.365 155.036V72.7355C164.365 72.6557 164.333 72.5794 164.277 72.523C164.22 72.4666 164.144 72.4346 164.065 72.434ZM89.4867 139.816C89.4867 139.896 89.4553 139.972 89.3993 140.028C89.3433 140.084 89.2674 140.116 89.1882 140.116H77.9971C77.9577 140.116 77.9187 140.108 77.8822 140.093C77.8457 140.079 77.8125 140.057 77.7846 140.029C77.7566 140.001 77.7344 139.968 77.7193 139.931C77.7042 139.895 77.6964 139.856 77.6964 139.816V135.991C77.6964 135.911 77.7281 135.834 77.7845 135.778C77.8408 135.721 77.9173 135.689 77.9971 135.689H89.1882C89.2676 135.69 89.3435 135.722 89.3994 135.778C89.4553 135.835 89.4867 135.911 89.4867 135.991V139.816ZM89.4867 129.914C89.487 129.954 89.4795 129.993 89.4646 130.029C89.4498 130.066 89.4278 130.099 89.4001 130.127C89.3723 130.155 89.3393 130.177 89.303 130.193C89.2666 130.208 89.2276 130.216 89.1882 130.216H77.9971C77.9575 130.216 77.9183 130.208 77.8817 130.193C77.845 130.178 77.8118 130.156 77.7838 130.128C77.7558 130.1 77.7337 130.066 77.7187 130.03C77.7037 129.993 77.6961 129.954 77.6964 129.914V126.084C77.6961 126.044 77.7037 126.005 77.7187 125.968C77.7337 125.932 77.7558 125.898 77.7838 125.87C77.8118 125.842 77.845 125.82 77.8817 125.805C77.9183 125.79 77.9575 125.782 77.9971 125.782H89.1882C89.2276 125.782 89.2666 125.79 89.303 125.805C89.3393 125.821 89.3723 125.843 89.4001 125.871C89.4278 125.899 89.4498 125.932 89.4646 125.969C89.4795 126.005 89.487 126.044 89.4867 126.084V129.914ZM89.4867 120.014C89.4867 120.094 89.4553 120.17 89.3994 120.226C89.3435 120.283 89.2676 120.315 89.1882 120.315H77.9971C77.9576 120.315 77.9185 120.308 77.882 120.292C77.8455 120.277 77.8124 120.255 77.7845 120.227C77.7565 120.199 77.7344 120.166 77.7193 120.129C77.7042 120.093 77.6964 120.054 77.6964 120.014V116.182C77.6964 116.102 77.7281 116.025 77.7845 115.968C77.8408 115.912 77.9173 115.88 77.9971 115.88H89.1882C89.2676 115.881 89.3435 115.913 89.3994 115.969C89.4553 116.026 89.4867 116.102 89.4867 116.182V120.014ZM89.4867 110.112C89.487 110.151 89.4795 110.19 89.4646 110.227C89.4498 110.263 89.4278 110.297 89.4001 110.325C89.3723 110.353 89.3393 110.375 89.303 110.39C89.2666 110.405 89.2276 110.413 89.1882 110.413H77.9971C77.9575 110.413 77.9183 110.406 77.8817 110.391C77.845 110.376 77.8118 110.354 77.7838 110.325C77.7558 110.297 77.7337 110.264 77.7187 110.227C77.7037 110.191 77.6961 110.151 77.6964 110.112V106.288C77.6961 106.249 77.7037 106.209 77.7187 106.173C77.7337 106.136 77.7558 106.102 77.7838 106.074C77.8118 106.046 77.845 106.024 77.8817 106.009C77.9183 105.994 77.9575 105.986 77.9971 105.987H89.1882C89.2276 105.987 89.2666 105.995 89.303 106.01C89.3393 106.025 89.3723 106.047 89.4001 106.075C89.4278 106.103 89.4498 106.136 89.4646 106.173C89.4795 106.21 89.487 106.249 89.4867 106.288V110.112ZM89.4867 100.211C89.4867 100.291 89.4553 100.367 89.3994 100.424C89.3435 100.48 89.2676 100.512 89.1882 100.513H77.9971C77.9173 100.513 77.8408 100.481 77.7845 100.425C77.7281 100.368 77.6964 100.291 77.6964 100.211V96.3792C77.6964 96.3397 77.7042 96.3006 77.7193 96.2641C77.7344 96.2277 77.7566 96.1946 77.7846 96.1668C77.8125 96.139 77.8457 96.117 77.8822 96.1021C77.9187 96.0872 77.9577 96.0796 77.9971 96.0799H89.1882C89.2674 96.0799 89.3433 96.1115 89.3993 96.1676C89.4553 96.2237 89.4867 96.2998 89.4867 96.3792V100.211ZM89.4867 90.3114C89.4867 90.3908 89.4553 90.4669 89.3993 90.523C89.3433 90.5791 89.2674 90.6106 89.1882 90.6106H77.9971C77.9577 90.6109 77.9187 90.6034 77.8822 90.5885C77.8457 90.5736 77.8125 90.5516 77.7846 90.5238C77.7566 90.496 77.7344 90.4629 77.7193 90.4264C77.7042 90.39 77.6964 90.3509 77.6964 90.3114V86.4791C77.6964 86.3991 77.7281 86.3224 77.7845 86.2659C77.8408 86.2094 77.9173 86.1776 77.9971 86.1776H89.1882C89.2676 86.1782 89.3435 86.2102 89.3994 86.2667C89.4553 86.3232 89.4867 86.3995 89.4867 86.4791V90.3114ZM89.4867 80.409C89.487 80.4485 89.4795 80.4877 89.4646 80.5243C89.4498 80.5608 89.4278 80.5941 89.4001 80.6221C89.3723 80.6501 89.3393 80.6724 89.303 80.6876C89.2666 80.7027 89.2276 80.7105 89.1882 80.7105H77.9971C77.9575 80.7108 77.9183 80.7032 77.8817 80.6882C77.845 80.6731 77.8118 80.651 77.7838 80.6229C77.7558 80.5948 77.7337 80.5615 77.7187 80.5248C77.7037 80.4881 77.6961 80.4487 77.6964 80.409V76.5857C77.6961 76.546 77.7037 76.5067 77.7187 76.47C77.7337 76.4332 77.7558 76.3999 77.7838 76.3718C77.8118 76.3438 77.845 76.3216 77.8817 76.3065C77.9183 76.2915 77.9575 76.2839 77.9971 76.2842H89.1882C89.2276 76.2842 89.2666 76.292 89.303 76.3072C89.3393 76.3224 89.3723 76.3446 89.4001 76.3726C89.4278 76.4007 89.4498 76.4339 89.4646 76.4705C89.4795 76.507 89.487 76.5462 89.4867 76.5857V80.409ZM116.019 139.814C116.019 139.854 116.011 139.893 115.996 139.929C115.981 139.966 115.959 139.999 115.931 140.027C115.903 140.054 115.87 140.076 115.833 140.091C115.797 140.106 115.758 140.114 115.718 140.113H104.527C104.448 140.113 104.371 140.082 104.315 140.026C104.259 139.97 104.227 139.894 104.226 139.814V135.991C104.227 135.911 104.259 135.835 104.315 135.778C104.371 135.722 104.447 135.69 104.527 135.689H115.718C115.798 135.689 115.874 135.721 115.931 135.778C115.987 135.834 116.019 135.911 116.019 135.991V139.814ZM116.019 129.912C116.019 129.951 116.012 129.991 115.997 130.028C115.982 130.064 115.959 130.098 115.931 130.126C115.903 130.154 115.87 130.176 115.834 130.191C115.797 130.206 115.758 130.214 115.718 130.213H104.527C104.488 130.213 104.448 130.205 104.412 130.19C104.375 130.175 104.342 130.153 104.314 130.125C104.286 130.097 104.264 130.064 104.249 130.027C104.234 129.991 104.226 129.951 104.226 129.912V126.084C104.226 126.044 104.234 126.005 104.249 125.969C104.264 125.932 104.286 125.899 104.314 125.871C104.342 125.843 104.375 125.821 104.412 125.805C104.448 125.79 104.488 125.782 104.527 125.782H115.718C115.758 125.782 115.797 125.79 115.834 125.805C115.87 125.82 115.903 125.842 115.931 125.87C115.959 125.898 115.982 125.932 115.997 125.968C116.012 126.005 116.019 126.044 116.019 126.084V129.912ZM116.019 120.012C116.019 120.092 115.987 120.168 115.931 120.225C115.874 120.281 115.798 120.313 115.718 120.313H104.527C104.447 120.313 104.371 120.281 104.315 120.224C104.259 120.168 104.227 120.091 104.226 120.012V116.182C104.227 116.102 104.259 116.026 104.315 115.969C104.371 115.913 104.447 115.881 104.527 115.88H115.718C115.798 115.88 115.874 115.912 115.931 115.968C115.987 116.025 116.019 116.102 116.019 116.182V120.012ZM116.019 110.109C116.019 110.149 116.012 110.188 115.997 110.225C115.982 110.262 115.959 110.295 115.931 110.323C115.903 110.351 115.87 110.373 115.834 110.389C115.797 110.404 115.758 110.411 115.718 110.411H104.527C104.488 110.411 104.448 110.403 104.412 110.388C104.375 110.373 104.342 110.351 104.314 110.323C104.286 110.295 104.264 110.261 104.249 110.225C104.234 110.188 104.226 110.149 104.226 110.109V106.288C104.226 106.249 104.234 106.209 104.249 106.173C104.264 106.136 104.286 106.103 104.314 106.075C104.342 106.047 104.375 106.025 104.412 106.01C104.448 105.995 104.488 105.987 104.527 105.987H115.718C115.758 105.986 115.797 105.994 115.834 106.009C115.87 106.024 115.903 106.046 115.931 106.074C115.959 106.102 115.982 106.136 115.997 106.173C116.012 106.209 116.019 106.249 116.019 106.288V110.109ZM116.019 100.209C116.019 100.289 115.987 100.366 115.931 100.422C115.874 100.479 115.798 100.511 115.718 100.511H104.527C104.447 100.51 104.371 100.478 104.315 100.422C104.259 100.365 104.227 100.289 104.226 100.209V96.3792C104.227 96.2996 104.259 96.2235 104.315 96.1674C104.371 96.1114 104.448 96.0799 104.527 96.0799H115.718C115.758 96.0796 115.797 96.0872 115.833 96.1021C115.87 96.117 115.903 96.139 115.931 96.1668C115.959 96.1946 115.981 96.2277 115.996 96.2641C116.011 96.3006 116.019 96.3397 116.019 96.3792V100.209ZM116.019 90.3092C116.019 90.3486 116.011 90.3877 115.996 90.4242C115.981 90.4606 115.959 90.4937 115.931 90.5215C115.903 90.5494 115.87 90.5714 115.833 90.5863C115.797 90.6012 115.758 90.6087 115.718 90.6084H104.527C104.448 90.6084 104.371 90.577 104.315 90.5209C104.259 90.4648 104.227 90.3887 104.226 90.3092V86.4791C104.227 86.3993 104.259 86.323 104.315 86.2665C104.371 86.2101 104.447 86.1782 104.527 86.1776H115.718C115.798 86.1776 115.874 86.2094 115.931 86.2659C115.987 86.3224 116.019 86.3991 116.019 86.4791V90.3092ZM116.019 80.4068C116.019 80.4465 116.012 80.4858 115.997 80.5225C115.982 80.5593 115.959 80.5926 115.931 80.6207C115.903 80.6487 115.87 80.6709 115.834 80.686C115.797 80.701 115.758 80.7086 115.718 80.7083H104.527C104.488 80.7083 104.448 80.7005 104.412 80.6854C104.375 80.6702 104.342 80.648 104.314 80.62C104.286 80.592 104.264 80.5588 104.249 80.5222C104.234 80.4856 104.226 80.4464 104.226 80.4068V76.5857C104.226 76.5461 104.234 76.5069 104.249 76.4703C104.264 76.4337 104.286 76.4005 104.314 76.3725C104.342 76.3445 104.375 76.3223 104.412 76.3071C104.448 76.292 104.488 76.2842 104.527 76.2842H115.718C115.758 76.2839 115.797 76.2915 115.834 76.3065C115.87 76.3216 115.903 76.3438 115.931 76.3718C115.959 76.3999 115.982 76.4332 115.997 76.47C116.012 76.5067 116.019 76.546 116.019 76.5857V80.4068ZM134.149 139.812C134.149 139.851 134.141 139.89 134.126 139.927C134.111 139.963 134.088 139.996 134.061 140.024C134.033 140.052 133.999 140.074 133.963 140.089C133.926 140.104 133.887 140.111 133.848 140.111H122.657C122.578 140.111 122.501 140.08 122.445 140.024C122.389 139.968 122.357 139.891 122.356 139.812V135.991C122.357 135.911 122.389 135.835 122.445 135.778C122.501 135.722 122.577 135.69 122.657 135.689H133.848C133.928 135.689 134.004 135.721 134.061 135.778C134.117 135.834 134.149 135.911 134.149 135.991V139.812ZM134.149 129.91C134.149 129.949 134.141 129.989 134.126 130.025C134.111 130.062 134.089 130.095 134.061 130.123C134.033 130.151 134 130.174 133.963 130.189C133.927 130.204 133.888 130.211 133.848 130.211H122.657C122.617 130.211 122.578 130.203 122.542 130.188C122.505 130.173 122.472 130.151 122.444 130.123C122.416 130.095 122.394 130.062 122.379 130.025C122.364 129.988 122.356 129.949 122.356 129.91V126.084C122.356 126.044 122.364 126.005 122.379 125.969C122.394 125.932 122.416 125.899 122.444 125.871C122.472 125.843 122.505 125.821 122.542 125.805C122.578 125.79 122.617 125.782 122.657 125.782H133.848C133.888 125.782 133.927 125.79 133.963 125.805C134 125.82 134.033 125.842 134.061 125.87C134.089 125.898 134.111 125.932 134.126 125.968C134.141 126.005 134.149 126.044 134.149 126.084V129.91ZM134.149 120.009C134.149 120.089 134.117 120.166 134.061 120.223C134.004 120.279 133.928 120.311 133.848 120.311H122.657C122.577 120.31 122.501 120.278 122.445 120.222C122.389 120.166 122.357 120.089 122.356 120.009V116.182C122.357 116.102 122.389 116.026 122.445 115.969C122.501 115.913 122.577 115.881 122.657 115.88H133.848C133.928 115.88 134.004 115.912 134.061 115.968C134.117 116.025 134.149 116.102 134.149 116.182V120.009ZM134.149 110.107C134.149 110.147 134.141 110.186 134.126 110.223C134.111 110.26 134.089 110.293 134.061 110.321C134.033 110.349 134 110.371 133.963 110.386C133.927 110.401 133.888 110.409 133.848 110.409H122.657C122.617 110.409 122.578 110.401 122.542 110.386C122.505 110.371 122.472 110.348 122.444 110.32C122.416 110.292 122.394 110.259 122.379 110.223C122.364 110.186 122.356 110.147 122.356 110.107V106.288C122.356 106.249 122.364 106.209 122.379 106.173C122.394 106.136 122.416 106.103 122.444 106.075C122.472 106.047 122.505 106.025 122.542 106.01C122.578 105.995 122.617 105.987 122.657 105.987H133.848C133.888 105.986 133.927 105.994 133.963 106.009C134 106.024 134.033 106.046 134.061 106.074C134.089 106.102 134.111 106.136 134.126 106.173C134.141 106.209 134.149 106.249 134.149 106.288V110.107ZM134.149 100.207C134.149 100.287 134.117 100.364 134.061 100.42C134.004 100.477 133.928 100.509 133.848 100.509H122.657C122.577 100.508 122.501 100.476 122.445 100.42C122.389 100.363 122.357 100.287 122.356 100.207V96.3792C122.357 96.2996 122.389 96.2235 122.445 96.1674C122.501 96.1114 122.578 96.0799 122.657 96.0799H133.848C133.887 96.0796 133.926 96.0872 133.963 96.1021C133.999 96.117 134.033 96.139 134.061 96.1668C134.088 96.1946 134.111 96.2277 134.126 96.2641C134.141 96.3006 134.149 96.3397 134.149 96.3792V100.207ZM134.149 90.3069C134.149 90.3464 134.141 90.3855 134.126 90.422C134.111 90.4584 134.088 90.4915 134.061 90.5193C134.033 90.5471 133.999 90.5691 133.963 90.584C133.926 90.5989 133.887 90.6065 133.848 90.6062H122.657C122.578 90.6062 122.501 90.5747 122.445 90.5187C122.389 90.4626 122.357 90.3865 122.356 90.3069V86.4791C122.357 86.3993 122.389 86.323 122.445 86.2665C122.501 86.2101 122.577 86.1782 122.657 86.1776H133.848C133.928 86.1776 134.004 86.2094 134.061 86.2659C134.117 86.3224 134.149 86.3991 134.149 86.4791V90.3069ZM134.149 80.4046C134.149 80.4443 134.141 80.4836 134.126 80.5203C134.111 80.557 134.089 80.5904 134.061 80.6184C134.033 80.6465 134 80.6687 133.963 80.6837C133.927 80.6988 133.888 80.7064 133.848 80.7061H122.657C122.617 80.7061 122.578 80.6983 122.542 80.6831C122.505 80.668 122.472 80.6458 122.444 80.6178C122.416 80.5898 122.394 80.5565 122.379 80.52C122.364 80.4834 122.356 80.4442 122.356 80.4046V76.5857C122.356 76.5461 122.364 76.5069 122.379 76.4703C122.394 76.4337 122.416 76.4005 122.444 76.3725C122.472 76.3445 122.505 76.3223 122.542 76.3071C122.578 76.292 122.617 76.2842 122.657 76.2842H133.848C133.888 76.2839 133.927 76.2915 133.963 76.3065C134 76.3216 134.033 76.3438 134.061 76.3718C134.089 76.3999 134.111 76.4332 134.126 76.47C134.141 76.5067 134.149 76.546 134.149 76.5857V80.4046ZM160.681 139.81C160.68 139.889 160.648 139.965 160.592 140.021C160.536 140.077 160.46 140.109 160.38 140.109H149.189C149.15 140.109 149.111 140.102 149.074 140.087C149.038 140.072 149.005 140.05 148.977 140.022C148.949 139.994 148.926 139.961 148.911 139.925C148.896 139.888 148.888 139.849 148.888 139.81V135.991C148.888 135.911 148.92 135.834 148.976 135.778C149.033 135.721 149.109 135.689 149.189 135.689H160.382C160.462 135.69 160.538 135.722 160.594 135.778C160.651 135.835 160.683 135.911 160.683 135.991L160.681 139.81ZM160.681 129.907C160.681 129.987 160.649 130.064 160.593 130.121C160.536 130.177 160.46 130.209 160.38 130.209H149.189C149.149 130.209 149.11 130.202 149.074 130.186C149.037 130.171 149.004 130.149 148.976 130.121C148.948 130.093 148.926 130.06 148.911 130.023C148.896 129.986 148.888 129.947 148.888 129.907V126.084C148.888 126.044 148.896 126.005 148.911 125.968C148.926 125.932 148.948 125.898 148.976 125.87C149.004 125.842 149.037 125.82 149.074 125.805C149.11 125.79 149.149 125.782 149.189 125.782H160.382C160.462 125.782 160.539 125.814 160.595 125.871C160.651 125.927 160.683 126.004 160.683 126.084L160.681 129.907ZM160.681 120.007C160.68 120.087 160.648 120.163 160.592 120.22C160.536 120.276 160.46 120.308 160.38 120.309H149.189C149.109 120.309 149.033 120.277 148.976 120.22C148.92 120.164 148.888 120.087 148.888 120.007V116.182C148.888 116.102 148.92 116.025 148.976 115.968C149.033 115.912 149.109 115.88 149.189 115.88H160.382C160.462 115.881 160.538 115.913 160.594 115.969C160.651 116.026 160.683 116.102 160.683 116.182L160.681 120.007ZM160.681 110.105C160.681 110.185 160.649 110.262 160.593 110.318C160.536 110.375 160.46 110.406 160.38 110.406H149.189C149.149 110.407 149.11 110.399 149.074 110.384C149.037 110.369 149.004 110.347 148.976 110.319C148.948 110.291 148.926 110.257 148.911 110.221C148.896 110.184 148.888 110.145 148.888 110.105V106.288C148.888 106.249 148.896 106.209 148.911 106.173C148.926 106.136 148.948 106.102 148.976 106.074C149.004 106.046 149.037 106.024 149.074 106.009C149.11 105.994 149.149 105.986 149.189 105.987H160.382C160.462 105.987 160.539 106.019 160.595 106.075C160.651 106.132 160.683 106.208 160.683 106.288L160.681 110.105ZM160.681 100.205C160.68 100.285 160.648 100.361 160.592 100.417C160.536 100.474 160.46 100.506 160.38 100.506H149.189C149.109 100.506 149.033 100.475 148.976 100.418C148.92 100.361 148.888 100.285 148.888 100.205V96.3792C148.888 96.3397 148.896 96.3006 148.911 96.2641C148.926 96.2277 148.949 96.1946 148.977 96.1668C149.005 96.139 149.038 96.117 149.074 96.1021C149.111 96.0872 149.15 96.0796 149.189 96.0799H160.382C160.462 96.0799 160.538 96.1114 160.594 96.1674C160.651 96.2235 160.683 96.2996 160.683 96.3792L160.681 100.205ZM160.681 90.3047C160.681 90.3445 160.674 90.384 160.66 90.4209C160.645 90.4579 160.623 90.4915 160.595 90.52C160.567 90.5484 160.534 90.5711 160.498 90.5866C160.461 90.6022 160.422 90.6104 160.382 90.6106H149.189C149.15 90.6109 149.111 90.6034 149.074 90.5885C149.038 90.5736 149.005 90.5516 148.977 90.5238C148.949 90.496 148.926 90.4629 148.911 90.4264C148.896 90.39 148.888 90.3509 148.888 90.3114V86.4791C148.888 86.3991 148.92 86.3224 148.976 86.2659C149.033 86.2094 149.109 86.1776 149.189 86.1776H160.382C160.462 86.1782 160.538 86.2101 160.594 86.2665C160.651 86.323 160.683 86.3993 160.683 86.4791L160.681 90.3047ZM160.681 80.4023C160.681 80.4823 160.649 80.559 160.593 80.6155C160.536 80.6721 160.46 80.7038 160.38 80.7038H149.189C149.149 80.7041 149.11 80.6965 149.074 80.6815C149.037 80.6664 149.004 80.6442 148.976 80.6162C148.948 80.5881 148.926 80.5548 148.911 80.5181C148.896 80.4814 148.888 80.442 148.888 80.4023V76.5857C148.888 76.546 148.896 76.5067 148.911 76.47C148.926 76.4332 148.948 76.3999 148.976 76.3718C149.004 76.3438 149.037 76.3216 149.074 76.3065C149.11 76.2915 149.149 76.2839 149.189 76.2842H160.382C160.462 76.2842 160.539 76.316 160.595 76.3725C160.651 76.429 160.683 76.5057 160.683 76.5857L160.681 80.4023Z" fill="#6C63FF"/>
<path opacity="0.1" d="M82.6415 50.1281C81.3837 49.888 80.0831 50.0295 78.9059 50.5345C78.1965 50.8515 77.4282 51.0144 76.6516 51.0125C75.8749 51.0105 75.1074 50.8439 74.3996 50.5234C73.5653 50.1566 72.6615 49.9761 71.7507 49.9942C70.8399 50.0123 69.9439 50.2287 69.1248 50.6283C68.6563 50.8757 68.1352 51.006 67.6056 51.008C65.4672 51.008 63.6874 48.8484 63.3176 45.9987C63.745 45.6866 64.108 45.2945 64.3869 44.8441C65.641 42.8186 67.5834 41.5166 69.7641 41.5166C71.9449 41.5166 73.8628 42.8029 75.1102 44.8062C75.4842 45.4114 76.0078 45.9096 76.6303 46.2523C77.2528 46.5951 77.953 46.7708 78.6631 46.7625H78.7188C80.4385 46.7625 81.9131 48.1315 82.6415 50.1281Z" fill="#6C63FF"/>
<path opacity="0.1" d="M89.1459 41.1838L85.6888 43.3814L87.7871 39.5558C87.1924 39.0799 86.4563 38.8166 85.6954 38.8076H85.6398C85.3996 38.8111 85.1595 38.7932 84.9225 38.754L83.7553 39.4999L84.2587 38.5843C83.428 38.2933 82.7106 37.746 82.2094 37.021L80.111 38.361L81.4319 35.9401C80.2046 34.4639 78.5518 33.5594 76.7341 33.5594C74.5533 33.5594 72.6109 34.8592 71.3568 36.8848C70.9854 37.4926 70.4598 37.9908 69.8337 38.3286C69.2076 38.6664 68.5034 38.8317 67.7928 38.8076H67.6747C65.2667 38.8076 63.3154 41.5434 63.3154 44.9201C63.3154 48.2968 65.2667 51.0326 67.6747 51.0326C68.2045 51.0312 68.726 50.9001 69.1939 50.6507C70.0132 50.2514 70.9092 50.0354 71.82 50.0177C72.7308 49.9999 73.6345 50.1809 74.4687 50.5479C75.1745 50.8638 75.9388 51.027 76.7118 51.027C77.4848 51.027 78.2491 50.8638 78.9549 50.5479C79.7828 50.1871 80.6784 50.0093 81.581 50.0266C82.4835 50.0439 83.3717 50.256 84.1852 50.6484C84.6486 50.8916 85.1635 51.0195 85.6865 51.0214C88.0945 51.0214 90.0458 48.2834 90.0458 44.9089C90.0611 43.6113 89.7517 42.3306 89.1459 41.1838Z" fill="#6C63FF"/>
<path opacity="0.1" d="M185.331 90.8786C184.45 90.7114 183.54 90.8101 182.716 91.1623C182.222 91.3838 181.686 91.4983 181.145 91.4983C180.604 91.4983 180.069 91.3838 179.575 91.1623C178.991 90.9055 178.358 90.7792 177.72 90.7919C177.082 90.8046 176.455 90.9561 175.882 91.236C175.554 91.4094 175.189 91.5006 174.819 91.5017C173.322 91.5017 172.077 89.9898 171.819 87.9955C172.117 87.7761 172.371 87.5018 172.567 87.187C173.445 85.7689 174.795 84.8577 176.329 84.8577C177.864 84.8577 179.201 85.751 180.078 87.1602C180.34 87.5839 180.706 87.9326 181.142 88.1725C181.577 88.4124 182.067 88.5352 182.564 88.5292H182.604C183.785 88.5248 184.816 89.4828 185.331 90.8786Z" fill="#6C63FF"/>
<path opacity="0.1" d="M189.879 84.6255L187.46 86.1642L188.928 83.4843C188.512 83.1517 187.997 82.9678 187.465 82.9617H187.427C187.259 82.9637 187.091 82.951 186.926 82.9237L186.104 83.4441L186.456 82.8053C185.875 82.6009 185.373 82.2189 185.021 81.7133L183.549 82.6423L184.475 80.9517C183.618 79.9177 182.471 79.2835 181.188 79.2835C179.662 79.2835 178.292 80.1947 177.423 81.6128C177.163 82.0364 176.796 82.3834 176.359 82.6188C175.922 82.8541 175.431 82.9694 174.935 82.9527H174.861C173.177 82.9527 171.81 84.8667 171.81 87.2295C171.81 89.5923 173.177 91.5084 174.861 91.5084C175.232 91.5073 175.596 91.4161 175.924 91.2427C176.497 90.9626 177.125 90.8111 177.763 90.7988C178.4 90.7865 179.033 90.9135 179.617 91.1712C180.112 91.3913 180.647 91.5051 181.188 91.5051C181.729 91.5051 182.264 91.3913 182.758 91.1712C183.337 90.919 183.964 90.7948 184.596 90.8072C185.227 90.8195 185.849 90.968 186.418 91.2427C186.743 91.4115 187.103 91.5003 187.469 91.5017C189.155 91.5017 190.521 89.5878 190.521 87.2228C190.526 86.3169 190.306 85.4242 189.879 84.6255Z" fill="#6C63FF"/>
<path opacity="0.1" d="M53.1534 76.5857C54.0339 76.4186 54.944 76.5173 55.7685 76.8693C56.2622 77.0909 56.7969 77.2054 57.3378 77.2054C57.8787 77.2054 58.4135 77.0909 58.9071 76.8693C59.4913 76.6126 60.1241 76.4862 60.7618 76.4989C61.3995 76.5117 62.0269 76.6632 62.6004 76.943C62.928 77.1162 63.2925 77.2074 63.6629 77.2088C65.1598 77.2088 66.4072 75.6968 66.6656 73.7025C66.3666 73.4838 66.1125 73.2093 65.9172 72.8941C65.044 71.4715 63.6785 70.5558 62.1482 70.5558C60.6179 70.5558 59.2791 71.4491 58.4015 72.8583C58.1391 73.2826 57.7722 73.6319 57.3359 73.8725C56.8997 74.1131 56.4089 74.2368 55.9111 74.2318H55.8732C54.6882 74.2318 53.6546 75.1899 53.1534 76.5857Z" fill="#6C63FF"/>
<path opacity="0.1" d="M48.5914 70.3325L51.0105 71.8645L49.5403 69.1846C49.9568 68.8523 50.4717 68.6685 51.0038 68.662H51.0439C51.2118 68.6639 51.3795 68.6512 51.5451 68.6241L52.3648 69.1444L52.0129 68.5057C52.594 68.3014 53.0965 67.9194 53.4497 67.4136L54.9176 68.3471L53.9887 66.6565C54.8485 65.6225 56.0046 64.9883 57.2788 64.9883C58.8047 64.9883 60.1746 65.8995 61.0433 67.3176C61.3031 67.7413 61.6702 68.0885 62.1072 68.3239C62.5442 68.5593 63.0357 68.6744 63.5315 68.6576H63.6117C65.2979 68.6576 66.6634 70.5715 66.6634 72.9343C66.6634 75.2971 65.2979 77.2132 63.6117 77.2132C63.2413 77.2116 62.8769 77.1204 62.5491 76.9475C61.9756 76.6674 61.3482 76.5159 60.7104 76.5036C60.0726 76.4913 59.4397 76.6183 58.8559 76.876C58.3618 77.0961 57.8272 77.2098 57.2866 77.2098C56.746 77.2098 56.2113 77.0961 55.7173 76.876C55.1375 76.6238 54.5104 76.4996 53.8785 76.5119C53.2466 76.5243 52.6248 76.6728 52.0552 76.9475C51.7303 77.1165 51.3699 77.2053 51.0038 77.2065C49.3198 77.2065 47.9521 75.2926 47.9521 72.9276C47.9465 72.0227 48.1663 71.1307 48.5914 70.3325Z" fill="#6C63FF"/>
<path d="M48.7117 156.343C51.7278 158.263 56.0737 156.32 59.1098 158.212C59.8939 158.699 60.5265 159.416 61.3374 159.858C62.3108 160.392 63.4557 160.488 64.5628 160.528C73.8338 160.887 83.2607 158.294 92.3001 160.389C94.8283 160.974 97.3009 161.926 99.8915 162.064C104.367 162.308 108.655 160.119 113.134 159.998C119.928 159.815 126.604 164.373 133.16 162.576C135.316 161.984 137.294 160.722 139.519 160.51C141.999 160.287 144.382 161.37 146.792 162.002C155.339 164.235 164.241 160.617 173.077 160.347C178.84 160.17 184.547 161.43 190.305 161.72C194.399 161.926 198.502 161.638 202.592 161.352C204.151 161.242 205.784 161.108 207.089 160.251C208.395 159.393 209.197 157.551 208.39 156.211L48.7117 156.343Z" fill="#3F3D56"/>
<path opacity="0.1" d="M48.7117 156.343C51.7278 158.263 56.0737 156.32 59.1098 158.212C59.8939 158.699 60.5265 159.416 61.3374 159.858C62.3108 160.392 63.4557 160.488 64.5628 160.528C73.8338 160.887 83.2607 158.294 92.3001 160.389C94.8283 160.974 97.3009 161.926 99.8915 162.064C104.367 162.308 108.655 160.119 113.134 159.998C119.928 159.815 126.604 164.373 133.16 162.576C135.316 161.984 137.294 160.722 139.519 160.51C141.999 160.287 144.382 161.37 146.792 162.002C155.339 164.235 164.241 160.617 173.077 160.347C178.84 160.17 184.547 161.43 190.305 161.72C194.399 161.926 198.502 161.638 202.592 161.352C204.151 161.242 205.784 161.108 207.089 160.251C208.395 159.393 209.197 157.551 208.39 156.211L48.7117 156.343Z" fill="black"/>
<path d="M48.7117 155.226C51.7278 157.147 56.0737 155.204 59.1098 157.095C59.8939 157.582 60.5265 158.299 61.3374 158.741C62.3108 159.275 63.4557 159.371 64.5628 159.411C73.8338 159.771 83.2607 157.178 92.3001 159.273C94.8283 159.858 97.3009 160.809 99.8915 160.948C104.367 161.191 108.655 159.002 113.134 158.882C119.928 158.699 126.604 163.257 133.16 161.459C135.316 160.867 137.294 159.605 139.519 159.393C141.999 159.17 144.382 160.253 146.792 160.885C155.339 163.118 164.241 159.5 173.077 159.23C178.84 159.054 184.547 160.313 190.305 160.604C194.399 160.809 198.502 160.521 202.592 160.235C204.151 160.126 205.784 159.992 207.089 159.134C208.395 158.277 209.197 156.434 208.39 155.094L48.7117 155.226Z" fill="#3F3D56"/>
<g opacity="0.1">
<path opacity="0.1" d="M27.2539 127.712C27.2631 128.681 27.0147 129.636 26.5344 130.477C27.0061 131.322 27.2539 132.273 27.2539 133.242C27.2539 134.21 27.0061 135.162 26.5344 136.006C26.7784 136.425 26.9614 136.876 27.0779 137.346C24.6463 134.133 22.4081 130.777 20.3752 127.297C20.4242 126.466 20.6652 125.659 21.0791 124.938C20.5988 124.097 20.3505 123.143 20.3597 122.174C20.3568 121.519 20.4668 120.868 20.6849 120.251C20.7887 119.958 20.9207 119.676 21.0791 119.409C21.7073 118.339 22.6963 117.649 23.8056 117.649C24.915 117.649 25.9062 118.339 26.5344 119.409C26.6872 119.668 26.8162 119.941 26.9197 120.224C27.1431 120.849 27.2562 121.509 27.2539 122.174C27.2631 123.143 27.0147 124.097 26.5344 124.938C27.0163 125.782 27.2647 126.74 27.2539 127.712Z" fill="#3F3D56"/>
<path opacity="0.1" d="M23.8057 121.18C25.7088 121.18 27.2516 119.154 27.2516 116.655C27.2516 114.156 25.7088 112.13 23.8057 112.13C21.9025 112.13 20.3597 114.156 20.3597 116.655C20.3597 119.154 21.9025 121.18 23.8057 121.18Z" fill="#3F3D56"/>
<path opacity="0.1" d="M23.8057 115.65C25.7088 115.65 27.2516 113.624 27.2516 111.125C27.2516 108.627 25.7088 106.601 23.8057 106.601C21.9025 106.601 20.3597 108.627 20.3597 111.125C20.3597 113.624 21.9025 115.65 23.8057 115.65Z" fill="#3F3D56"/>
<path opacity="0.1" d="M40.2449 83.5088C40.2506 87.2224 39.0049 90.8291 36.7098 93.7439C38.4576 95.9721 39.6056 98.6129 40.0436 101.413C40.4816 104.214 40.1951 107.08 39.2114 109.738C38.2277 112.395 36.5799 114.755 34.4257 116.591C32.2715 118.427 29.6832 119.678 26.9086 120.224C26.5121 120.304 26.1089 120.367 25.7013 120.416C24.4439 120.567 23.1734 120.573 21.9145 120.436C21.4957 120.391 21.0821 120.33 20.6737 120.251C18.873 119.917 17.1411 119.282 15.5504 118.372C12.5856 112.3 9.99608 106.051 7.79637 99.6599C8.37507 97.5106 9.38213 95.5012 10.7568 93.7529C9.05747 91.5886 7.92316 89.0337 7.45644 86.3194C6.98972 83.605 7.20531 80.8168 8.08372 78.207L20.6203 82.4257L8.86336 76.3021C9.38114 75.2309 10.0122 74.2187 10.7456 73.2827C9.34349 71.4961 8.32336 69.4392 7.74882 67.2401C7.17428 65.041 7.05763 62.7469 7.40615 60.5006C7.75466 58.2544 8.56087 56.1041 9.77454 54.1839C10.9882 52.2637 12.5833 50.6146 14.4605 49.3395C16.3376 48.0644 18.4566 47.1906 20.6854 46.7724C22.9141 46.3543 25.2049 46.4008 27.4149 46.9091C29.6249 47.4175 31.7069 48.3766 33.531 49.7269C35.3551 51.0772 36.8822 52.7897 38.0173 54.7577L25.8973 63.6908L39.0398 56.8569C39.8801 58.9497 40.2855 61.1924 40.2311 63.4477C40.1767 65.7029 39.6637 67.9234 38.7234 69.973L28.9223 69.8993L37.9794 71.3911C37.595 72.0512 37.1655 72.684 36.6942 73.2849C38.9922 76.1948 40.2433 79.7972 40.2449 83.5088Z" fill="#6C63FF"/>
<path opacity="0.1" d="M40.2449 103.988C40.2442 107.824 38.9153 111.541 36.485 114.504C34.0547 117.466 30.6738 119.491 26.9197 120.233C26.5232 120.313 26.1201 120.376 25.7124 120.425C24.455 120.576 23.1845 120.582 21.9256 120.445C21.5068 120.4 21.0933 120.338 20.6849 120.26C18.8841 119.926 17.1522 119.291 15.5615 118.381C12.5927 112.306 9.99936 106.054 7.79637 99.6599C8.37507 97.5106 9.38213 95.5012 10.7568 93.7528C8.46051 90.8352 7.21479 87.2254 7.22166 83.5088C7.22166 81.6507 38.9239 90.9278 36.7098 93.7439C39.0068 96.6611 40.2526 100.271 40.2449 103.988Z" fill="black"/>
</g>
<g opacity="0.1">
<path opacity="0.1" d="M226.072 123.406C225.426 125.474 224.736 127.527 224.027 129.532C223.831 128.941 223.731 128.322 223.733 127.699C223.733 125.704 224.714 124.012 226.072 123.406Z" fill="#3F3D56"/>
<path opacity="0.1" d="M233 87.7721C233 91.6915 232.211 97.8844 230.772 104.968C229.512 111.19 227.94 117.344 226.061 123.406C225.415 125.474 224.725 127.527 224.016 129.532C223.203 131.81 222.346 134.026 221.448 136.145C218.994 135.242 216.787 133.769 215.009 131.848C213.231 129.926 211.931 127.61 211.217 125.089C210.502 122.568 210.392 119.913 210.896 117.341C211.4 114.769 212.504 112.353 214.117 110.29C212.418 108.12 211.283 105.559 210.817 102.839C210.35 100.12 210.566 97.3263 211.444 94.7109L223.981 98.9385L212.224 92.8015C212.742 91.7282 213.373 90.7137 214.106 89.7754C212.54 87.7736 211.453 85.438 210.93 82.9487C210.407 80.4594 210.46 77.8828 211.087 75.4176C211.714 72.9524 212.897 70.6644 214.545 68.7299C216.193 66.7955 218.262 65.2663 220.593 64.2602C225.653 67.7213 229.462 72.7292 231.452 78.5376L229.28 80.1589L231.61 78.9462C232.392 81.3541 232.848 83.856 232.967 86.3853H232.312L232.98 86.4947C233 86.9168 233 87.3411 233 87.7721Z" fill="#6C63FF"/>
<path opacity="0.1" d="M230.784 104.968C229.523 111.19 227.951 117.344 226.072 123.406C225.426 125.474 224.736 127.527 224.028 129.532C223.214 131.81 222.357 134.026 221.459 136.145C219.005 135.242 216.799 133.769 215.02 131.848C213.242 129.926 211.943 127.61 211.228 125.089C210.513 122.568 210.403 119.913 210.907 117.341C211.411 114.769 212.515 112.353 214.128 110.29C211.835 107.367 210.59 103.754 210.595 100.035C210.595 98.9184 222.116 101.844 230.784 104.968Z" fill="black"/>
</g>
<path opacity="0.1" d="M232.971 86.4903C232.971 86.4568 232.971 86.421 232.971 86.3853C232.852 83.856 232.396 81.354 231.614 78.9463C231.57 78.81 231.525 78.6715 231.479 78.5376C229.489 72.7292 225.68 67.7213 220.619 64.2602C214.947 60.3857 208.062 58.7144 201.251 59.5586C194.439 60.4028 188.167 63.7048 183.607 68.8474C183.129 66.1364 182.375 63.4819 181.355 60.926C173.922 61.8681 166.421 62.1483 158.939 61.7634C163.524 63.883 168.278 65.6138 173.151 66.9379L172.977 67.5856C167.508 66.0968 162.19 64.1005 157.09 61.6227L155.551 60.8746L157.257 60.9863C165.206 61.5081 173.186 61.2785 181.092 60.3006C179.381 56.2106 177.009 52.4317 174.071 49.1164C161.249 47.8211 148.527 45.1233 136.648 39.7746L136.922 39.1649C148.485 44.3752 160.877 47.0529 173.387 48.3705C169.152 43.8196 163.92 40.318 158.104 38.1424C152.288 35.9667 146.047 35.1766 139.875 35.8344C133.702 36.4922 127.766 38.5799 122.536 41.9327C117.306 45.2854 112.925 49.8113 109.739 55.1529C108.554 43.6332 103.782 32.7799 96.098 24.1328C89.2577 26.8729 82.1948 29.0181 74.9877 30.5445C64.1487 32.8542 53.0559 33.7393 41.989 33.1775C46.5739 35.297 51.3277 37.0279 56.2007 38.352L56.0269 38.9997C50.5597 37.5106 45.2426 35.5144 40.1446 33.0368L38.6054 32.2887L40.3117 32.4003C59.1755 33.6425 78.0777 30.64 95.6347 23.6124C94.9739 22.8873 94.2937 22.1786 93.5943 21.4863C71.6709 21.933 47.794 21.7097 26.178 13.8195C18.168 18.7762 11.557 25.7062 6.97464 33.9497C2.3923 42.1931 -0.00879885 51.4754 8.88547e-06 60.9126C8.88547e-06 71.2884 2.84457 85.5567 7.79638 99.872C10.003 106.279 12.6 112.544 15.5727 118.632C17.0852 121.713 18.6912 124.708 20.3775 127.576C22.4106 131.056 24.6488 134.412 27.0801 137.626C27.5167 138.202 27.9585 138.767 28.4055 139.323C30.8971 142.484 33.6936 145.392 36.7543 148.004C37.3736 148.522 37.9965 149.015 38.6232 149.484C40.3029 150.757 42.092 151.878 43.9693 152.834C47.2371 154.476 50.6096 155.438 54.06 155.577C54.3362 155.588 54.6147 155.594 54.8909 155.594V155.708H204.581V155.594H204.693C205.555 155.591 206.411 155.44 207.223 155.148C212.516 153.265 217.389 145.706 221.441 136.152C222.332 134.032 223.197 131.817 224.01 129.539C224.727 127.529 225.409 125.481 226.055 123.413C227.933 117.35 229.505 111.197 230.766 104.975C232.194 97.8911 232.993 91.6982 232.993 87.7788C233 87.3411 233 86.9168 232.971 86.4903Z" fill="#6C63FF"/>
<path d="M74.413 149.136L78.6765 146.621C78.0994 145.634 77.3624 144.75 76.4957 144.006L68.4521 146.514L74.756 142.8C73.1955 141.943 71.4393 141.508 69.6603 141.538C67.8813 141.568 66.1407 142.062 64.6099 142.972C63.0792 143.881 61.811 145.174 60.9301 146.724C60.0493 148.274 59.5863 150.027 59.5865 151.811C59.5865 157.484 64.173 157.68 69.8332 157.68C75.4933 157.68 80.0798 157.484 80.0798 151.811C80.0819 150.375 79.7821 148.954 79.1999 147.642L74.413 149.136Z" fill="#6C63FF"/>
<path opacity="0.1" d="M75.4978 154.65C75.044 154.194 74.5369 153.795 73.9875 153.462C73.2123 152.946 72.4127 152.419 71.4994 152.245C70.6975 152.09 69.871 152.22 69.0491 152.173C67.6312 152.086 66.2963 151.473 65.3046 150.453C64.7232 149.85 64.2643 149.113 63.5649 148.647C62.8098 148.151 61.8519 148.044 60.9565 148.167C60.6966 148.204 60.4392 148.257 60.1857 148.325C59.7835 149.443 59.5785 150.623 59.5798 151.811C59.5798 157.484 64.1663 157.68 69.8265 157.68C72.573 157.68 75.0657 157.633 76.9056 156.939L76.5982 156.363C76.3045 155.748 75.9348 155.172 75.4978 154.65Z" fill="black"/>
<path d="M121.922 49.4715C126.32 49.4715 129.885 45.897 129.885 41.4875C129.885 37.0781 126.32 33.5036 121.922 33.5036C117.524 33.5036 113.958 37.0781 113.958 41.4875C113.958 45.897 117.524 49.4715 121.922 49.4715Z" fill="#3F3D56"/>
<path d="M117.302 103.595C118.124 109.377 117.122 115.273 115.56 120.898C115.268 121.946 114.954 123.002 114.408 123.942C113.863 124.882 113.103 125.691 112.461 126.575C111.125 128.42 110.341 130.595 109.608 132.748C107.588 138.705 105.891 144.768 104.525 150.909C104.442 151.161 104.442 151.432 104.525 151.684C104.719 152.131 105.307 152.189 105.79 152.186L112.04 152.153C112.263 151.724 111.851 151.26 111.595 150.849C110.704 149.46 111.559 147.655 112.346 146.201C114.257 142.67 115.736 138.921 116.752 135.035C117.179 133.398 117.527 131.725 118.222 130.182C119.062 128.311 120.378 126.7 121.447 124.949C122.69 122.915 123.597 120.706 124.497 118.489C125.753 115.411 127.021 112.296 127.515 109.008C127.981 105.922 127.751 102.778 127.448 99.671C127.462 99.5786 127.454 99.4842 127.425 99.3955C127.395 99.3068 127.345 99.2264 127.279 99.161C127.212 99.0956 127.131 99.0469 127.042 99.0191C126.953 98.9913 126.859 98.9851 126.767 99.0011L118.38 98.5678C116.651 98.4785 116.242 98.0988 116.504 99.8006C116.687 101.071 117.119 102.309 117.302 103.595Z" fill="#3F3D56"/>
<path opacity="0.1" d="M117.302 103.595C118.124 109.377 117.122 115.273 115.56 120.898C115.268 121.946 114.954 123.002 114.408 123.942C113.863 124.882 113.103 125.691 112.461 126.575C111.125 128.42 110.341 130.595 109.608 132.748C107.588 138.705 105.891 144.768 104.525 150.909C104.442 151.161 104.442 151.432 104.525 151.684C104.719 152.131 105.307 152.189 105.79 152.186L112.04 152.153C112.263 151.724 111.851 151.26 111.595 150.849C110.704 149.46 111.559 147.655 112.346 146.201C114.257 142.67 115.736 138.921 116.752 135.035C117.179 133.398 117.527 131.725 118.222 130.182C119.062 128.311 120.378 126.7 121.447 124.949C122.69 122.915 123.597 120.706 124.497 118.489C125.753 115.411 127.021 112.296 127.515 109.008C127.981 105.922 127.751 102.778 127.448 99.671C127.462 99.5786 127.454 99.4842 127.425 99.3955C127.395 99.3068 127.345 99.2264 127.279 99.161C127.212 99.0956 127.131 99.0469 127.042 99.0191C126.953 98.9913 126.859 98.9851 126.767 99.0011L118.38 98.5678C116.651 98.4785 116.242 98.0988 116.504 99.8006C116.687 101.071 117.119 102.309 117.302 103.595Z" fill="black"/>
<path d="M118.95 89.5387C117.246 91.9953 115.46 94.8226 116.026 97.7638C116.455 99.9971 118.153 101.728 119.754 103.347C126.156 109.792 132.451 116.952 134.63 125.785C135.191 128.067 135.463 130.41 135.946 132.708C136.824 136.884 138.397 140.877 139.956 144.846L144.135 155.42C145.431 155.452 146.705 155.084 147.785 154.364C148.865 153.645 149.698 152.61 150.171 151.4C149.623 151.358 148.908 150.826 148.588 150.38C146.806 147.908 146.44 144.727 145.984 141.712C145.478 138.38 144.803 135.075 144.126 131.772L141.132 117.158C140.787 115.471 140.442 113.783 139.992 112.122C138.25 105.685 134.948 99.6152 134.438 92.96C134.363 91.9819 134.316 90.9076 133.654 90.1818C132.959 89.4158 131.819 89.2885 130.787 89.2282C126.615 88.9602 123.016 88.5515 118.95 89.5387Z" fill="#3F3D56"/>
<path d="M107.695 150.759C107.24 150.651 106.776 150.591 106.309 150.581C105.862 150.597 105.424 150.717 105.031 150.932C104.638 151.147 104.301 151.451 104.046 151.82C103.786 152.238 103.581 152.689 103.438 153.16L102.834 154.898C102.656 155.407 102.482 155.994 102.747 156.461C102.944 156.751 103.228 156.971 103.558 157.089C105.019 157.741 106.677 157.776 108.258 157.933C109.804 158.085 111.337 158.357 112.862 158.643C113.388 158.743 113.912 158.844 114.444 158.897C115.633 159.018 116.832 158.897 118.021 158.79L119.249 158.672C119.66 158.654 120.066 158.579 120.456 158.449C120.651 158.382 120.83 158.277 120.984 158.139C121.137 158.001 121.26 157.834 121.347 157.647C121.65 156.894 121 156.003 120.204 155.847C119.881 155.784 119.536 155.813 119.22 155.771C118.849 155.707 118.487 155.598 118.142 155.447C116.582 154.828 114.985 154.203 113.604 153.229C113.221 152.959 112.82 152.582 112.862 152.113C112.902 151.912 112.969 151.717 113.061 151.534C113.248 151.055 113.254 150.524 113.078 150.04C113.003 149.835 112.856 149.618 112.649 149.594C112.061 149.522 112.132 150.382 112.045 150.71C111.927 151.157 111.713 151.197 111.294 151.157C110.091 151.048 108.888 150.987 107.695 150.759Z" fill="#F2F2F2"/>
<path d="M142.861 156.76C142.871 157.633 143.171 158.477 143.712 159.161C143.877 159.365 144.083 159.532 144.317 159.65C144.67 159.796 145.051 159.856 145.431 159.827C146.492 159.803 147.539 159.591 148.525 159.199C148.873 159.041 149.23 158.906 149.594 158.795C150.054 158.701 150.518 158.633 150.984 158.594C152.827 158.328 154.444 157.238 156.224 156.687C156.755 156.554 157.277 156.383 157.783 156.173C158.487 155.84 159.057 155.28 159.616 154.737C159.946 154.444 160.23 154.103 160.458 153.725C160.786 153.116 160.806 152.385 160.819 151.695C160.831 151.587 160.813 151.478 160.766 151.38C160.715 151.31 160.645 151.255 160.565 151.222C160.024 150.954 159.382 151.088 158.783 151.193C156.618 151.579 154.402 151.508 152.203 151.436C151.994 151.465 151.782 151.424 151.599 151.319C151.416 151.215 151.273 151.052 151.192 150.858L150.356 149.518C150.118 149.134 149.739 148.694 149.307 148.825C148.962 148.93 148.822 149.355 148.835 149.719C148.848 150.083 148.96 150.445 148.891 150.8C148.841 150.995 148.753 151.178 148.63 151.338C148.508 151.498 148.354 151.631 148.178 151.729C147.827 151.92 147.452 152.064 147.064 152.157C145.834 152.506 144.404 152.901 143.453 153.808C142.754 154.451 142.818 155.891 142.861 156.76Z" fill="#F2F2F2"/>
<path d="M142.428 68.1573C142.908 67.7898 143.32 67.3408 143.645 66.8307C143.925 66.2552 144.1 65.6344 144.164 64.9972L144.513 62.7818C144.707 61.5602 144.934 60.2671 145.748 59.3359C146.561 58.4046 148.18 58.0718 149.006 58.9919C149.367 59.3917 149.51 59.9411 149.599 60.4748C149.853 62.0665 149.748 63.6949 149.293 65.2407C148.837 66.7866 148.042 68.2105 146.966 69.4079C145.966 70.5067 144.738 71.3799 143.68 72.4184C142.758 73.3117 141.958 74.3368 141.108 75.3083C139.05 77.655 136.693 79.7199 134.098 81.4498C134.129 79.7882 134.34 78.006 134.098 76.3557C133.917 75.1631 133.429 74.5199 134.581 73.7405C137.254 71.9181 139.951 70.27 142.428 68.1573Z" fill="#FBBEBE"/>
<path d="M119.966 51.8142C119.879 53.0023 119.387 54.2172 118.407 54.9028C121.182 55.8765 123.92 56.95 126.62 58.1232C126.098 57.6207 125.94 56.8502 125.916 56.1267C125.847 54.2351 126.499 52.3748 127.453 50.7445C127.604 50.5377 127.692 50.2907 127.704 50.0343C127.673 49.5072 127.05 49.2638 126.537 49.141C124.789 48.7158 123.005 48.4564 121.209 48.366C120.441 48.3415 119.529 48.098 119.703 49.0784C119.868 49.9941 120.035 50.8874 119.966 51.8142Z" fill="#FBBEBE"/>
<path d="M125.334 52.4507C128.93 52.4507 131.845 49.5281 131.845 45.9228C131.845 42.3176 128.93 39.395 125.334 39.395C121.738 39.395 118.823 42.3176 118.823 45.9228C118.823 49.5281 121.738 52.4507 125.334 52.4507Z" fill="#FBBEBE"/>
<path d="M131.781 63.5545C131.554 63.0644 131.277 62.5989 130.954 62.1654C129.774 60.4659 128.562 58.7686 127.047 57.3617C125.9 56.3358 124.658 55.4212 123.339 54.6304C122.627 54.141 121.844 53.7644 121.017 53.5137C120.527 53.4048 120.029 53.3368 119.527 53.3105L117.837 53.172C117.688 53.1523 117.538 53.1569 117.391 53.1854C116.932 53.3016 116.723 53.8733 116.821 54.3356C116.919 54.7979 117.266 55.173 117.574 55.5237C117.649 58.983 116.115 62.3955 115.907 65.8503C115.544 71.8913 119.222 77.5103 119.516 83.5557C119.546 83.8289 119.518 84.1054 119.431 84.3664C119.382 84.4915 119.309 84.6054 119.253 84.7282C119.079 85.1078 119.086 85.5389 119.055 85.9565C118.934 87.4459 118.283 88.8423 117.222 89.8915C117.498 90.2348 117.852 90.5061 118.255 90.6821C118.966 90.9925 119.815 91.0193 120.57 91.236C122.539 91.8121 124.557 92.3928 126.604 92.27C126.858 91.7151 127.016 91.1206 127.07 90.5124C127.359 90.3315 127.693 90.7178 127.738 91.0573C127.782 91.3967 127.718 91.792 127.961 92.0377C128.203 92.2834 128.511 92.2454 128.807 92.2074C130.057 92.0489 131.257 91.6268 132.483 91.3431C133.708 91.0595 135.017 90.9233 136.209 91.3297C136.45 91.0238 136.347 90.5704 136.151 90.2354C135.955 89.9005 135.677 89.6057 135.565 89.2327C135.509 89.0178 135.485 88.7958 135.494 88.5739C135.494 86.6644 135.886 84.7349 135.514 82.8612C135.405 82.3118 135.231 81.7758 135.12 81.2242C134.897 80.1544 134.931 79.0512 134.96 77.9591C134.989 76.8671 134.857 75.6857 134.835 74.578C134.834 74.1202 134.804 73.6629 134.746 73.209C134.67 72.7333 134.523 72.2688 134.483 71.7886C134.363 70.5692 134.853 69.3588 134.779 68.135C134.657 66.2769 132.503 65.2674 131.781 63.5545Z" fill="#FF6F61"/>
<path d="M117.086 62.6791C115.509 66.8732 114.738 71.3218 113.967 75.7393L112.185 86.1151C111.68 89.0473 111.172 91.9975 111.192 94.9722C111.192 95.8075 111.245 96.6583 111.027 97.4646C110.742 98.5231 110.033 99.4053 109.497 100.368C108.407 102.333 108.045 104.621 108.472 106.829C108.655 107.755 109.154 108.807 110.091 108.915C110.862 108.999 111.528 108.385 111.978 107.751C113.012 106.297 113.524 104.542 113.983 102.813C115.46 97.1643 116.493 91.4079 117.072 85.5969C117.128 84.8614 117.231 84.1302 117.382 83.4083C117.579 82.6641 117.831 81.9355 118.135 81.2287C118.817 79.5343 119.499 77.84 120.182 76.1457C121.757 72.2308 123.341 68.298 125.504 64.6756C123.365 64.0592 121.14 63.3357 119.002 62.726C118.384 62.5429 117.723 62.6523 117.086 62.6791Z" fill="#FBBEBE"/>
<path d="M120.792 65.8659C119.296 65.5421 117.747 65.6426 116.219 65.6046C116.002 65.6205 115.786 65.5639 115.605 65.4439C115.295 65.1781 115.426 64.6801 115.582 64.3027L116.322 62.516C116.443 62.1467 116.646 61.8094 116.914 61.5289C117.291 61.1939 117.821 61.1113 118.32 61.051C119.944 60.8634 121.614 60.8009 123.189 61.2408C124.764 61.6808 126.245 62.6813 126.949 64.162C127.243 64.7783 127.379 65.5555 126.989 66.1161C126.41 66.9491 125.112 67.8804 124.143 67.4248C122.982 66.8732 122.093 66.1429 120.792 65.8659Z" fill="#FF6F61"/>
<path d="M128.751 35.7838C127.465 35.7699 126.202 36.1349 125.121 36.8334C124.096 35.8604 122.833 35.1777 121.459 34.8551C120.085 34.5326 118.651 34.5818 117.302 34.9976C117.159 34.1743 116.793 33.4061 116.244 32.777C115.695 32.148 114.984 31.6821 114.19 31.4303C113.395 31.1785 112.546 31.1505 111.736 31.3493C110.927 31.548 110.187 31.966 109.598 32.5575C109.009 33.1489 108.593 33.8913 108.397 34.7034C108.2 35.5155 108.229 36.3663 108.482 37.1628C108.734 37.9593 109.2 38.671 109.828 39.2202C110.457 39.7694 111.223 40.135 112.045 40.2771C111.751 41.2833 111.658 42.3377 111.77 43.3801C111.883 44.4225 112.199 45.4324 112.701 46.3523C113.203 47.2721 113.881 48.0838 114.696 48.741C115.51 49.3983 116.446 49.8882 117.45 50.1828C118.454 50.4774 119.505 50.5709 120.545 50.458C121.585 50.3451 122.592 50.028 123.51 49.5248C124.427 49.0216 125.237 48.3422 125.892 47.5253C126.548 46.7083 127.036 45.77 127.33 44.7638C127.8 44.8602 128.279 44.9088 128.758 44.9089C131.899 44.9089 134.447 42.8655 134.447 40.3463C134.447 37.8272 131.888 35.7838 128.751 35.7838Z" fill="#3F3D56"/>
<path opacity="0.1" d="M129.885 42.6265C129.406 42.6278 128.927 42.5792 128.457 42.4813C128.234 43.2982 127.882 44.074 127.415 44.7794C127.855 44.8645 128.303 44.9078 128.751 44.9089C131.687 44.9089 134.098 43.1223 134.407 40.8354C133.362 41.9253 131.725 42.6265 129.885 42.6265Z" fill="black"/>
<path opacity="0.1" d="M120.784 48.3303C119.538 48.3285 118.309 48.034 117.197 47.4704C116.085 46.9068 115.121 46.0899 114.38 45.085C113.64 44.0801 113.145 42.9153 112.935 41.684C112.725 40.4527 112.805 39.1892 113.17 37.9947C112.116 37.8088 111.161 37.2564 110.473 36.4347C109.785 35.6129 109.408 34.5743 109.408 33.5014C109.407 33.2272 109.432 32.9536 109.481 32.684C108.925 33.2858 108.542 34.0265 108.371 34.8284C108.2 35.6302 108.247 36.4635 108.508 37.2406C108.77 38.0176 109.235 38.7097 109.855 39.2441C110.476 39.7784 111.228 40.1353 112.034 40.2771C111.421 42.296 111.629 44.4761 112.615 46.341C113.6 48.2058 115.282 49.6036 117.293 50.2288C119.303 50.854 121.479 50.6556 123.344 49.6771C125.209 48.6987 126.612 47.0197 127.246 45.0072C126.509 46.036 125.539 46.8741 124.415 47.452C123.292 48.0299 122.047 48.331 120.784 48.3303Z" fill="black"/>
<path d="M149.833 61.7913C149.857 61.7571 149.85 61.71 149.816 61.686C149.783 61.662 149.736 61.6702 149.712 61.7043L149.083 62.5879C149.059 62.622 149.066 62.6691 149.1 62.6931C149.133 62.7171 149.18 62.7089 149.204 62.6748L149.833 61.7913Z" fill="#3A3768"/>
<path d="M146.313 58.0395C146.326 58.0204 146.322 57.9939 146.303 57.9803C146.284 57.9667 146.257 57.9711 146.244 57.9902L146.058 58.2519C146.044 58.271 146.048 58.2975 146.067 58.3111C146.086 58.3247 146.113 58.3203 146.126 58.3012L146.313 58.0395Z" fill="#3A3768"/>
<path d="M145.88 58.6561C145.895 58.635 145.89 58.6057 145.869 58.5906C145.848 58.5756 145.819 58.5805 145.804 58.6016L145.448 59.1015C145.433 59.1226 145.438 59.1519 145.459 59.1669C145.48 59.182 145.509 59.1771 145.524 59.156L145.88 58.6561Z" fill="#3A3768"/>
<path d="M145.328 59.4316C145.342 59.4115 145.337 59.3836 145.317 59.3693C145.297 59.3549 145.269 59.3596 145.255 59.3797L144.893 59.8887C144.878 59.9088 144.883 59.9366 144.903 59.951C144.923 59.9653 144.951 59.9606 144.965 59.9406L145.328 59.4316Z" fill="#3A3768"/>
<path d="M150.913 59.8947L147.75 57.6324C147.498 57.4519 147.148 57.5106 146.967 57.7636L141.708 65.1535C141.528 65.4065 141.587 65.7579 141.839 65.9385L145.001 68.2008C145.254 68.3813 145.604 68.3226 145.784 68.0695L151.044 60.6797C151.224 60.4267 151.165 60.0752 150.913 59.8947Z" fill="#3A3768"/>
<path opacity="0.1" d="M150.913 59.8947L147.75 57.6324C147.498 57.4519 147.148 57.5106 146.967 57.7636L141.708 65.1535C141.528 65.4065 141.587 65.7579 141.839 65.9385L145.001 68.2008C145.254 68.3813 145.604 68.3226 145.784 68.0695L151.044 60.6797C151.224 60.4267 151.165 60.0752 150.913 59.8947Z" fill="black"/>
<path d="M150.706 59.4784L147.544 57.2161C147.292 57.0355 146.941 57.0943 146.761 57.3473L141.502 64.7371C141.322 64.9902 141.38 65.3416 141.632 65.5221L144.795 67.7844C145.047 67.965 145.398 67.9062 145.578 67.6532L150.837 60.2634C151.017 60.0104 150.959 59.6589 150.706 59.4784Z" fill="#3A3768"/>
<path d="M150.421 59.6128L149.955 59.2778L149.915 59.3336C149.866 59.4021 149.791 59.4485 149.708 59.4631C149.625 59.4777 149.54 59.4593 149.47 59.4118L147.982 58.3465C147.911 58.2959 147.864 58.2192 147.849 58.1333C147.835 58.0475 147.856 57.9595 147.906 57.8887L147.946 57.8329L147.501 57.5202C147.458 57.4896 147.41 57.4677 147.359 57.4557C147.309 57.4437 147.256 57.4419 147.204 57.4504C147.153 57.4589 147.103 57.4776 147.059 57.5053C147.015 57.5329 146.976 57.5692 146.946 57.6118L141.805 64.8364C141.744 64.9224 141.719 65.0292 141.736 65.1333C141.753 65.2375 141.811 65.3307 141.896 65.3925L144.823 67.4851C144.866 67.5156 144.914 67.5374 144.965 67.5492C145.016 67.561 145.068 67.5626 145.12 67.5539C145.171 67.5451 145.221 67.5263 145.265 67.4984C145.309 67.4705 145.348 67.4341 145.378 67.3913L150.519 60.1689C150.549 60.126 150.571 60.0775 150.582 60.0263C150.593 59.9751 150.595 59.9221 150.585 59.8704C150.576 59.8186 150.557 59.7693 150.529 59.7251C150.501 59.6809 150.464 59.6427 150.421 59.6128Z" fill="#6C63FF"/>
<path d="M149.065 58.6817L148.612 58.3574C148.58 58.3344 148.536 58.3419 148.513 58.374C148.49 58.4062 148.497 58.4508 148.529 58.4737L148.983 58.798C149.015 58.8209 149.059 58.8135 149.082 58.7814C149.105 58.7492 149.098 58.7046 149.065 58.6817Z" fill="#E6E8EC"/>
<path d="M149.222 58.9763C149.267 58.9763 149.303 58.9403 149.303 58.8959C149.303 58.8515 149.267 58.8155 149.222 58.8155C149.178 58.8155 149.142 58.8515 149.142 58.8959C149.142 58.9403 149.178 58.9763 149.222 58.9763Z" fill="#E6E8EC"/>
<path d="M149.245 3.11096C145.287 3.11096 141.49 4.68741 138.692 7.49351C135.893 10.2996 134.32 14.1055 134.32 18.0739C134.32 26.337 149.958 53.7036 149.958 53.7036C149.958 53.7036 164.169 26.3482 164.169 18.0739C164.169 14.1055 162.597 10.2996 159.798 7.49351C156.999 4.68741 153.203 3.11096 149.245 3.11096ZM149.245 28.0522C147.698 28.0522 146.187 27.5924 144.901 26.7311C143.615 25.8698 142.613 24.6455 142.021 23.2132C141.429 21.7808 141.275 20.2047 141.576 18.6841C141.878 17.1635 142.623 15.7668 143.716 14.6705C144.81 13.5742 146.203 12.8277 147.719 12.5252C149.236 12.2227 150.808 12.378 152.237 12.9713C153.665 13.5646 154.887 14.5693 155.746 15.8584C156.605 17.1475 157.063 18.663 157.063 20.2134C157.065 21.2434 156.863 22.2636 156.471 23.2156C156.078 24.1675 155.503 25.0326 154.776 25.7612C154.05 26.4899 153.188 27.0679 152.239 27.4621C151.29 27.8564 150.272 28.0592 149.245 28.0589V28.0522Z" fill="#6C63FF"/>
<path opacity="0.1" d="M149.245 3.11096C145.287 3.11096 141.49 4.68741 138.692 7.49351C135.893 10.2996 134.32 14.1055 134.32 18.0739C134.32 26.337 149.958 53.7036 149.958 53.7036C149.958 53.7036 164.169 26.3482 164.169 18.0739C164.169 14.1055 162.597 10.2996 159.798 7.49351C156.999 4.68741 153.203 3.11096 149.245 3.11096ZM149.245 28.0522C147.698 28.0522 146.187 27.5924 144.901 26.7311C143.615 25.8698 142.613 24.6455 142.021 23.2132C141.429 21.7808 141.275 20.2047 141.576 18.6841C141.878 17.1635 142.623 15.7668 143.716 14.6705C144.81 13.5742 146.203 12.8277 147.719 12.5252C149.236 12.2227 150.808 12.378 152.237 12.9713C153.665 13.5646 154.887 14.5693 155.746 15.8584C156.605 17.1475 157.063 18.663 157.063 20.2134C157.065 21.2434 156.863 22.2636 156.471 23.2156C156.078 24.1675 155.503 25.0326 154.776 25.7612C154.05 26.4899 153.188 27.0679 152.239 27.4621C151.29 27.8564 150.272 28.0592 149.245 28.0589V28.0522Z" fill="black"/>
<path d="M149.245 0C145.287 0 141.49 1.57645 138.692 4.38254C135.893 7.18864 134.32 10.9945 134.32 14.9629C134.32 23.2261 149.958 53.7102 149.958 53.7102C149.958 53.7102 164.169 23.2305 164.169 14.9652C164.169 13 163.784 11.0541 163.034 9.23842C162.284 7.42277 161.185 5.77301 159.799 4.38333C158.413 2.99366 156.767 1.8913 154.957 1.1392C153.146 0.387102 151.205 -2.18885e-08 149.245 0ZM149.245 24.9412C147.698 24.9412 146.187 24.4815 144.901 23.6201C143.615 22.7588 142.613 21.5345 142.021 20.1022C141.429 18.6698 141.275 17.0937 141.576 15.5731C141.878 14.0526 142.623 12.6558 143.716 11.5596C144.81 10.4633 146.203 9.7167 147.719 9.41424C149.236 9.11178 150.808 9.26701 152.237 9.86031C153.665 10.4536 154.887 11.4583 155.746 12.7474C156.605 14.0365 157.063 15.552 157.063 17.1024C157.063 18.1318 156.861 19.1511 156.468 20.1022C156.075 21.0532 155.499 21.9174 154.773 22.6453C154.047 23.3732 153.185 23.9506 152.237 24.3445C151.288 24.7384 150.271 24.9412 149.245 24.9412Z" fill="#6C63FF"/>
</svg>
