<svg width="28" height="29" viewBox="0 0 28 29" fill="none" xmlns="http://www.w3.org/2000/svg">
<path d="M18.9404 3.42857C17.4887 1.89603 15.6359 0.815745 13.5999 0.314675C11.5639 -0.186396 9.42921 -0.0874346 7.44672 0.599929C5.46423 1.28729 3.7163 2.5345 2.40833 4.19498C1.10036 5.85547 0.286688 7.86024 0.0629466 9.97372C-0.160795 12.0872 0.214685 14.2216 1.14526 16.126C2.07583 18.0304 3.52284 19.6258 5.31624 20.7247C7.10963 21.8235 9.17491 22.3802 11.2694 22.3292C13.3638 22.2783 15.4004 21.6218 17.1398 20.4371L25.0958 28.8332C25.1942 28.9371 25.3293 28.9971 25.4713 28.9999C25.6133 29.0027 25.7506 28.9482 25.8529 28.8484L27.8356 26.9144C27.938 26.8145 27.9971 26.6775 27.9999 26.5334C28.0027 26.3893 27.949 26.25 27.8505 26.1461L19.8946 17.75C21.42 15.6298 22.1604 13.0321 21.9859 10.4131C21.8114 7.79414 20.7331 5.32123 18.9404 3.42857ZM16.4625 16.925C15.3401 18.0198 13.9229 18.7524 12.3902 19.03C10.8575 19.3076 9.27809 19.1179 7.85167 18.4848C6.42524 17.8517 5.21589 16.8036 4.37654 15.4731C3.53719 14.1427 3.10554 12.5896 3.13618 11.0102C3.16682 9.43085 3.65837 7.89617 4.54866 6.60025C5.43896 5.30433 6.68802 4.30537 8.1379 3.72969C9.58777 3.15401 11.1733 3.02748 12.6941 3.36608C14.2148 3.70469 15.6025 4.49323 16.6815 5.63198C18.1285 7.15901 18.9183 9.20669 18.8772 11.3245C18.8361 13.4424 17.9675 15.457 16.4625 16.925Z" fill="#6C63FF"/>
</svg>
