<svg width="231" height="186" viewBox="0 0 231 186" fill="none" xmlns="http://www.w3.org/2000/svg">
<path opacity="0.1" d="M124.984 27.4409C110.788 27.4144 97.11 22.2059 84.0238 16.4095C70.9375 10.6131 57.9553 4.14931 44.0163 1.37638C35.0406 -0.406385 24.8612 -0.285928 17.8703 6.04531C11.1446 12.138 9.21892 22.2492 8.29687 31.6015C7.60533 38.6314 7.29525 46.0155 9.9635 52.4575C11.8178 56.9313 14.9797 60.6221 17.2176 64.8887C25.004 79.7291 20.3835 98.6168 12.8847 113.751C9.3658 120.836 5.24307 127.637 2.5891 135.144C-0.0648726 142.651 -1.13992 151.17 1.60176 158.597C4.32305 165.962 10.4429 171.332 16.9891 174.996C30.3079 182.465 45.785 184.108 60.8479 184.775C94.197 186.254 127.597 183.619 160.909 180.969C173.237 179.991 185.619 179.003 197.688 176.081C204.389 174.459 211.286 172.043 216.027 166.704C222.044 159.93 223.252 148.835 218.844 140.844C211.447 127.428 192.035 124.836 186.711 110.337C183.779 102.356 186.268 93.2323 189.946 85.5568C197.838 69.1047 211.455 54.3897 211.641 35.9549C211.767 23.2924 204.638 10.9166 194.022 5.37557C182.892 -0.440113 167.747 0.99092 159.989 11.7068C152.001 22.7407 137.519 27.465 124.984 27.4409Z" fill="#6C63FF"/>
<path d="M195.599 151.198C195.599 151.198 193.092 149.245 190.607 150.635C190.607 150.635 191.372 152.376 194.518 152.21L195.599 151.198Z" fill="#6C63FF"/>
<path d="M195.907 151.304C195.907 151.304 196.67 154.735 194.758 157.069C194.758 157.069 193.608 155.653 194.758 152.189L195.907 151.304Z" fill="#6C63FF"/>
<path d="M199.034 148.011C199.034 148.011 198.848 145.091 193.271 146.06C193.271 146.06 193.245 147.944 195.203 148.835C197.161 149.726 198.057 148.975 199.034 148.011Z" fill="#6C63FF"/>
<path d="M199.377 147.989C199.377 147.989 201.737 148.886 199.634 155.065C199.634 155.065 198.077 154.653 197.798 152.196C197.518 149.738 198.355 148.886 199.377 147.989Z" fill="#6C63FF"/>
<path d="M202.537 143.85C202.537 143.85 202.855 139.049 197.153 139.543C197.153 139.543 196.745 143.879 201.529 145.004L202.537 143.85Z" fill="#6C63FF"/>
<path d="M206.305 138.43C206.305 138.43 205.521 132.99 199.824 134.611C199.824 134.611 199.801 139.316 205.372 139.728L206.305 138.43Z" fill="#6C63FF"/>
<path d="M209.056 132.826C209.056 132.826 207.749 127.526 202.102 129.114C202.102 129.114 203.444 133.879 208.681 133.807L209.056 132.826Z" fill="#6C63FF"/>
<path d="M211.672 127.355C211.672 127.355 210.392 121.855 204.94 123.5C204.94 123.5 206.759 128.726 211.313 128.287L211.672 127.355Z" fill="#6C63FF"/>
<path d="M213.359 122.156C213.359 122.156 212.375 115.439 207.298 116.919C207.298 116.919 208.775 123.038 212.989 123.134L213.359 122.156Z" fill="#6C63FF"/>
<path d="M214.938 115.875C214.938 115.875 213.758 109.094 208.614 111.057C208.614 111.057 210.631 117.463 214.574 116.801L214.938 115.875Z" fill="#6C63FF"/>
<path d="M215.917 110.028C215.917 110.028 214.042 103.249 210.066 103.432C210.066 103.432 211.984 110.595 215.574 111.382L215.917 110.028Z" fill="#6C63FF"/>
<path d="M216.539 104.326C216.539 104.326 214.499 96.1638 211.264 96.7926C211.264 96.7926 212.675 103.032 216.425 105.596L216.539 104.326Z" fill="#6C63FF"/>
<path d="M216.886 97.5129C216.886 97.5129 214.974 90.7095 211.786 90.4397C211.786 90.4397 213.087 97.1323 216.82 99.2788L216.886 97.5129Z" fill="#6C63FF"/>
<path d="M217.279 91.1697C217.279 91.1697 214.895 84.359 212.792 84.2072C212.792 84.2072 213.826 90.9095 217.075 92.2875L217.279 91.1697Z" fill="#6C63FF"/>
<path d="M217.543 85.2624C217.543 85.2624 216.07 77.8567 213.969 77.2544C213.969 77.2544 214.258 83.3014 217.333 85.8141L217.543 85.2624Z" fill="#6C63FF"/>
<path d="M218.336 77.5315C218.336 77.5315 216.794 71.6387 215.086 70.7401C215.086 70.7401 215.425 77.6881 217.942 78.9745L218.336 77.5315Z" fill="#6C63FF"/>
<path d="M218.995 72.4554L219.307 62.0623C219.307 62.0623 216.121 69.9041 218.76 74.2888L218.995 72.4554Z" fill="#6C63FF"/>
<path d="M221.461 62.1274C221.461 62.1274 223.758 54.5362 224.317 54.1146C224.317 54.1146 219.809 59.0365 220.25 65.3725L221.461 62.1274Z" fill="#6C63FF"/>
<path d="M202.692 143.817C202.692 143.817 206.735 143.19 206.613 149.941C206.613 149.941 202.959 150.642 201.768 145.062L202.692 143.817Z" fill="#6C63FF"/>
<path d="M206.494 138.249C206.494 138.249 211.168 138.23 210.778 145.139C210.778 145.139 206.857 145.966 205.562 139.553L206.494 138.249Z" fill="#6C63FF"/>
<path d="M209.101 133.267C209.101 133.267 213.342 130.918 216.057 136.98C216.057 136.98 212.139 138.938 208.728 134.245L209.101 133.267Z" fill="#6C63FF"/>
<path d="M211.767 127.406C211.767 127.406 216.108 124.905 218.658 130.829C218.658 130.829 214.136 132.67 211.408 128.343L211.767 127.406Z" fill="#6C63FF"/>
<path d="M213.304 122.301C213.304 122.301 217.483 117.586 220.819 122.356C220.819 122.356 216.549 126.235 213.11 123.351L213.304 122.301Z" fill="#6C63FF"/>
<path d="M214.701 115.714C214.701 115.714 218.907 110.896 222.216 115.936C222.216 115.936 217.496 119.894 214.552 116.726L214.701 115.714Z" fill="#6C63FF"/>
<path d="M215.488 109.836C215.488 109.836 218.728 103.813 222.54 105.16C222.54 105.16 219.181 111.537 215.525 111.252L215.488 109.836Z" fill="#6C63FF"/>
<path d="M216.443 104.287C216.443 104.287 219.707 96.701 222.793 98.0237C222.793 98.0237 220.441 103.854 216.359 105.567L216.443 104.287Z" fill="#6C63FF"/>
<path d="M216.667 97.1299C216.667 97.1299 220.023 91.16 223.167 91.8876C223.167 91.8876 220.425 97.9417 216.343 98.8572L216.667 97.1299Z" fill="#6C63FF"/>
<path d="M216.924 91.0348C216.924 91.0348 219.523 84.3373 221.639 84.2771C221.639 84.2771 220.39 90.9312 217.098 92.1623L216.924 91.0348Z" fill="#6C63FF"/>
<path d="M217.438 85.1155C217.438 85.1155 220.329 78.3313 222.502 78.3193C222.502 78.3193 221.023 84.1181 217.536 85.713L217.438 85.1155Z" fill="#6C63FF"/>
<path d="M217.875 77.9483C217.875 77.9483 220.037 72.335 221.826 71.6989C221.826 71.6989 220.745 78.5409 218.112 79.4371L217.875 77.9483Z" fill="#6C63FF"/>
<path d="M219.254 72.2579L224.085 63.5657C224.085 63.5657 222.848 72.1398 218.548 73.925L219.254 72.2579Z" fill="#6C63FF"/>
<path d="M222.571 62.8261C222.571 62.8261 228.187 58.2487 228.389 57.5067C228.389 57.5067 225.533 63.9198 220.229 65.0521L222.571 62.8261Z" fill="#6C63FF"/>
<path d="M222.906 60.7662C222.906 60.7662 229.354 53.4448 231 53.4545C231 53.4545 225.682 53.7412 222.75 60.3759L222.906 60.7662Z" fill="#6C63FF"/>
<path d="M217.936 79.0348L218.171 79.0709C219.382 67.8684 221.149 61.2432 223.146 60.4289L223.069 60.1664C220.953 61.0336 219.178 67.5576 217.936 79.0348Z" fill="#444053"/>
<path d="M216.155 105.817L216.51 105.853C216.584 104.808 216.641 103.736 216.68 102.671C217.018 93.3981 217.545 84.8866 218.234 78.5048L218.03 78.2036C217.338 84.5975 216.665 93.3692 216.327 102.652C216.286 103.712 216.229 104.777 216.155 105.817Z" fill="#444053"/>
<path d="M188.977 156.532C189.04 156.498 195.289 153.205 201.774 145.344C205.573 140.741 208.73 135.455 211.127 129.685C214.124 122.474 215.951 113.613 216.565 105.005L216.196 105.21C214.819 124.529 207.371 137.734 201.447 144.923C195.026 152.714 188.849 155.976 188.787 156.005L188.977 156.532Z" fill="#444053"/>
<path d="M213.932 12.1617H17.9174C17.4543 12.1617 17.0101 12.379 16.6827 12.7657C16.3552 13.1525 16.1712 13.677 16.1712 14.2239V20.2323H215.678V14.2239C215.678 13.677 215.494 13.1525 215.167 12.7657C214.839 12.379 214.395 12.1617 213.932 12.1617Z" fill="#3F3D56"/>
<path d="M16.1712 20.2323V155.443C16.1712 156.546 16.5422 157.604 17.2025 158.384C17.8628 159.163 18.7583 159.601 19.6922 159.601H212.157C213.091 159.601 213.986 159.163 214.647 158.384C215.307 157.604 215.678 156.546 215.678 155.443V20.2323H16.1712Z" fill="white"/>
<path opacity="0.8" d="M19.3332 17.098C19.7838 17.098 20.1492 16.6666 20.1492 16.1344C20.1492 15.6022 19.7838 15.1707 19.3332 15.1707C18.8825 15.1707 18.5172 15.6022 18.5172 16.1344C18.5172 16.6666 18.8825 17.098 19.3332 17.098Z" fill="#FA5959"/>
<path opacity="0.8" d="M21.5771 17.098C22.0277 17.098 22.3931 16.6666 22.3931 16.1344C22.3931 15.6022 22.0277 15.1707 21.5771 15.1707C21.1264 15.1707 20.7611 15.6022 20.7611 16.1344C20.7611 16.6666 21.1264 17.098 21.5771 17.098Z" fill="#FED253"/>
<path opacity="0.8" d="M23.821 17.098C24.2716 17.098 24.637 16.6666 24.637 16.1344C24.637 15.6022 24.2716 15.1707 23.821 15.1707C23.3703 15.1707 23.005 15.6022 23.005 16.1344C23.005 16.6666 23.3703 17.098 23.821 17.098Z" fill="#8CCF4D"/>
<g opacity="0.3">
<path opacity="0.3" d="M208.232 28.421H23.821V151.287H208.232V28.421Z" stroke="#3F3D56" stroke-miterlimit="10"/>
<path opacity="0.3" d="M184.161 28.421H47.8924V151.287H184.161V28.421Z" stroke="#3F3D56" stroke-miterlimit="10"/>
<path opacity="0.3" d="M160.089 28.421H71.9637V151.287H160.089V28.421Z" stroke="#3F3D56" stroke-miterlimit="10"/>
<path opacity="0.3" d="M136.018 28.421H96.0352V151.287H136.018V28.421Z" stroke="#3F3D56" stroke-miterlimit="10"/>
<path opacity="0.3" d="M116.027 28.421V151.287" stroke="#3F3D56" stroke-miterlimit="10"/>
<path opacity="0.3" d="M208.232 46.2487H23.821V133.46H208.232V46.2487Z" stroke="#3F3D56" stroke-miterlimit="10"/>
<path opacity="0.3" d="M208.232 63.8355H23.821V115.873H208.232V63.8355Z" stroke="#3F3D56" stroke-miterlimit="10"/>
<path opacity="0.3" d="M208.232 81.4222H23.821V98.2862H208.232V81.4222Z" stroke="#3F3D56" stroke-miterlimit="10"/>
</g>
<path opacity="0.1" d="M67.1699 35.2871H52.6863V41.5509H67.1699V35.2871Z" fill="#3F3D56"/>
<path opacity="0.1" d="M40.8546 52.392H30.0428V58.6558H40.8546V52.392Z" fill="#3F3D56"/>
<path opacity="0.1" d="M90.6293 35.2871H76.1456V41.5509H90.6293V35.2871Z" fill="#3F3D56"/>
<path opacity="0.1" d="M112.661 35.2871H98.1771V41.5509H112.661V35.2871Z" fill="#3F3D56"/>
<path opacity="0.1" d="M133.06 35.2871H118.577V41.5509H133.06V35.2871Z" fill="#3F3D56"/>
<path opacity="0.1" d="M155.908 35.2871H141.424V41.5509H155.908V35.2871Z" fill="#3F3D56"/>
<path opacity="0.1" d="M179.163 35.2871H164.679V41.5509H179.163V35.2871Z" fill="#3F3D56"/>
<path opacity="0.1" d="M203.846 35.2871H189.363V41.5509H203.846V35.2871Z" fill="#3F3D56"/>
<path d="M90.7618 69.244H81.3516V80.0033H90.7618V69.244Z" fill="url(#paint0_linear)"/>
<path d="M90.6008 69.4295H81.5148V79.8178H90.6008V69.4295Z" fill="#7CFCFF"/>
<path d="M110.15 66.912H100.739V77.6712H110.15V66.912Z" fill="url(#paint1_linear)"/>
<path d="M109.988 67.0975H100.902V77.4857H109.988V67.0975Z" fill="#FFFFA5"/>
<path d="M147.481 103.531H138.07V114.29H147.481V103.531Z" fill="url(#paint2_linear)"/>
<path d="M147.319 103.716H138.234V114.105H147.319V103.716Z" fill="#FFFFA5"/>
<path d="M64.6057 50.0696H55.1954V60.8289H64.6057V50.0696Z" fill="url(#paint3_linear)"/>
<path d="M64.4425 50.2551H55.3566V60.6433H64.4425V50.2551Z" fill="#FFFFA5"/>
<path d="M83.3038 65.4882H73.8936V76.2474H83.3038V65.4882Z" fill="url(#paint4_linear)"/>
<path d="M83.1406 65.6737H74.0547V76.0619H83.1406V65.6737Z" fill="#FF69B4"/>
<path d="M158.488 103.454H149.078V114.213H158.488V103.454Z" fill="url(#paint5_linear)"/>
<path d="M158.327 103.639H149.241V114.028H158.327V103.639Z" fill="#7CFCFF"/>
<path d="M175.012 50.2118H165.601V60.971H175.012V50.2118Z" fill="url(#paint6_linear)"/>
<path d="M174.851 50.3973H165.765V60.7855H174.851V50.3973Z" fill="#7CFCFF"/>
<path d="M173.992 84.4216H164.581V95.1809H173.992V84.4216Z" fill="url(#paint7_linear)"/>
<path d="M173.83 84.6072H164.745V94.9954H173.83V84.6072Z" fill="#7CFCFF"/>
<path d="M181.131 86.8308H171.721V97.59H181.131V86.8308Z" fill="url(#paint8_linear)"/>
<path d="M180.97 87.0163H171.884V97.4045H180.97V87.0163Z" fill="#7CFCFF"/>
<path d="M151.03 99.698H141.62V110.457H151.03V99.698Z" fill="url(#paint9_linear)"/>
<path d="M150.867 99.8835H141.781V110.272H150.867V99.8835Z" fill="#FF69B4"/>
<path d="M152.05 67.1746H142.64V77.9338H152.05V67.1746Z" fill="url(#paint10_linear)"/>
<path d="M151.887 67.3601H142.801V77.7483H151.887V67.3601Z" fill="#FF69B4"/>
<path opacity="0.1" d="M40.8546 69.256H30.0428V75.5198H40.8546V69.256Z" fill="#3F3D56"/>
<path opacity="0.1" d="M40.8546 86.8428H30.0428V93.1066H40.8546V86.8428Z" fill="#3F3D56"/>
<path opacity="0.1" d="M40.8546 104.43H30.0428V110.693H40.8546V104.43Z" fill="#3F3D56"/>
<path opacity="0.1" d="M40.8546 122.016H30.0428V128.28H40.8546V122.016Z" fill="#3F3D56"/>
<path opacity="0.1" d="M40.8546 139.603H30.0428V145.867H40.8546V139.603Z" fill="#3F3D56"/>
<path d="M62.886 84.9661C63.1879 84.7396 63.0676 84.1325 62.7575 83.9229C62.4474 83.7133 62.0619 83.7832 61.7131 83.8651C61.7279 83.7601 61.7142 83.6522 61.6739 83.557C61.6335 83.4618 61.5687 83.3841 61.4887 83.3351V83.2435C61.6927 83.0026 61.6151 82.5208 61.3663 82.3088C61.1174 82.0968 60.7298 82.0872 60.3952 82.1064C60.419 81.8669 60.3944 81.6242 60.3235 81.3981C60.2526 81.172 60.1374 80.9689 59.9873 80.8055C59.9288 80.731 59.8486 80.6854 59.7629 80.6778C59.5589 80.6778 59.5018 80.9862 59.4875 81.215C59.4487 81.8161 59.3647 82.4119 59.2366 82.9954L52.8964 95.523C52.1906 96.7275 54.3835 93.1138 53.6777 94.3304C53.3202 94.9927 52.9015 95.606 52.4293 96.159C52.0053 96.6059 51.5309 96.9813 51.0197 97.2744C50.6782 97.2862 50.342 97.1734 50.0568 96.9516C49.6986 96.6553 49.3855 96.2896 49.1307 95.8699C48.578 95.0402 48.0782 94.1633 47.6354 93.2463C47.4819 92.9561 47.3663 92.6401 47.2927 92.3092C47.1988 91.7888 47.2927 91.225 47.1193 90.736C47.0455 90.5536 46.9537 90.3822 46.8459 90.2252L46.4073 89.5386V89.5073C46.3584 88.4907 45.6587 87.7053 45.0059 87.0355C44.451 86.4622 43.8492 85.8647 43.1169 85.7539C42.7252 85.6936 42.3234 85.7828 41.9317 85.725C41.6114 85.6768 41.3075 85.5346 40.9892 85.472C40.6829 85.4226 40.3728 85.4153 40.0651 85.4503L39.9346 85.3082C40.6116 84.9704 41.1867 84.3995 41.5849 83.67C41.8868 83.0942 42.052 82.4292 42.3315 81.8366C42.6722 81.1139 43.1781 80.5164 43.5555 79.8226C44.4673 78.1771 44.6346 76.0595 44.2654 74.1418C43.8962 72.2241 43.0312 70.4823 42.0214 68.9284C40.0631 65.9362 36.7788 64.8328 33.6862 65.411C33.4822 65.4496 33.2782 65.4954 33.0742 65.5484C32.554 65.6776 32.0461 65.8689 31.5586 66.1193C30.8988 66.4383 30.3264 66.966 29.9042 67.6443C29.7903 67.8426 29.694 68.0541 29.6165 68.2755C29.5596 68.4447 29.5132 68.6187 29.4778 68.7959C29.383 69.3311 29.3575 69.8802 29.4023 70.4245C29.4146 70.61 29.4309 70.7955 29.4492 70.981L29.4798 71.2604C29.5002 71.4459 29.5227 71.6315 29.5451 71.817C29.5778 72.0964 29.6084 72.3759 29.6308 72.6505C29.6488 72.8449 29.6576 73.0404 29.6573 73.2359C29.6573 73.2865 29.6573 73.3347 29.6573 73.3829C29.6501 73.5283 29.6317 73.6727 29.6022 73.8141C29.5862 73.8919 29.5657 73.9684 29.541 74.043C29.4676 74.2643 29.3709 74.474 29.2534 74.667C29.0945 74.929 28.9222 75.1792 28.7373 75.4162L28.5598 75.6571C28.5007 75.7366 28.4436 75.8186 28.3844 75.8981C28.1512 76.2192 27.9378 76.5598 27.7459 76.9171C27.6523 77.0969 27.5685 77.2836 27.495 77.476C27.4392 77.6219 27.3908 77.7715 27.3501 77.9241C27.2982 78.1288 27.2614 78.3384 27.24 78.5505C27.24 78.6035 27.24 78.6565 27.2277 78.7095C27.2277 78.8131 27.2277 78.9191 27.2277 79.0251C27.2322 79.1301 27.2418 79.2346 27.2563 79.3383C27.2707 79.4411 27.2911 79.5425 27.3175 79.6419C27.3431 79.7426 27.3751 79.8408 27.4134 79.9358C27.4134 79.9623 27.4338 79.9888 27.446 80.0153L27.4787 80.0948C27.5011 80.1478 27.5235 80.1984 27.5439 80.2514C27.5747 80.3281 27.5973 80.409 27.6113 80.4923C27.6113 80.5188 27.6113 80.5477 27.6113 80.5766C27.6113 80.6055 27.6113 80.6393 27.6113 80.6682C27.5788 80.9101 27.4712 81.1292 27.3093 81.2825C27.2685 81.3283 27.2277 81.3692 27.1849 81.4126L27.1196 81.4752L26.987 81.5981L26.8606 81.7185C26.7494 81.8285 26.6464 81.9494 26.5525 82.0799C25.4039 82.0074 24.2525 82.1406 23.1377 82.475C22.7416 82.6273 22.3298 82.7157 21.9137 82.7376C21.8138 82.7485 21.7132 82.7303 21.6207 82.6845C21.5283 82.6387 21.4467 82.5668 21.3833 82.475C21.3126 82.2944 21.2933 82.0915 21.3282 81.8968C21.3832 81.0902 21.2712 80.2799 21.0018 79.5359C20.9367 79.3181 20.8241 79.1245 20.6754 78.9745C20.5997 78.9018 20.5063 78.8593 20.4088 78.8532C20.3113 78.8472 20.2146 78.8778 20.1328 78.9408C20.4778 80.2588 20.4281 81.677 19.9921 82.9569C19.7681 83.5602 19.5055 84.1424 19.2067 84.6987C18.7416 85.6358 18.4805 86.7079 18.0663 87.6788C18.5294 89.5314 18.4254 91.5093 18.6783 93.4222C18.9048 95.2025 19.4311 96.9082 19.9594 98.597C20.3674 99.8715 20.7917 101.201 21.6567 102.098C21.9354 102.43 22.3114 102.623 22.7072 102.637C23.0002 102.594 23.2801 102.469 23.5232 102.271C23.7755 102.109 24.0081 101.907 24.2147 101.671C24.2912 101.572 24.3595 101.465 24.4187 101.351C24.4441 101.512 24.4961 101.666 24.5717 101.804C25.0695 100.536 25.6162 99.2981 26.2037 98.0863C26.3787 97.9762 26.5429 97.8437 26.6933 97.6912C26.6933 97.7346 26.7116 97.7779 26.7218 97.8213C26.6953 97.9369 26.6708 98.0622 26.6443 98.1706C26.6178 98.279 26.5872 98.3947 26.5586 98.5031C26.5301 98.6115 26.5158 98.6645 26.4934 98.744C26.4709 98.8235 26.4383 98.9367 26.4077 99.0331C26.3771 99.1294 26.3424 99.2427 26.3077 99.3463C26.2731 99.4499 26.2608 99.4956 26.2343 99.5679C26.1711 99.751 26.1058 99.9293 26.0303 100.108C26.0871 100.14 26.1457 100.168 26.2057 100.192L26.2445 100.206C26.2974 100.226 26.3512 100.242 26.4056 100.255H26.4648C26.5047 100.262 26.5449 100.267 26.5852 100.269H26.63H26.7626C26.9086 100.261 27.0532 100.232 27.1931 100.182L27.2726 100.568C27.4761 101.434 27.6073 102.321 27.6643 103.218C27.7031 104.23 27.5541 105.258 27.7194 106.253C27.803 106.771 27.9723 107.268 28.0335 107.788C28.073 108.278 28.0654 108.772 28.0111 109.26C27.9159 110.442 27.8207 111.625 27.7255 112.809C27.7167 113.243 27.6291 113.67 27.4685 114.061C27.3277 114.35 27.0992 114.68 27.242 114.967C27.4771 114.893 27.7164 114.839 27.958 114.806C27.8703 115.182 27.7908 115.56 27.7153 115.94C27.6417 116.223 27.6222 116.522 27.6582 116.815C27.7092 117.09 27.8622 117.338 27.8785 117.617C27.9152 118.051 27.6602 118.434 27.5195 118.836C27.1604 119.863 27.5419 121.019 27.9275 122.036L29.0535 125.052L29.9776 127.526C30.2509 128.249 30.5263 128.996 30.7936 129.738C31.9979 133.116 32.9813 136.599 33.7352 140.155C33.7604 140.316 33.8124 140.47 33.8882 140.608C34.0432 140.849 34.3268 140.926 34.5573 141.075C35.2488 141.526 35.3284 142.87 34.696 143.429C34.8245 145.241 33.676 146.992 33.0844 148.669C31.7218 152.523 31.9686 156.874 31.5014 161.018L32.0298 160.654C32.0924 160.688 32.1503 160.732 32.2011 160.787C32.1889 160.864 32.1746 160.944 32.1583 161.028C32.0868 161.38 31.9728 161.718 31.8197 162.032C31.5116 162.656 31.0404 163.213 30.969 163.931C30.9262 164.364 31.0384 164.798 31.0363 165.234C31.0363 165.275 31.0363 165.314 31.0363 165.354C30.9894 165.301 30.918 165.306 30.8119 165.405C30.6459 165.611 30.5309 165.867 30.4794 166.145C30.3876 166.455 30.3142 166.771 30.2407 167.087L29.9674 168.2C29.8278 168.871 29.6429 169.527 29.4146 170.163C29.2193 170.589 29.0555 171.034 28.925 171.493C28.8523 171.867 28.8241 172.252 28.8413 172.635C28.836 173.002 28.8808 173.368 28.9739 173.719C29.0964 174.064 29.2784 174.376 29.5085 174.633C29.7386 174.891 30.0116 175.089 30.3101 175.215C30.9076 175.463 31.5335 175.603 32.1665 175.629C32.3287 175.654 32.4932 175.648 32.654 175.613C32.8262 175.554 32.9865 175.455 33.1252 175.321C33.9861 174.574 34.4308 173.201 34.5083 171.948C34.4865 171.69 34.4477 171.434 34.392 171.182C34.4451 169.811 34.2758 168.433 34.3635 167.067C34.3818 167.224 34.4002 167.378 34.4206 167.532L34.6246 169.067C34.6126 169.012 34.5887 168.963 34.5552 168.922C34.4042 169.491 34.3776 170.095 34.4777 170.679C34.5794 171.26 34.7227 171.83 34.9061 172.382L35.1835 173.297C35.2504 173.574 35.3627 173.831 35.514 174.056C35.7568 174.372 36.126 174.49 36.4809 174.591C37.2439 174.854 38.0294 175.016 38.8228 175.073C38.9289 175.088 39.0363 175.064 39.1308 175.006C39.1794 174.963 39.2257 174.917 39.2696 174.868C39.34 174.809 39.4152 174.757 39.4939 174.714C39.8348 174.502 40.0924 174.142 40.212 173.709C40.2694 173.494 40.2873 173.267 40.2644 173.043C40.2415 172.819 40.1785 172.604 40.0794 172.411C39.9867 172.248 39.8808 172.096 39.7632 171.958L38.3679 170.211C38.1546 169.912 37.9271 169.627 37.6866 169.358C37.6578 169.324 37.6224 169.298 37.5834 169.283C37.5443 169.267 37.5027 169.264 37.4622 169.272C37.0827 168.154 37.1317 166.848 37.197 165.622C37.2174 165.256 37.3867 164.497 37.454 163.873C37.7231 163.766 37.9739 163.602 38.1945 163.391C38.4071 163.208 38.5581 162.941 38.6209 162.639C39.3246 158.394 40.4568 154.28 41.5257 150.143C41.6318 149.736 41.7297 149.326 41.8378 148.919C41.8827 148.746 41.9235 148.57 41.9664 148.394C42.0092 148.218 42.0378 148.11 42.0724 147.968C42.1296 147.727 42.1867 147.486 42.2418 147.245C42.2581 147.18 42.2724 147.115 42.2887 147.05C42.2877 147.037 42.2877 147.024 42.2887 147.011C42.356 146.715 42.4213 146.419 42.4927 146.122C42.5172 146.007 42.5437 145.896 42.5681 145.78C42.6477 145.404 42.7273 145.024 42.8027 144.645C42.8152 144.593 42.8247 144.54 42.8313 144.486C42.8589 144.353 42.851 144.212 42.8089 144.084C42.7885 144.034 42.7617 143.989 42.7293 143.949C42.7069 143.918 42.6824 143.887 42.6579 143.858C42.6334 143.829 42.6049 143.79 42.5804 143.754C42.516 143.661 42.4675 143.554 42.4376 143.438C42.4376 143.323 42.4376 143.198 42.4376 143.092C42.4376 142.986 42.4254 142.851 42.4192 142.725C42.4411 142.563 42.4717 142.402 42.511 142.244C42.5355 142.15 42.562 142.056 42.5865 141.962C42.611 141.868 42.6477 141.721 42.6803 141.612C42.8024 141.448 42.8685 141.236 42.866 141.017C42.9925 140.645 43.1319 140.279 43.2842 139.921C43.472 139.558 43.5988 139.156 43.6575 138.736C43.6566 138.357 43.6169 137.979 43.5392 137.611C43.3352 136.045 43.9472 134.52 44.398 133.033C44.7324 131.937 44.9863 130.808 45.1568 129.661C45.2894 128.781 45.3812 127.859 45.779 127.097C45.9103 126.883 46.0224 126.654 46.1136 126.413C46.1753 126.161 46.2056 125.9 46.2033 125.637C46.2535 124.574 46.4715 123.53 46.8459 122.561C46.9289 122.373 46.9854 122.17 47.0132 121.961C47.0143 121.947 47.0143 121.934 47.0132 121.92V121.862L47.1172 121.843C47.2947 120.515 47.4742 119.036 47.3518 117.699C47.1926 116.15 46.5539 114.726 45.5587 113.7H45.5791C45.93 113.49 46.0871 112.977 46.0932 112.524C46.094 112.181 46.0296 111.842 45.9046 111.532C45.7796 111.222 45.5972 110.95 45.371 110.734C45.2699 110.66 45.1858 110.557 45.1262 110.436C45.0924 110.31 45.082 110.178 45.0956 110.048C45.0973 109.654 44.9998 109.269 44.8157 108.942C44.6315 108.614 44.3689 108.358 44.0614 108.207C43.9975 108.186 43.9393 108.146 43.8921 108.091C43.8397 107.985 43.8236 107.859 43.8472 107.74C43.8661 107.349 43.7942 106.959 43.6393 106.612C43.4843 106.266 43.2522 105.976 42.968 105.774C43.0496 105.258 43.1312 104.719 43.0067 104.213C42.8823 103.707 42.4804 103.249 42.0398 103.321C42.3988 102.165 41.8888 100.878 42.0235 99.6571C42.0826 99.1319 42.2601 98.6283 42.2826 98.1007C42.303 97.6189 42.203 97.1034 42.4009 96.6842C42.5987 96.265 43.0659 95.9373 42.9455 95.4796C42.8945 95.2845 42.7415 95.1495 42.6701 94.9592C42.5987 94.7689 42.8843 94.4774 43.0312 94.5834C43.1006 94.5208 43.1699 94.4557 43.2352 94.3882C43.2565 94.6332 43.2975 94.8752 43.3576 95.111C43.4576 95.5061 43.6106 95.8771 43.7146 96.2698C43.8737 96.8697 43.9186 97.5201 44.1756 98.0694C44.5836 98.9488 45.4465 99.3848 46.0299 100.115C46.3727 100.541 46.6195 101.078 46.9724 101.483C47.2404 101.779 47.5345 102.04 47.8496 102.261L49.7345 103.707C49.93 103.874 50.1479 104.002 50.3791 104.085C50.5258 104.118 50.6767 104.115 50.8225 104.077C50.9683 104.039 51.106 103.966 51.2272 103.863C51.3484 103.76 51.4506 103.629 51.5275 103.478C51.6044 103.327 51.6544 103.159 51.6745 102.984C51.5012 102.912 51.3432 102.796 51.2114 102.644C51.2379 102.644 51.2644 102.644 51.291 102.63C51.7387 102.492 52.153 102.232 52.5007 101.871C53.8429 100.609 54.8078 98.8861 55.7503 97.1925C56.7376 95.417 61.4887 90.7191 61.4887 90.7191V88.8159C62.0932 88.402 62.6295 87.8625 63.0717 87.2235C63.31 86.8826 63.4495 86.4603 63.4694 86.0189C63.4786 85.7932 63.427 85.5698 63.3223 85.3808C63.2175 85.1917 63.0648 85.0466 62.886 84.9661ZM23.3722 89.5314C23.2811 90.2236 23.1689 90.911 23.0357 91.5936C22.8888 92.3832 22.7008 93.1612 22.4726 93.9233L22.3992 94.1642C22.3319 94.0148 22.2646 93.8679 22.1952 93.7161C22.0422 93.3379 21.9178 92.9452 21.7872 92.5525L20.9998 90.047C20.8978 89.7217 20.7958 89.3459 20.9488 89.0472C21.0609 88.8642 21.2174 88.7256 21.3976 88.6497C21.9512 88.3498 22.5295 88.1181 23.1234 87.9582C23.3111 87.9137 23.4964 87.8558 23.6782 87.7848C23.5318 88.3549 23.4294 88.9395 23.3722 89.5314ZM24.2433 86.3995C24.217 86.3439 24.2033 86.2813 24.2033 86.2176C24.2033 86.154 24.217 86.0914 24.2433 86.0357C24.3022 85.9656 24.3713 85.9085 24.4473 85.8671L24.5065 85.8189C24.4249 86.0189 24.3331 86.2116 24.2433 86.4067V86.3995ZM25.8753 83.6748C25.6437 83.9017 25.4331 84.1569 25.247 84.4361C25.0472 84.7476 24.8672 85.0762 24.7084 85.419C24.7325 85.2858 24.7242 85.1473 24.6845 85.0194C24.6448 84.8915 24.5753 84.7795 24.484 84.6963C24.4118 84.6494 24.3435 84.5946 24.28 84.5324C24.2119 84.4251 24.1826 84.2902 24.1987 84.1573C24.2147 84.0245 24.2748 83.9046 24.3657 83.8241C24.5534 83.6721 24.7729 83.5838 25.0001 83.5688L25.9405 83.405C25.912 83.4989 25.8936 83.5905 25.8732 83.682L25.8753 83.6748ZM34.6797 164.297C34.6963 163.964 34.6778 163.63 34.6246 163.302C34.7409 163.302 34.8571 163.302 34.9714 163.302C34.8755 163.622 34.7776 163.962 34.6797 164.297Z" fill="url(#paint11_linear)"/>
<path d="M33.7209 66.1338C32.0889 66.4446 30.2734 67.1866 29.641 68.9935C29.1698 70.3594 29.5349 71.8965 29.6553 73.3637C29.7009 73.751 29.6892 74.1447 29.6206 74.5273C29.486 75.1464 29.1147 75.6475 28.7557 76.1269C28.2569 76.7357 27.8381 77.4291 27.5133 78.1844C27.2196 78.9553 27.1258 79.8708 27.4297 80.6417C27.5331 80.8398 27.6024 81.06 27.6337 81.2897C27.6541 81.7909 27.2094 82.1089 26.883 82.4293C25.659 83.6339 25.71 85.8021 25.6998 87.6884C25.681 91.5348 24.958 95.3309 23.5803 98.8163C24.0966 99.1251 24.6798 99.243 25.2537 99.1544C25.8276 99.0659 26.3655 98.7751 26.7973 98.32C26.6277 99.1765 26.3829 100.01 26.067 100.806C27.1033 101.399 28.3538 100.426 28.874 99.2114C29.3942 97.9972 29.4554 96.5854 29.8246 95.2965C30.1938 94.0076 30.8446 92.8874 31.1322 91.5889C31.224 91.16 31.2811 90.7023 31.5035 90.3457C31.6908 90.0878 31.9111 89.8659 32.1563 89.688C33.2323 88.7708 34.0388 87.4796 34.4634 85.9948C35.7323 86.3249 37.0277 86.6573 38.321 86.5176C39.6143 86.3779 40.9362 85.6864 41.6196 84.3807C41.9215 83.8049 42.0847 83.1424 42.3642 82.5497C42.7069 81.827 43.2107 81.2295 43.5881 80.5381C44.4979 78.8926 44.6652 76.7798 44.296 74.8621C43.9268 72.9445 43.072 71.2099 42.052 69.656C40.0978 66.659 36.8135 65.5484 33.7209 66.1338Z" fill="#303D5C"/>
<path d="M23.4212 90.2301C23.3294 90.9191 23.2172 91.6081 23.0867 92.2899C22.9386 93.0783 22.7506 93.8554 22.5236 94.6171C22.3902 94.9507 22.3292 95.3184 22.3462 95.6868C22.3864 95.9124 22.4603 96.1278 22.5644 96.3228C23.309 97.8863 24.3168 99.3969 24.4004 101.189C24.4208 101.635 24.4004 102.119 24.6044 102.488C25.1796 101.025 25.8148 99.5984 26.5097 98.2092C27.2359 96.7637 28.0437 95.2845 28.2518 93.6125C28.3348 92.8278 28.3259 92.0334 28.2253 91.2516C28.1294 90.3722 27.9621 89.4712 27.5093 88.7677C27.0156 88.0064 25.6733 86.8573 24.79 87.0958C23.7639 87.3728 23.5518 89.2496 23.4212 90.2301Z" fill="#6C63FF"/>
<path d="M49.7141 98.6573C50.6892 98.1875 51.6847 97.6937 52.4578 96.8456C52.93 96.2926 53.3488 95.6793 53.7063 95.0171L56.0012 91.107C56.5438 90.1771 57.1048 89.2014 57.2252 88.0812C58.5692 86.4054 59.3789 84.2306 59.516 81.9282C59.5324 81.6993 59.5976 81.3982 59.7914 81.391C59.8772 81.3985 59.9574 81.4442 60.0158 81.5186C60.1658 81.6817 60.2809 81.8844 60.3518 82.1101C60.4228 82.3357 60.4474 82.5781 60.4238 82.8172C60.7584 82.7979 61.1215 82.7883 61.3948 83.0195C61.6682 83.2508 61.7416 83.8242 61.4479 84.0145C61.5462 84.0498 61.6302 84.1264 61.6839 84.2298C61.7377 84.3332 61.7575 84.4563 61.7396 84.5759C62.0904 84.4939 62.476 84.4265 62.7861 84.6337C63.0961 84.8409 63.2145 85.448 62.9146 85.6744C63.0894 85.7543 63.2391 85.8959 63.3432 86.0801C63.4472 86.2642 63.5006 86.4818 63.496 86.7031C63.4773 87.1449 63.3377 87.5676 63.0982 87.9077C62.2169 89.305 60.6625 89.8687 59.6405 91.1263C59.3047 91.566 59.0035 92.041 58.7409 92.5453L55.7809 97.8647C54.8405 99.5511 53.8756 101.278 52.5333 102.536C52.1856 102.897 51.7714 103.157 51.3236 103.295C51.0994 103.362 50.8643 103.358 50.6414 103.285C50.4186 103.212 50.2157 103.072 50.0527 102.878C49.7569 102.481 49.7121 101.914 49.6835 101.382C49.6345 100.486 49.7651 99.5607 49.7141 98.6573Z" fill="#EE8E9E"/>
<path d="M39.802 172.536C39.92 172.674 40.026 172.826 40.1182 172.989C40.2172 173.182 40.2802 173.397 40.3031 173.62C40.326 173.844 40.3081 174.07 40.2508 174.285C40.1325 174.717 39.8754 175.077 39.5348 175.287C39.4551 175.33 39.3792 175.381 39.3083 175.442C39.2649 175.492 39.2186 175.539 39.1696 175.581C39.0744 175.638 38.9676 175.661 38.8616 175.649C38.0691 175.589 37.2845 175.428 36.5218 175.167C36.1709 175.063 35.7996 174.945 35.5548 174.632C35.4035 174.407 35.2912 174.149 35.2244 173.873L34.9469 172.96C34.7648 172.408 34.6221 171.839 34.5206 171.259C34.4193 170.676 34.446 170.073 34.5981 169.505C34.6669 169.607 34.703 169.734 34.7001 169.864C34.7817 170.479 34.9859 171.062 35.2957 171.565C35.3605 171.691 35.4387 171.807 35.5283 171.91C35.7311 172.094 35.9708 172.212 36.2239 172.254C36.7112 172.379 37.2067 172.454 37.7049 172.478C37.7739 172.489 37.8441 172.479 37.9089 172.449C37.9889 172.397 38.0493 172.311 38.0782 172.209C38.1496 171.975 38.1496 171.719 38.0782 171.486C37.9436 171.04 37.5744 170.749 37.3989 170.325C37.2663 170.011 37.4479 169.667 37.7172 169.932C37.9589 170.2 38.1871 170.485 38.4005 170.785L39.802 172.536Z" fill="#303D5C"/>
<path d="M37.2378 166.207C37.1582 167.679 37.1032 169.269 37.7845 170.505C38.0313 170.949 38.3598 171.322 38.6392 171.739C38.7995 171.947 38.9057 172.206 38.9452 172.483C38.984 173.023 38.5556 173.485 38.1048 173.587C37.654 173.688 37.1929 173.519 36.7564 173.346C36.3433 173.224 35.9545 173.008 35.612 172.71C35.0183 172.117 34.8613 171.129 34.743 170.223L34.4655 168.118C34.2554 167.053 34.3442 165.937 34.7185 164.938L35.1754 163.357C35.2053 163.204 35.277 163.066 35.3794 162.965C35.4857 162.896 35.608 162.869 35.7282 162.888C36.1648 162.914 37.2684 163.102 37.4806 163.649C37.6601 164.123 37.2684 165.641 37.2378 166.207Z" fill="#EE8E9E"/>
<path opacity="0.05" d="M37.2378 166.207C37.1582 167.679 37.1032 169.269 37.7845 170.505C38.0313 170.949 38.3598 171.322 38.6392 171.739C38.7995 171.947 38.9057 172.206 38.9452 172.483C38.984 173.023 38.5556 173.485 38.1048 173.587C37.654 173.688 37.1929 173.519 36.7564 173.346C36.3433 173.224 35.9545 173.008 35.612 172.71C35.0183 172.117 34.8613 171.129 34.743 170.223L34.4655 168.118C34.2554 167.053 34.3442 165.937 34.7185 164.938L35.1754 163.357C35.2053 163.204 35.277 163.066 35.3794 162.965C35.4857 162.896 35.608 162.869 35.7282 162.888C36.1648 162.914 37.2684 163.102 37.4806 163.649C37.6601 164.123 37.2684 165.641 37.2378 166.207Z" fill="black"/>
<path d="M47.0438 122.575C47.0447 122.589 47.0447 122.603 47.0438 122.616C47.0179 122.825 46.9613 123.026 46.8765 123.211C46.5021 124.178 46.2835 125.219 46.2319 126.281C46.2341 126.543 46.2039 126.804 46.1422 127.056C46.0507 127.296 45.9385 127.525 45.8076 127.738C45.4098 128.502 45.318 129.424 45.1854 130.299C45.0145 131.442 44.7606 132.566 44.4266 133.657C43.9716 135.146 43.3597 136.669 43.5677 138.235C43.6455 138.603 43.6852 138.981 43.6861 139.36C43.6279 139.779 43.5011 140.181 43.3127 140.543C43.1604 140.899 43.0244 141.265 42.9048 141.639C42.7722 142.039 42.6538 142.448 42.5498 142.863C42.4274 143.366 42.3458 143.964 42.6273 144.368C42.7148 144.467 42.7922 144.578 42.8578 144.698C42.9108 144.883 42.9108 145.083 42.8578 145.267C42.696 146.07 42.5233 146.873 42.3397 147.676C42.1969 148.303 42.0459 148.924 41.8909 149.546C40.7445 154.092 39.443 158.592 38.6759 163.249C38.5658 163.919 37.8375 164.398 37.2745 164.545C36.991 164.617 36.6971 164.608 36.417 164.519C36.1369 164.431 35.8785 164.266 35.6629 164.037C35.6242 163.996 35.5875 163.95 35.5528 163.907C34.9612 163.155 34.8735 162.001 34.9184 160.96C35.1224 156.168 37.1623 151.781 38.1333 147.125C38.4845 145.441 38.6963 143.72 38.7657 141.988C38.9921 136.206 39.0839 130.092 37.6988 124.534C37.4112 123.378 37.0705 122.072 37.5887 121.036C37.915 120.381 38.5209 119.993 39.1207 119.713C40.3438 119.15 41.6498 118.882 42.9621 118.923C44.2743 118.964 45.5663 119.315 46.7623 119.954C46.7643 120.07 46.7602 120.186 46.7501 120.301C46.6981 120.84 46.7512 121.385 46.9051 121.896C46.9843 122.111 47.0312 122.341 47.0438 122.575Z" fill="#303D5C"/>
<path d="M30.2713 167.689L30.0122 168.802C29.8742 169.472 29.69 170.127 29.4614 170.761C29.2661 171.186 29.1023 171.631 28.9719 172.09C28.8991 172.465 28.871 172.849 28.8882 173.232C28.8829 173.599 28.9276 173.964 29.0208 174.314C29.1429 174.659 29.3247 174.97 29.5544 175.227C29.7841 175.484 30.0568 175.682 30.3549 175.808C30.9523 176.056 31.5784 176.195 32.2113 176.22C32.3734 176.246 32.5381 176.241 32.6988 176.205C32.871 176.147 33.0313 176.048 33.1701 175.914C34.0309 175.169 34.4736 173.796 34.5511 172.541C34.5289 172.248 34.4803 171.959 34.4063 171.679C34.3389 171.573 33.6882 172.006 33.9677 172.37C34.3757 172.905 33.1741 172.628 32.5622 172.582C32.2933 172.555 32.0267 172.503 31.7645 172.428L30.7731 172.187C30.4488 172.105 30.0755 171.972 29.9571 171.606C29.8388 171.24 30.0918 170.802 30.2876 170.445C30.8058 169.498 30.9404 168.339 31.0608 167.222C31.0832 167.002 31.3157 165.579 30.8364 166.017C30.6718 166.224 30.557 166.48 30.5039 166.757C30.4161 167.058 30.3427 167.373 30.2713 167.689Z" fill="#303D5C"/>
<path opacity="0.05" d="M42.6171 144.371C42.3356 143.966 42.4131 143.369 42.5416 142.865C42.5865 142.677 42.6375 142.492 42.6906 142.306L38.7983 140.75C38.7841 141.164 38.7677 141.574 38.7514 141.983C38.6836 143.716 38.4724 145.438 38.1211 147.122C37.148 151.777 35.106 156.164 34.9061 160.953C34.8592 162.056 34.9592 163.29 35.6507 164.032C35.8658 164.261 36.1238 164.427 36.4036 164.515C36.6833 164.604 36.9768 164.613 37.2602 164.543C37.8253 164.396 38.5515 163.914 38.6637 163.244C39.4348 158.587 40.7302 154.089 41.8787 149.538C42.2363 148.127 42.5586 146.704 42.8456 145.269C42.8986 145.086 42.8986 144.887 42.8456 144.703C42.7817 144.581 42.7049 144.47 42.6171 144.371Z" fill="black"/>
<path d="M31.8625 162.639C31.5545 163.266 31.0853 163.82 31.0139 164.538C30.971 164.969 31.0832 165.403 31.0812 165.839C31.0661 166.2 31.012 166.557 30.92 166.901C30.5406 168.519 30.1041 170.113 29.6104 171.686C29.5293 171.889 29.4934 172.112 29.5064 172.336C29.5553 172.705 29.8593 172.948 30.1489 173.095C31.0771 173.562 32.1216 173.531 33.1293 173.483C33.4224 173.497 33.7129 173.414 33.9677 173.242C34.3288 172.951 34.4186 172.375 34.441 171.859C34.5104 170.366 34.2962 168.865 34.441 167.381C34.492 166.839 34.5879 166.306 34.6593 165.769C34.7592 165.022 34.8102 164.237 34.6021 163.521C34.4299 163.008 34.1888 162.53 33.8882 162.107C33.6229 161.649 33.2873 161.253 32.8988 160.941C32.7805 160.859 32.4439 160.604 32.3235 160.763C32.2623 160.845 32.2889 161.064 32.2807 161.165C32.2649 161.321 32.2417 161.475 32.2113 161.628C32.1368 161.983 32.0193 162.324 31.8625 162.639Z" fill="#EE8E9E"/>
<path opacity="0.05" d="M39.341 124.44C39.1594 124.731 39.1961 125.136 39.2696 125.488C39.3981 126.124 39.6143 126.733 39.7897 127.353C40.0769 128.464 40.3004 129.598 40.4589 130.745C40.622 131.781 40.9688 132.935 40.8281 133.978C41.8921 136.369 42.5916 138.963 42.8945 141.641C42.9741 142.328 41.6828 143.214 41.7073 143.906C41.7563 145.284 42.6865 145.395 42.001 146.493C41.9664 146.549 42.2581 147.78 42.2193 147.833C41.9399 148.23 41.5849 148.556 41.285 148.919C40.8983 149.437 40.5673 150.009 40.2997 150.623C38.525 154.41 35.9587 158.703 36.7502 162.931C36.7664 163.083 36.7425 163.238 36.682 163.373C36.6214 163.509 36.527 163.619 36.4116 163.69C36.1773 163.823 35.9209 163.893 35.6609 163.895H35.5385C34.9469 163.143 34.8592 161.989 34.9041 160.948C35.1081 156.156 37.148 151.769 38.119 147.112C38.4702 145.429 38.682 143.708 38.7514 141.976C38.9779 136.194 39.0696 130.08 37.6845 124.522C37.3969 123.365 37.0562 122.06 37.5744 121.024C37.9008 120.368 38.5066 119.981 39.1064 119.701C40.3295 119.138 41.6355 118.87 42.9478 118.911C44.26 118.952 45.5521 119.303 46.748 119.942C46.75 120.058 46.7459 120.174 46.7358 120.289C46.6838 120.828 46.7369 121.373 46.8908 121.884C46.9763 122.103 47.0281 122.338 47.0438 122.578C47.0438 122.578 47.1132 121.645 47.1111 121.66C45.5302 121.927 43.8615 123.149 42.2662 123.426C41.4392 123.53 40.6244 123.742 39.8367 124.057C39.6447 124.128 39.4732 124.261 39.341 124.44Z" fill="black"/>
<path d="M28.3272 114.182C28.1137 114.985 27.9254 115.796 27.7622 116.615C27.6896 116.898 27.6701 117.197 27.7051 117.49C27.7561 117.764 27.909 118.01 27.9254 118.289C27.9621 118.723 27.7071 119.106 27.5663 119.508C27.2073 120.532 27.5908 121.689 27.9743 122.703L29.1004 125.714L30.0265 128.186C30.3019 128.921 30.5753 129.656 30.8425 130.395C32.0461 133.77 33.0288 137.248 33.7821 140.8C33.8074 140.961 33.8587 141.115 33.933 141.253C34.0901 141.494 34.3736 141.571 34.6021 141.721C35.2957 142.169 35.3753 143.513 34.7408 144.072C34.8714 145.881 33.7209 147.628 33.1313 149.305C31.7686 153.159 32.0155 157.496 31.5483 161.64L32.0767 161.273C32.5846 161.548 32.5662 162.398 32.8396 162.974C33.2476 163.839 34.2512 163.96 35.0835 163.895C35.3429 163.893 35.5987 163.823 35.8322 163.69C35.9478 163.62 36.0424 163.509 36.103 163.373C36.1636 163.238 36.1873 163.083 36.1708 162.931C35.3814 158.703 37.9456 154.41 39.7224 150.623C39.9892 150.009 40.3195 149.437 40.7056 148.919C41.0075 148.543 41.3605 148.228 41.642 147.833C42.4253 146.722 42.5253 145.156 42.4722 143.711C42.3478 140.312 41.5885 136.987 40.2487 133.975C40.3915 132.935 40.0447 131.781 39.8815 130.745C39.7224 129.598 39.4968 128.465 39.2063 127.355C39.0308 126.731 38.8166 126.124 38.6861 125.488C38.6147 125.136 38.5759 124.731 38.7575 124.44C38.8916 124.26 39.0653 124.127 39.2593 124.057C40.047 123.742 40.8618 123.53 41.6889 123.426L47.1621 122.498C47.3375 121.171 47.517 119.692 47.3946 118.357C47.2631 117.12 46.8271 115.956 46.1406 115.009C45.4542 114.062 44.5475 113.374 43.533 113.03C43.2943 112.956 43.0149 112.907 42.819 113.086C37.9894 111.966 32.9965 112.344 28.3272 114.182Z" fill="#303D5C"/>
<path d="M33.2905 79.2709C33.3702 79.902 33.2871 80.5467 33.0518 81.1211C32.8929 81.4348 32.6852 81.7103 32.4398 81.933C31.9106 82.4355 31.2953 82.7963 30.6365 82.9906C30.2489 83.1063 29.8205 83.1833 29.5574 83.5471C29.1738 84.094 29.4309 84.9228 29.7614 85.5202C30.3285 86.561 31.1159 87.5029 32.1257 87.8282C32.9416 88.0884 33.7923 87.9294 34.6164 88.098C35.2141 88.2209 35.7772 88.5124 36.3667 88.6786C37.2056 88.9052 38.0792 88.8809 38.9081 88.6079C39.7371 88.3349 40.4952 87.8217 41.1137 87.1151C40.2365 86.3201 39.3267 85.4744 38.8697 84.2843C38.5481 83.4326 38.4875 82.4752 38.6984 81.5765C38.9024 80.6947 39.3817 79.837 39.2349 78.9264C39.088 78.0157 38.3373 77.4062 37.6029 77.1027C36.9287 76.8608 36.2358 76.6986 35.5344 76.6184C35.1489 76.5558 32.7009 75.9174 32.5479 76.233C32.4622 76.4112 32.9702 77.4665 33.0334 77.7001C33.1826 78.2064 33.2691 78.7354 33.2905 79.2709Z" fill="#EE8E9E"/>
<path d="M36.3769 81.3813C39.1191 81.3813 41.3421 78.7559 41.3421 75.5174C41.3421 72.2789 39.1191 69.6535 36.3769 69.6535C33.6347 69.6535 31.4117 72.2789 31.4117 75.5174C31.4117 78.7559 33.6347 81.3813 36.3769 81.3813Z" fill="#EE8E9E"/>
<path d="M33.7535 85.2094L37.1215 85.8792C37.9493 86.0781 38.7919 86.1781 39.6367 86.1779C40.098 86.1237 40.5626 86.1237 41.0239 86.1779C41.3421 86.2405 41.6461 86.3827 41.9643 86.4309C42.358 86.4887 42.7578 86.3995 43.1515 86.4598C43.8818 86.5706 44.4836 87.1681 45.0385 87.739C45.6892 88.4088 46.3889 89.1845 46.4399 90.2084C46.4491 90.3246 46.4351 90.4418 46.3991 90.5505C46.3352 90.6734 46.2496 90.7785 46.1482 90.8589C45.5362 91.4587 45.1833 92.3525 44.7427 93.1427C44.289 93.958 43.7237 94.6785 43.07 95.2748C42.9231 95.164 42.6436 95.4555 42.7068 95.6483C42.7701 95.841 42.9312 95.9735 42.9843 96.1686C43.1046 96.6191 42.6334 96.9516 42.4376 97.3732C42.2417 97.7948 42.3417 98.308 42.3213 98.7874C42.2968 99.315 42.1173 99.8185 42.0622 100.341C41.9255 101.563 42.4376 102.849 42.0765 104.003C42.5192 103.938 42.919 104.389 43.0434 104.892C43.1679 105.396 43.0883 105.938 43.0047 106.453C43.289 106.654 43.5213 106.943 43.6766 107.289C43.832 107.634 43.9043 108.024 43.8859 108.414C43.8686 108.46 43.8602 108.511 43.8615 108.561C43.8627 108.611 43.8735 108.661 43.8931 108.706C43.9127 108.751 43.9405 108.79 43.9746 108.82C44.0086 108.851 44.0481 108.872 44.0899 108.882C44.397 109.033 44.6592 109.288 44.8433 109.615C45.0274 109.943 45.1252 110.327 45.1242 110.72C45.1105 110.851 45.121 110.984 45.1548 111.11C45.2142 111.231 45.2975 111.332 45.3975 111.406C45.6238 111.621 45.8062 111.894 45.9312 112.203C46.0562 112.512 46.1206 112.851 46.1197 113.194C46.1197 113.659 45.9565 114.158 45.6076 114.367C44.8937 114.796 44.1287 114.962 43.3453 115.162C42.6235 115.364 41.8928 115.517 41.1565 115.622C40.478 115.688 39.7971 115.713 39.1165 115.697L34.6123 115.675C33.3455 115.675 32.0787 115.675 30.816 115.562C29.6369 115.468 28.4313 115.295 27.2889 115.661C27.1461 115.374 27.3746 115.044 27.5154 114.758C27.6767 114.367 27.7644 113.939 27.7724 113.505L28.058 109.961C28.1123 109.474 28.1199 108.981 28.0804 108.491C28.0192 107.969 27.8519 107.475 27.7663 106.957C27.6031 105.964 27.752 104.938 27.7132 103.926C27.655 103.03 27.5231 102.142 27.3195 101.276L26.426 96.9396C26.2832 96.2433 26.2078 95.4338 25.9874 94.7713C25.3007 92.6834 24.5806 90.6179 23.8271 88.575C23.7999 88.4854 23.7894 88.3899 23.7964 88.2951C23.8035 88.2002 23.8279 88.1083 23.8679 88.0257L24.6125 86.4501C24.8117 86.0023 25.0395 85.573 25.2939 85.1661C25.9227 84.2269 26.8132 83.5815 27.8071 83.3447C28.8023 83.1149 29.8341 83.2952 30.7303 83.8555C31.0771 84.0747 31.3994 84.3373 31.7503 84.5541C32.3521 84.8914 33.0865 85.2624 33.7535 85.2094Z" fill="#6C63FF"/>
<path d="M45.7036 89.0713L46.8765 90.9191C46.9843 91.0761 47.0761 91.2475 47.1499 91.4298C47.3253 91.9117 47.2294 92.4802 47.3233 92.9982C47.3964 93.3298 47.5127 93.646 47.668 93.9354C48.109 94.851 48.6075 95.7264 49.1592 96.5541C49.4142 96.9745 49.7281 97.3404 50.0874 97.6358C50.2674 97.7827 50.472 97.8822 50.6874 97.9275C50.9028 97.9728 51.124 97.9629 51.3358 97.8984C51.1586 97.98 51.0133 98.1362 50.9279 98.3369C50.4811 99.3825 50.4485 100.621 50.6382 101.768C50.6916 102.161 50.802 102.541 50.9646 102.89C51.1275 103.243 51.3926 103.514 51.7112 103.654C51.6911 103.829 51.6411 103.997 51.5642 104.148C51.4873 104.299 51.3851 104.43 51.2638 104.533C51.1426 104.635 51.0048 104.708 50.859 104.746C50.7132 104.784 50.5624 104.786 50.4158 104.752C50.1849 104.671 49.9675 104.543 49.7732 104.374L47.8883 102.929C47.5737 102.706 47.2797 102.445 47.0112 102.151C46.6582 101.736 46.4135 101.211 46.0707 100.785C45.4873 100.062 44.6305 99.6185 44.2185 98.7416C43.9594 98.1923 43.9145 97.537 43.7554 96.9444C43.6514 96.5517 43.4984 96.1807 43.3984 95.7856C43.0883 94.5666 43.3127 93.2295 43.784 92.0851C44.2552 90.9408 45.0059 90.0446 45.7036 89.0713Z" fill="#6C63FF"/>
<path d="M41.283 72.1735C40.8235 71.3318 40.2305 70.6029 39.5368 70.027C38.6086 69.2103 37.5417 68.5309 36.3851 68.4538C35.9015 68.4247 35.4182 68.5175 34.9673 68.726C34.9449 67.071 34.5981 65.9676 33.7209 66.1338C32.0889 66.4446 30.2734 67.1866 29.641 68.9934C29.1698 70.3594 29.5349 71.8965 29.6553 73.3636C29.7009 73.751 29.6892 74.1447 29.6206 74.5273C29.486 75.1464 29.1147 75.6475 28.7557 76.1269C28.2569 76.7356 27.8381 77.4291 27.5133 78.1843C27.2196 78.9553 27.1258 79.8707 27.4297 80.6417C27.5331 80.8398 27.6024 81.06 27.6337 81.2897C27.6541 81.7908 27.2094 82.1088 26.883 82.4293C25.659 83.6338 25.71 85.8021 25.6998 87.6884C25.681 91.5348 24.958 95.3309 23.5803 98.8163C24.0966 99.1251 24.6798 99.2429 25.2537 99.1544C25.8276 99.0659 26.3655 98.7751 26.7973 98.32C26.6277 99.1764 26.3829 100.01 26.067 100.806C27.1033 101.399 28.3538 100.426 28.874 99.2114C29.3942 97.9972 29.4554 96.5854 29.8246 95.2965C30.1938 94.0076 30.8446 92.8874 31.1322 91.5888C31.224 91.16 31.2811 90.7023 31.5035 90.3457C31.6908 90.0878 31.9111 89.8659 32.1563 89.688C33.2252 88.7822 31.6504 81.9185 32.0685 80.4441C32.6805 80.6055 33.8331 77.0713 34.4838 73.4576C34.9377 73.6423 35.4218 73.6993 35.8975 73.6238C36.0629 73.5815 36.2326 73.5677 36.4014 73.5829C36.5581 73.6209 36.7075 73.6927 36.842 73.7949C37.3235 74.1438 37.8268 74.4491 38.3475 74.7079C39.4246 75.1898 40.6078 75.1199 41.7563 75.0525C41.9119 74.0567 41.7428 73.0282 41.283 72.1735Z" fill="#303D5C"/>
<g opacity="0.1">
<path opacity="0.1" d="M24.1637 98.8163C25.5456 95.3355 26.2722 91.5424 26.2935 87.6981C26.3037 85.8189 26.2506 83.6363 27.4766 82.4389C27.803 82.1185 28.2477 81.8005 28.2273 81.2994C28.1952 81.0699 28.126 80.8499 28.0233 80.6513C27.7194 79.8852 27.8193 78.9649 28.1049 78.194C28.4298 77.4382 28.8493 76.7446 29.3493 76.1366C29.7063 75.6548 30.0796 75.1561 30.2122 74.5369C30.2806 74.1544 30.293 73.7608 30.2489 73.3733C30.1265 71.9061 29.7634 70.3691 30.2346 69.0031C30.8466 67.2541 32.5581 66.5048 34.1493 66.1772C34.0109 66.1251 33.8639 66.1135 33.7209 66.1434C32.0889 66.4542 30.2734 67.1962 29.641 69.0031C29.1698 70.3691 29.5349 71.9061 29.6553 73.3733C29.7009 73.7606 29.6892 74.1543 29.6206 74.5369C29.486 75.1561 29.1147 75.6572 28.7557 76.1366C28.2569 76.7453 27.8381 77.4388 27.5133 78.194C27.2196 78.9649 27.1258 79.8804 27.4297 80.6513C27.5331 80.8494 27.6024 81.0696 27.6337 81.2994C27.6541 81.8005 27.2094 82.1185 26.883 82.4389C25.659 83.6435 25.71 85.8117 25.6998 87.6981C25.6798 91.5412 24.9568 95.3338 23.5803 98.8163C24.0657 99.1125 24.614 99.234 25.1572 99.1656C24.81 99.1263 24.4726 99.0076 24.1637 98.8163Z" fill="black"/>
<path opacity="0.1" d="M26.6504 100.797C26.9643 99.9998 27.207 99.1665 27.3746 98.3104C27.1652 98.5366 26.927 98.7228 26.6688 98.8621C26.5096 99.5231 26.305 100.168 26.0568 100.789C26.3552 100.957 26.6911 101.008 27.0156 100.934C26.8895 100.906 26.7668 100.86 26.6504 100.797Z" fill="black"/>
<path opacity="0.1" d="M35.5507 68.726C35.8541 68.5865 36.1729 68.4989 36.4972 68.4658H36.385C36.104 68.4487 35.8223 68.4738 35.5466 68.5405C35.5487 68.5935 35.5507 68.6586 35.5507 68.726Z" fill="black"/>
<path opacity="0.1" d="M38.9309 74.7007C38.4108 74.4418 37.9083 74.1366 37.4274 73.7877C37.2922 73.6854 37.1421 73.6136 36.9848 73.5757C36.8305 73.5592 36.6751 73.5706 36.5237 73.6094C36.6343 73.657 36.7408 73.7167 36.842 73.7877C37.3235 74.1366 37.8268 74.4418 38.3475 74.7007C39.1583 75.0166 40.0125 75.1474 40.8647 75.0862C40.2064 75.0859 39.5528 74.9557 38.9309 74.7007Z" fill="black"/>
<path opacity="0.1" d="M35.0673 73.4504C35.0673 73.5034 35.0489 73.5564 35.0387 73.6094C35.2831 73.6523 35.5311 73.6604 35.7772 73.6334C35.5355 73.6038 35.2974 73.5424 35.0673 73.4504Z" fill="black"/>
</g>
<path d="M24.7329 100.645C24.7613 100.955 24.7322 101.269 24.6477 101.565C24.5631 101.861 24.4252 102.131 24.2433 102.358C24.0366 102.593 23.804 102.795 23.5518 102.958C23.3085 103.155 23.0286 103.279 22.7358 103.321C22.3412 103.306 21.9662 103.114 21.6873 102.784C20.8223 101.888 20.3899 100.561 19.9901 99.2861C19.4617 97.5997 18.9354 95.8964 18.709 94.1161C18.4662 92.208 18.5702 90.2325 18.1072 88.3799C18.5152 87.4162 18.7804 86.3417 19.2475 85.407C19.544 84.85 19.8064 84.2687 20.0329 83.6676C20.4667 82.3879 20.5156 80.9712 20.1716 79.6539C20.2534 79.591 20.3501 79.5603 20.4476 79.5664C20.5451 79.5724 20.6385 79.6149 20.7142 79.6877C20.8625 79.8381 20.975 80.0316 21.0406 80.249C21.31 80.9922 21.422 81.8017 21.367 82.6076C21.3321 82.8015 21.3514 83.0035 21.4221 83.1833C21.4853 83.2755 21.5667 83.3479 21.6592 83.3941C21.7517 83.4404 21.8524 83.459 21.9525 83.4484C22.3684 83.4241 22.7799 83.3358 23.1764 83.1858C24.4088 82.8144 25.6851 82.6898 26.9524 82.8172C27.2077 82.8261 27.4586 82.8983 27.6888 83.0292C27.8026 83.0962 27.8984 83.1993 27.9654 83.327C28.0324 83.4546 28.068 83.6017 28.0682 83.7519L25.0491 84.2747C24.8219 84.2897 24.6024 84.378 24.4147 84.5301C24.3244 84.6105 24.2647 84.7299 24.2487 84.8621C24.2326 84.9944 24.2615 85.1288 24.329 85.2359C24.3928 85.2975 24.4611 85.3523 24.533 85.3998C24.6104 85.469 24.6728 85.5589 24.7149 85.6622C24.7571 85.7655 24.7778 85.8792 24.7754 85.9938C24.773 86.1084 24.7476 86.2207 24.7012 86.3214C24.6548 86.4222 24.5887 86.5084 24.5085 86.573C24.4326 86.6144 24.3635 86.6715 24.3045 86.7417C24.1821 86.9368 24.3453 87.1946 24.3984 87.4307C24.4213 87.6048 24.3988 87.7831 24.3339 87.9419C24.2691 88.1006 24.1649 88.2324 24.0353 88.3196C23.7734 88.4893 23.4882 88.6027 23.1928 88.6545C22.5999 88.8159 22.0224 89.0475 21.469 89.3459C21.2888 89.4218 21.1324 89.5604 21.0202 89.7435C20.8713 90.0422 20.9692 90.418 21.0712 90.7432L21.8586 93.2439C21.981 93.6366 22.1055 94.0293 22.2666 94.4076C22.4706 94.8894 22.7134 95.3568 22.9194 95.8531C23.1255 96.3493 23.2601 96.7806 23.411 97.2528C23.8048 98.5272 24.5983 99.2981 24.7329 100.645Z" fill="#EE8E9E"/>
<path d="M61.3867 84.4216H51.9764V95.1809H61.3867V84.4216Z" fill="url(#paint12_linear)"/>
<path d="M61.2255 84.6072H52.1396V94.9954H61.2255V84.6072Z" fill="#7CFCFF"/>
<path d="M59.6507 83.788C59.4828 83.9354 59.3614 84.1449 59.3059 84.3831C59.2931 84.4322 59.2938 84.4849 59.3082 84.5334C59.3225 84.582 59.3496 84.6238 59.3855 84.6529C59.4306 84.6699 59.4791 84.6699 59.5242 84.6529C59.75 84.6056 59.9612 84.4884 60.1362 84.3132C60.0668 84.3567 60.0051 84.4156 59.9546 84.4867C59.9297 84.5226 59.9142 84.5663 59.9098 84.6125C59.9055 84.6586 59.9125 84.7053 59.9301 84.7468C59.9552 84.7827 59.9862 84.8121 60.0213 84.8333C60.0564 84.8544 60.0948 84.8668 60.1341 84.8697C60.4252 84.9322 60.7244 84.9157 61.0093 84.8215C60.8765 84.8799 60.7536 84.9656 60.6462 85.0745C60.5927 85.13 60.5503 85.1987 60.5217 85.2757C60.4932 85.3527 60.4792 85.4361 60.4809 85.5202C60.4811 85.5518 60.4871 85.583 60.4983 85.6116C60.5096 85.6403 60.5259 85.6658 60.5462 85.6864C60.5758 85.7085 60.6093 85.7225 60.6441 85.7274C60.914 85.7834 61.1902 85.7834 61.4601 85.7274C61.5297 85.7241 61.5975 85.7003 61.6573 85.6583C61.7172 85.6162 61.7672 85.5571 61.8028 85.4865C61.8166 85.4066 61.8167 85.3243 61.8031 85.2444C61.7894 85.1645 61.7622 85.0887 61.7232 85.0215C61.5785 84.6538 61.5087 84.2511 61.5192 83.8458C61.5281 83.7639 61.5182 83.6808 61.4907 83.6049C61.4457 83.5313 61.3822 83.4765 61.3091 83.4483C61.0215 83.299 60.6298 83.0918 60.3096 83.2074C60.0597 83.3479 59.8358 83.5452 59.6507 83.788Z" fill="#EE8E9E"/>
<defs>
<linearGradient id="paint0_linear" x1="86.0577" y1="80.0033" x2="86.0577" y2="69.244" gradientUnits="userSpaceOnUse">
<stop stop-color="#808080" stop-opacity="0.25"/>
<stop offset="0.54" stop-color="#808080" stop-opacity="0.12"/>
<stop offset="1" stop-color="#808080" stop-opacity="0.1"/>
</linearGradient>
<linearGradient id="paint1_linear" x1="4964.91" y1="3518.47" x2="4964.91" y2="3037.97" gradientUnits="userSpaceOnUse">
<stop stop-color="#808080" stop-opacity="0.25"/>
<stop offset="0.54" stop-color="#808080" stop-opacity="0.12"/>
<stop offset="1" stop-color="#808080" stop-opacity="0.1"/>
</linearGradient>
<linearGradient id="paint2_linear" x1="6724.32" y1="5190.5" x2="6724.32" y2="4709.99" gradientUnits="userSpaceOnUse">
<stop stop-color="#808080" stop-opacity="0.25"/>
<stop offset="0.54" stop-color="#808080" stop-opacity="0.12"/>
<stop offset="1" stop-color="#808080" stop-opacity="0.1"/>
</linearGradient>
<linearGradient id="paint3_linear" x1="2818.33" y1="2749.46" x2="2818.33" y2="2268.95" gradientUnits="userSpaceOnUse">
<stop stop-color="#808080" stop-opacity="0.25"/>
<stop offset="0.54" stop-color="#808080" stop-opacity="0.12"/>
<stop offset="1" stop-color="#808080" stop-opacity="0.1"/>
</linearGradient>
<linearGradient id="paint4_linear" x1="3699.57" y1="3453.47" x2="3699.57" y2="2972.96" gradientUnits="userSpaceOnUse">
<stop stop-color="#808080" stop-opacity="0.25"/>
<stop offset="0.54" stop-color="#808080" stop-opacity="0.12"/>
<stop offset="1" stop-color="#808080" stop-opacity="0.1"/>
</linearGradient>
<linearGradient id="paint5_linear" x1="7243.11" y1="5186.98" x2="7243.11" y2="4706.48" gradientUnits="userSpaceOnUse">
<stop stop-color="#808080" stop-opacity="0.25"/>
<stop offset="0.54" stop-color="#808080" stop-opacity="0.12"/>
<stop offset="1" stop-color="#808080" stop-opacity="0.1"/>
</linearGradient>
<linearGradient id="paint6_linear" x1="8021.83" y1="2755.95" x2="8021.83" y2="2275.44" gradientUnits="userSpaceOnUse">
<stop stop-color="#808080" stop-opacity="0.25"/>
<stop offset="0.54" stop-color="#808080" stop-opacity="0.12"/>
<stop offset="1" stop-color="#808080" stop-opacity="0.1"/>
</linearGradient>
<linearGradient id="paint7_linear" x1="7973.79" y1="4317.97" x2="7973.79" y2="3837.46" gradientUnits="userSpaceOnUse">
<stop stop-color="#808080" stop-opacity="0.25"/>
<stop offset="0.54" stop-color="#808080" stop-opacity="0.12"/>
<stop offset="1" stop-color="#808080" stop-opacity="0.1"/>
</linearGradient>
<linearGradient id="paint8_linear" x1="8310.28" y1="4427.98" x2="8310.28" y2="3947.47" gradientUnits="userSpaceOnUse">
<stop stop-color="#808080" stop-opacity="0.25"/>
<stop offset="0.54" stop-color="#808080" stop-opacity="0.12"/>
<stop offset="1" stop-color="#808080" stop-opacity="0.1"/>
</linearGradient>
<linearGradient id="paint9_linear" x1="6891.52" y1="5015.49" x2="6891.52" y2="4534.99" gradientUnits="userSpaceOnUse">
<stop stop-color="#808080" stop-opacity="0.25"/>
<stop offset="0.54" stop-color="#808080" stop-opacity="0.12"/>
<stop offset="1" stop-color="#808080" stop-opacity="0.1"/>
</linearGradient>
<linearGradient id="paint10_linear" x1="6939.59" y1="3530.47" x2="6939.59" y2="3049.96" gradientUnits="userSpaceOnUse">
<stop stop-color="#808080" stop-opacity="0.25"/>
<stop offset="0.54" stop-color="#808080" stop-opacity="0.12"/>
<stop offset="1" stop-color="#808080" stop-opacity="0.1"/>
</linearGradient>
<linearGradient id="paint11_linear" x1="5570.08" y1="62408.7" x2="15679.8" y2="62408.7" gradientUnits="userSpaceOnUse">
<stop stop-color="#808080" stop-opacity="0.25"/>
<stop offset="0.54" stop-color="#808080" stop-opacity="0.12"/>
<stop offset="1" stop-color="#808080" stop-opacity="0.1"/>
</linearGradient>
<linearGradient id="paint12_linear" x1="2666.71" y1="4317.97" x2="2666.71" y2="3837.46" gradientUnits="userSpaceOnUse">
<stop stop-color="#808080" stop-opacity="0.25"/>
<stop offset="0.54" stop-color="#808080" stop-opacity="0.12"/>
<stop offset="1" stop-color="#808080" stop-opacity="0.1"/>
</linearGradient>
</defs>
</svg>
